G04 EAGLE Gerber RS-274X export*
G75*
%MOMM*%
%FSLAX34Y34*%
%LPD*%
%INSoldermask Bottom*%
%IPPOS*%
%AMOC8*
5,1,8,0,0,1.08239X$1,22.5*%
G01*
%ADD10C,2.082800*%
%ADD11R,1.600200X0.551200*%
%ADD12C,3.505200*%
%ADD13C,0.838200*%
%ADD14C,1.203200*%
%ADD15C,1.270000*%
%ADD16C,1.703200*%


D10*
X24130Y76200D03*
X26670Y101600D03*
X24130Y127000D03*
X26670Y152400D03*
X24130Y177800D03*
X26670Y203200D03*
X24130Y228600D03*
X26670Y254000D03*
D11*
X382540Y150050D03*
X382540Y143550D03*
X382540Y137050D03*
X382540Y124050D03*
X382540Y130550D03*
X382540Y117550D03*
X382540Y111050D03*
X382540Y104550D03*
X382540Y98050D03*
X382540Y91550D03*
X455660Y150050D03*
X455660Y143550D03*
X455660Y137050D03*
X455660Y130550D03*
X455660Y124050D03*
X455660Y117550D03*
X455660Y111050D03*
X455660Y104550D03*
X455660Y98050D03*
X455660Y91550D03*
X455660Y85050D03*
X455660Y78550D03*
X382540Y78550D03*
X382540Y85050D03*
D12*
X25400Y317500D03*
X25400Y25400D03*
D13*
X50800Y25400D03*
X508000Y330200D03*
D11*
X230140Y302450D03*
X230140Y295950D03*
X230140Y289450D03*
X230140Y276450D03*
X230140Y282950D03*
X230140Y269950D03*
X230140Y263450D03*
X230140Y256950D03*
X230140Y250450D03*
X230140Y243950D03*
X303260Y302450D03*
X303260Y295950D03*
X303260Y289450D03*
X303260Y282950D03*
X303260Y276450D03*
X303260Y269950D03*
X303260Y263450D03*
X303260Y256950D03*
X303260Y250450D03*
X303260Y243950D03*
X303260Y237450D03*
X303260Y230950D03*
X230140Y230950D03*
X230140Y237450D03*
X230140Y150050D03*
X230140Y143550D03*
X230140Y137050D03*
X230140Y124050D03*
X230140Y130550D03*
X230140Y117550D03*
X230140Y111050D03*
X230140Y104550D03*
X230140Y98050D03*
X230140Y91550D03*
X303260Y150050D03*
X303260Y143550D03*
X303260Y137050D03*
X303260Y130550D03*
X303260Y124050D03*
X303260Y117550D03*
X303260Y111050D03*
X303260Y104550D03*
X303260Y98050D03*
X303260Y91550D03*
X303260Y85050D03*
X303260Y78550D03*
X230140Y78550D03*
X230140Y85050D03*
X382540Y302450D03*
X382540Y295950D03*
X382540Y289450D03*
X382540Y276450D03*
X382540Y282950D03*
X382540Y269950D03*
X382540Y263450D03*
X382540Y256950D03*
X382540Y250450D03*
X382540Y243950D03*
X455660Y302450D03*
X455660Y295950D03*
X455660Y289450D03*
X455660Y282950D03*
X455660Y276450D03*
X455660Y269950D03*
X455660Y263450D03*
X455660Y256950D03*
X455660Y250450D03*
X455660Y243950D03*
X455660Y237450D03*
X455660Y230950D03*
X382540Y230950D03*
X382540Y237450D03*
D10*
X549910Y76200D03*
X552450Y101600D03*
X549910Y127000D03*
X552450Y152400D03*
X549910Y177800D03*
X552450Y203200D03*
X549910Y228600D03*
X552450Y254000D03*
D11*
X908320Y150050D03*
X908320Y143550D03*
X908320Y137050D03*
X908320Y124050D03*
X908320Y130550D03*
X908320Y117550D03*
X908320Y111050D03*
X908320Y104550D03*
X908320Y98050D03*
X908320Y91550D03*
X981440Y150050D03*
X981440Y143550D03*
X981440Y137050D03*
X981440Y130550D03*
X981440Y124050D03*
X981440Y117550D03*
X981440Y111050D03*
X981440Y104550D03*
X981440Y98050D03*
X981440Y91550D03*
X981440Y85050D03*
X981440Y78550D03*
X908320Y78550D03*
X908320Y85050D03*
D12*
X551180Y317500D03*
X551180Y25400D03*
D13*
X576580Y25400D03*
X1033780Y330200D03*
D11*
X755920Y302450D03*
X755920Y295950D03*
X755920Y289450D03*
X755920Y276450D03*
X755920Y282950D03*
X755920Y269950D03*
X755920Y263450D03*
X755920Y256950D03*
X755920Y250450D03*
X755920Y243950D03*
X829040Y302450D03*
X829040Y295950D03*
X829040Y289450D03*
X829040Y282950D03*
X829040Y276450D03*
X829040Y269950D03*
X829040Y263450D03*
X829040Y256950D03*
X829040Y250450D03*
X829040Y243950D03*
X829040Y237450D03*
X829040Y230950D03*
X755920Y230950D03*
X755920Y237450D03*
X755920Y150050D03*
X755920Y143550D03*
X755920Y137050D03*
X755920Y124050D03*
X755920Y130550D03*
X755920Y117550D03*
X755920Y111050D03*
X755920Y104550D03*
X755920Y98050D03*
X755920Y91550D03*
X829040Y150050D03*
X829040Y143550D03*
X829040Y137050D03*
X829040Y130550D03*
X829040Y124050D03*
X829040Y117550D03*
X829040Y111050D03*
X829040Y104550D03*
X829040Y98050D03*
X829040Y91550D03*
X829040Y85050D03*
X829040Y78550D03*
X755920Y78550D03*
X755920Y85050D03*
X908320Y302450D03*
X908320Y295950D03*
X908320Y289450D03*
X908320Y276450D03*
X908320Y282950D03*
X908320Y269950D03*
X908320Y263450D03*
X908320Y256950D03*
X908320Y250450D03*
X908320Y243950D03*
X981440Y302450D03*
X981440Y295950D03*
X981440Y289450D03*
X981440Y282950D03*
X981440Y276450D03*
X981440Y269950D03*
X981440Y263450D03*
X981440Y256950D03*
X981440Y250450D03*
X981440Y243950D03*
X981440Y237450D03*
X981440Y230950D03*
X908320Y230950D03*
X908320Y237450D03*
D10*
X24130Y424180D03*
X26670Y449580D03*
X24130Y474980D03*
X26670Y500380D03*
X24130Y525780D03*
X26670Y551180D03*
X24130Y576580D03*
X26670Y601980D03*
D11*
X382540Y498030D03*
X382540Y491530D03*
X382540Y485030D03*
X382540Y472030D03*
X382540Y478530D03*
X382540Y465530D03*
X382540Y459030D03*
X382540Y452530D03*
X382540Y446030D03*
X382540Y439530D03*
X455660Y498030D03*
X455660Y491530D03*
X455660Y485030D03*
X455660Y478530D03*
X455660Y472030D03*
X455660Y465530D03*
X455660Y459030D03*
X455660Y452530D03*
X455660Y446030D03*
X455660Y439530D03*
X455660Y433030D03*
X455660Y426530D03*
X382540Y426530D03*
X382540Y433030D03*
D12*
X25400Y665480D03*
X25400Y373380D03*
D13*
X50800Y373380D03*
X508000Y678180D03*
D11*
X230140Y650430D03*
X230140Y643930D03*
X230140Y637430D03*
X230140Y624430D03*
X230140Y630930D03*
X230140Y617930D03*
X230140Y611430D03*
X230140Y604930D03*
X230140Y598430D03*
X230140Y591930D03*
X303260Y650430D03*
X303260Y643930D03*
X303260Y637430D03*
X303260Y630930D03*
X303260Y624430D03*
X303260Y617930D03*
X303260Y611430D03*
X303260Y604930D03*
X303260Y598430D03*
X303260Y591930D03*
X303260Y585430D03*
X303260Y578930D03*
X230140Y578930D03*
X230140Y585430D03*
X230140Y498030D03*
X230140Y491530D03*
X230140Y485030D03*
X230140Y472030D03*
X230140Y478530D03*
X230140Y465530D03*
X230140Y459030D03*
X230140Y452530D03*
X230140Y446030D03*
X230140Y439530D03*
X303260Y498030D03*
X303260Y491530D03*
X303260Y485030D03*
X303260Y478530D03*
X303260Y472030D03*
X303260Y465530D03*
X303260Y459030D03*
X303260Y452530D03*
X303260Y446030D03*
X303260Y439530D03*
X303260Y433030D03*
X303260Y426530D03*
X230140Y426530D03*
X230140Y433030D03*
X382540Y650430D03*
X382540Y643930D03*
X382540Y637430D03*
X382540Y624430D03*
X382540Y630930D03*
X382540Y617930D03*
X382540Y611430D03*
X382540Y604930D03*
X382540Y598430D03*
X382540Y591930D03*
X455660Y650430D03*
X455660Y643930D03*
X455660Y637430D03*
X455660Y630930D03*
X455660Y624430D03*
X455660Y617930D03*
X455660Y611430D03*
X455660Y604930D03*
X455660Y598430D03*
X455660Y591930D03*
X455660Y585430D03*
X455660Y578930D03*
X382540Y578930D03*
X382540Y585430D03*
D10*
X549910Y424180D03*
X552450Y449580D03*
X549910Y474980D03*
X552450Y500380D03*
X549910Y525780D03*
X552450Y551180D03*
X549910Y576580D03*
X552450Y601980D03*
D11*
X908320Y498030D03*
X908320Y491530D03*
X908320Y485030D03*
X908320Y472030D03*
X908320Y478530D03*
X908320Y465530D03*
X908320Y459030D03*
X908320Y452530D03*
X908320Y446030D03*
X908320Y439530D03*
X981440Y498030D03*
X981440Y491530D03*
X981440Y485030D03*
X981440Y478530D03*
X981440Y472030D03*
X981440Y465530D03*
X981440Y459030D03*
X981440Y452530D03*
X981440Y446030D03*
X981440Y439530D03*
X981440Y433030D03*
X981440Y426530D03*
X908320Y426530D03*
X908320Y433030D03*
D12*
X551180Y665480D03*
X551180Y373380D03*
D13*
X576580Y373380D03*
X1033780Y678180D03*
D11*
X755920Y650430D03*
X755920Y643930D03*
X755920Y637430D03*
X755920Y624430D03*
X755920Y630930D03*
X755920Y617930D03*
X755920Y611430D03*
X755920Y604930D03*
X755920Y598430D03*
X755920Y591930D03*
X829040Y650430D03*
X829040Y643930D03*
X829040Y637430D03*
X829040Y630930D03*
X829040Y624430D03*
X829040Y617930D03*
X829040Y611430D03*
X829040Y604930D03*
X829040Y598430D03*
X829040Y591930D03*
X829040Y585430D03*
X829040Y578930D03*
X755920Y578930D03*
X755920Y585430D03*
X755920Y498030D03*
X755920Y491530D03*
X755920Y485030D03*
X755920Y472030D03*
X755920Y478530D03*
X755920Y465530D03*
X755920Y459030D03*
X755920Y452530D03*
X755920Y446030D03*
X755920Y439530D03*
X829040Y498030D03*
X829040Y491530D03*
X829040Y485030D03*
X829040Y478530D03*
X829040Y472030D03*
X829040Y465530D03*
X829040Y459030D03*
X829040Y452530D03*
X829040Y446030D03*
X829040Y439530D03*
X829040Y433030D03*
X829040Y426530D03*
X755920Y426530D03*
X755920Y433030D03*
X908320Y650430D03*
X908320Y643930D03*
X908320Y637430D03*
X908320Y624430D03*
X908320Y630930D03*
X908320Y617930D03*
X908320Y611430D03*
X908320Y604930D03*
X908320Y598430D03*
X908320Y591930D03*
X981440Y650430D03*
X981440Y643930D03*
X981440Y637430D03*
X981440Y630930D03*
X981440Y624430D03*
X981440Y617930D03*
X981440Y611430D03*
X981440Y604930D03*
X981440Y598430D03*
X981440Y591930D03*
X981440Y585430D03*
X981440Y578930D03*
X908320Y578930D03*
X908320Y585430D03*
D10*
X24130Y772160D03*
X26670Y797560D03*
X24130Y822960D03*
X26670Y848360D03*
X24130Y873760D03*
X26670Y899160D03*
X24130Y924560D03*
X26670Y949960D03*
D11*
X382540Y846010D03*
X382540Y839510D03*
X382540Y833010D03*
X382540Y820010D03*
X382540Y826510D03*
X382540Y813510D03*
X382540Y807010D03*
X382540Y800510D03*
X382540Y794010D03*
X382540Y787510D03*
X455660Y846010D03*
X455660Y839510D03*
X455660Y833010D03*
X455660Y826510D03*
X455660Y820010D03*
X455660Y813510D03*
X455660Y807010D03*
X455660Y800510D03*
X455660Y794010D03*
X455660Y787510D03*
X455660Y781010D03*
X455660Y774510D03*
X382540Y774510D03*
X382540Y781010D03*
D12*
X25400Y1013460D03*
X25400Y721360D03*
D13*
X50800Y721360D03*
X508000Y1026160D03*
D11*
X230140Y998410D03*
X230140Y991910D03*
X230140Y985410D03*
X230140Y972410D03*
X230140Y978910D03*
X230140Y965910D03*
X230140Y959410D03*
X230140Y952910D03*
X230140Y946410D03*
X230140Y939910D03*
X303260Y998410D03*
X303260Y991910D03*
X303260Y985410D03*
X303260Y978910D03*
X303260Y972410D03*
X303260Y965910D03*
X303260Y959410D03*
X303260Y952910D03*
X303260Y946410D03*
X303260Y939910D03*
X303260Y933410D03*
X303260Y926910D03*
X230140Y926910D03*
X230140Y933410D03*
X230140Y846010D03*
X230140Y839510D03*
X230140Y833010D03*
X230140Y820010D03*
X230140Y826510D03*
X230140Y813510D03*
X230140Y807010D03*
X230140Y800510D03*
X230140Y794010D03*
X230140Y787510D03*
X303260Y846010D03*
X303260Y839510D03*
X303260Y833010D03*
X303260Y826510D03*
X303260Y820010D03*
X303260Y813510D03*
X303260Y807010D03*
X303260Y800510D03*
X303260Y794010D03*
X303260Y787510D03*
X303260Y781010D03*
X303260Y774510D03*
X230140Y774510D03*
X230140Y781010D03*
X382540Y998410D03*
X382540Y991910D03*
X382540Y985410D03*
X382540Y972410D03*
X382540Y978910D03*
X382540Y965910D03*
X382540Y959410D03*
X382540Y952910D03*
X382540Y946410D03*
X382540Y939910D03*
X455660Y998410D03*
X455660Y991910D03*
X455660Y985410D03*
X455660Y978910D03*
X455660Y972410D03*
X455660Y965910D03*
X455660Y959410D03*
X455660Y952910D03*
X455660Y946410D03*
X455660Y939910D03*
X455660Y933410D03*
X455660Y926910D03*
X382540Y926910D03*
X382540Y933410D03*
D10*
X549910Y772160D03*
X552450Y797560D03*
X549910Y822960D03*
X552450Y848360D03*
X549910Y873760D03*
X552450Y899160D03*
X549910Y924560D03*
X552450Y949960D03*
D11*
X908320Y846010D03*
X908320Y839510D03*
X908320Y833010D03*
X908320Y820010D03*
X908320Y826510D03*
X908320Y813510D03*
X908320Y807010D03*
X908320Y800510D03*
X908320Y794010D03*
X908320Y787510D03*
X981440Y846010D03*
X981440Y839510D03*
X981440Y833010D03*
X981440Y826510D03*
X981440Y820010D03*
X981440Y813510D03*
X981440Y807010D03*
X981440Y800510D03*
X981440Y794010D03*
X981440Y787510D03*
X981440Y781010D03*
X981440Y774510D03*
X908320Y774510D03*
X908320Y781010D03*
D12*
X551180Y1013460D03*
X551180Y721360D03*
D13*
X576580Y721360D03*
X1033780Y1026160D03*
D11*
X755920Y998410D03*
X755920Y991910D03*
X755920Y985410D03*
X755920Y972410D03*
X755920Y978910D03*
X755920Y965910D03*
X755920Y959410D03*
X755920Y952910D03*
X755920Y946410D03*
X755920Y939910D03*
X829040Y998410D03*
X829040Y991910D03*
X829040Y985410D03*
X829040Y978910D03*
X829040Y972410D03*
X829040Y965910D03*
X829040Y959410D03*
X829040Y952910D03*
X829040Y946410D03*
X829040Y939910D03*
X829040Y933410D03*
X829040Y926910D03*
X755920Y926910D03*
X755920Y933410D03*
X755920Y846010D03*
X755920Y839510D03*
X755920Y833010D03*
X755920Y820010D03*
X755920Y826510D03*
X755920Y813510D03*
X755920Y807010D03*
X755920Y800510D03*
X755920Y794010D03*
X755920Y787510D03*
X829040Y846010D03*
X829040Y839510D03*
X829040Y833010D03*
X829040Y826510D03*
X829040Y820010D03*
X829040Y813510D03*
X829040Y807010D03*
X829040Y800510D03*
X829040Y794010D03*
X829040Y787510D03*
X829040Y781010D03*
X829040Y774510D03*
X755920Y774510D03*
X755920Y781010D03*
X908320Y998410D03*
X908320Y991910D03*
X908320Y985410D03*
X908320Y972410D03*
X908320Y978910D03*
X908320Y965910D03*
X908320Y959410D03*
X908320Y952910D03*
X908320Y946410D03*
X908320Y939910D03*
X981440Y998410D03*
X981440Y991910D03*
X981440Y985410D03*
X981440Y978910D03*
X981440Y972410D03*
X981440Y965910D03*
X981440Y959410D03*
X981440Y952910D03*
X981440Y946410D03*
X981440Y939910D03*
X981440Y933410D03*
X981440Y926910D03*
X908320Y926910D03*
X908320Y933410D03*
D10*
X24130Y1120140D03*
X26670Y1145540D03*
X24130Y1170940D03*
X26670Y1196340D03*
X24130Y1221740D03*
X26670Y1247140D03*
X24130Y1272540D03*
X26670Y1297940D03*
D11*
X382540Y1193990D03*
X382540Y1187490D03*
X382540Y1180990D03*
X382540Y1167990D03*
X382540Y1174490D03*
X382540Y1161490D03*
X382540Y1154990D03*
X382540Y1148490D03*
X382540Y1141990D03*
X382540Y1135490D03*
X455660Y1193990D03*
X455660Y1187490D03*
X455660Y1180990D03*
X455660Y1174490D03*
X455660Y1167990D03*
X455660Y1161490D03*
X455660Y1154990D03*
X455660Y1148490D03*
X455660Y1141990D03*
X455660Y1135490D03*
X455660Y1128990D03*
X455660Y1122490D03*
X382540Y1122490D03*
X382540Y1128990D03*
D12*
X25400Y1361440D03*
X25400Y1069340D03*
D13*
X50800Y1069340D03*
X508000Y1374140D03*
D11*
X230140Y1346390D03*
X230140Y1339890D03*
X230140Y1333390D03*
X230140Y1320390D03*
X230140Y1326890D03*
X230140Y1313890D03*
X230140Y1307390D03*
X230140Y1300890D03*
X230140Y1294390D03*
X230140Y1287890D03*
X303260Y1346390D03*
X303260Y1339890D03*
X303260Y1333390D03*
X303260Y1326890D03*
X303260Y1320390D03*
X303260Y1313890D03*
X303260Y1307390D03*
X303260Y1300890D03*
X303260Y1294390D03*
X303260Y1287890D03*
X303260Y1281390D03*
X303260Y1274890D03*
X230140Y1274890D03*
X230140Y1281390D03*
X230140Y1193990D03*
X230140Y1187490D03*
X230140Y1180990D03*
X230140Y1167990D03*
X230140Y1174490D03*
X230140Y1161490D03*
X230140Y1154990D03*
X230140Y1148490D03*
X230140Y1141990D03*
X230140Y1135490D03*
X303260Y1193990D03*
X303260Y1187490D03*
X303260Y1180990D03*
X303260Y1174490D03*
X303260Y1167990D03*
X303260Y1161490D03*
X303260Y1154990D03*
X303260Y1148490D03*
X303260Y1141990D03*
X303260Y1135490D03*
X303260Y1128990D03*
X303260Y1122490D03*
X230140Y1122490D03*
X230140Y1128990D03*
X382540Y1346390D03*
X382540Y1339890D03*
X382540Y1333390D03*
X382540Y1320390D03*
X382540Y1326890D03*
X382540Y1313890D03*
X382540Y1307390D03*
X382540Y1300890D03*
X382540Y1294390D03*
X382540Y1287890D03*
X455660Y1346390D03*
X455660Y1339890D03*
X455660Y1333390D03*
X455660Y1326890D03*
X455660Y1320390D03*
X455660Y1313890D03*
X455660Y1307390D03*
X455660Y1300890D03*
X455660Y1294390D03*
X455660Y1287890D03*
X455660Y1281390D03*
X455660Y1274890D03*
X382540Y1274890D03*
X382540Y1281390D03*
D10*
X549910Y1120140D03*
X552450Y1145540D03*
X549910Y1170940D03*
X552450Y1196340D03*
X549910Y1221740D03*
X552450Y1247140D03*
X549910Y1272540D03*
X552450Y1297940D03*
D11*
X908320Y1193990D03*
X908320Y1187490D03*
X908320Y1180990D03*
X908320Y1167990D03*
X908320Y1174490D03*
X908320Y1161490D03*
X908320Y1154990D03*
X908320Y1148490D03*
X908320Y1141990D03*
X908320Y1135490D03*
X981440Y1193990D03*
X981440Y1187490D03*
X981440Y1180990D03*
X981440Y1174490D03*
X981440Y1167990D03*
X981440Y1161490D03*
X981440Y1154990D03*
X981440Y1148490D03*
X981440Y1141990D03*
X981440Y1135490D03*
X981440Y1128990D03*
X981440Y1122490D03*
X908320Y1122490D03*
X908320Y1128990D03*
D12*
X551180Y1361440D03*
X551180Y1069340D03*
D13*
X576580Y1069340D03*
X1033780Y1374140D03*
D11*
X755920Y1346390D03*
X755920Y1339890D03*
X755920Y1333390D03*
X755920Y1320390D03*
X755920Y1326890D03*
X755920Y1313890D03*
X755920Y1307390D03*
X755920Y1300890D03*
X755920Y1294390D03*
X755920Y1287890D03*
X829040Y1346390D03*
X829040Y1339890D03*
X829040Y1333390D03*
X829040Y1326890D03*
X829040Y1320390D03*
X829040Y1313890D03*
X829040Y1307390D03*
X829040Y1300890D03*
X829040Y1294390D03*
X829040Y1287890D03*
X829040Y1281390D03*
X829040Y1274890D03*
X755920Y1274890D03*
X755920Y1281390D03*
X755920Y1193990D03*
X755920Y1187490D03*
X755920Y1180990D03*
X755920Y1167990D03*
X755920Y1174490D03*
X755920Y1161490D03*
X755920Y1154990D03*
X755920Y1148490D03*
X755920Y1141990D03*
X755920Y1135490D03*
X829040Y1193990D03*
X829040Y1187490D03*
X829040Y1180990D03*
X829040Y1174490D03*
X829040Y1167990D03*
X829040Y1161490D03*
X829040Y1154990D03*
X829040Y1148490D03*
X829040Y1141990D03*
X829040Y1135490D03*
X829040Y1128990D03*
X829040Y1122490D03*
X755920Y1122490D03*
X755920Y1128990D03*
X908320Y1346390D03*
X908320Y1339890D03*
X908320Y1333390D03*
X908320Y1320390D03*
X908320Y1326890D03*
X908320Y1313890D03*
X908320Y1307390D03*
X908320Y1300890D03*
X908320Y1294390D03*
X908320Y1287890D03*
X981440Y1346390D03*
X981440Y1339890D03*
X981440Y1333390D03*
X981440Y1326890D03*
X981440Y1320390D03*
X981440Y1313890D03*
X981440Y1307390D03*
X981440Y1300890D03*
X981440Y1294390D03*
X981440Y1287890D03*
X981440Y1281390D03*
X981440Y1274890D03*
X908320Y1274890D03*
X908320Y1281390D03*
D10*
X24130Y1468120D03*
X26670Y1493520D03*
X24130Y1518920D03*
X26670Y1544320D03*
X24130Y1569720D03*
X26670Y1595120D03*
X24130Y1620520D03*
X26670Y1645920D03*
D11*
X382540Y1541970D03*
X382540Y1535470D03*
X382540Y1528970D03*
X382540Y1515970D03*
X382540Y1522470D03*
X382540Y1509470D03*
X382540Y1502970D03*
X382540Y1496470D03*
X382540Y1489970D03*
X382540Y1483470D03*
X455660Y1541970D03*
X455660Y1535470D03*
X455660Y1528970D03*
X455660Y1522470D03*
X455660Y1515970D03*
X455660Y1509470D03*
X455660Y1502970D03*
X455660Y1496470D03*
X455660Y1489970D03*
X455660Y1483470D03*
X455660Y1476970D03*
X455660Y1470470D03*
X382540Y1470470D03*
X382540Y1476970D03*
D12*
X25400Y1709420D03*
X25400Y1417320D03*
D13*
X50800Y1417320D03*
X508000Y1722120D03*
D11*
X230140Y1694370D03*
X230140Y1687870D03*
X230140Y1681370D03*
X230140Y1668370D03*
X230140Y1674870D03*
X230140Y1661870D03*
X230140Y1655370D03*
X230140Y1648870D03*
X230140Y1642370D03*
X230140Y1635870D03*
X303260Y1694370D03*
X303260Y1687870D03*
X303260Y1681370D03*
X303260Y1674870D03*
X303260Y1668370D03*
X303260Y1661870D03*
X303260Y1655370D03*
X303260Y1648870D03*
X303260Y1642370D03*
X303260Y1635870D03*
X303260Y1629370D03*
X303260Y1622870D03*
X230140Y1622870D03*
X230140Y1629370D03*
X230140Y1541970D03*
X230140Y1535470D03*
X230140Y1528970D03*
X230140Y1515970D03*
X230140Y1522470D03*
X230140Y1509470D03*
X230140Y1502970D03*
X230140Y1496470D03*
X230140Y1489970D03*
X230140Y1483470D03*
X303260Y1541970D03*
X303260Y1535470D03*
X303260Y1528970D03*
X303260Y1522470D03*
X303260Y1515970D03*
X303260Y1509470D03*
X303260Y1502970D03*
X303260Y1496470D03*
X303260Y1489970D03*
X303260Y1483470D03*
X303260Y1476970D03*
X303260Y1470470D03*
X230140Y1470470D03*
X230140Y1476970D03*
X382540Y1694370D03*
X382540Y1687870D03*
X382540Y1681370D03*
X382540Y1668370D03*
X382540Y1674870D03*
X382540Y1661870D03*
X382540Y1655370D03*
X382540Y1648870D03*
X382540Y1642370D03*
X382540Y1635870D03*
X455660Y1694370D03*
X455660Y1687870D03*
X455660Y1681370D03*
X455660Y1674870D03*
X455660Y1668370D03*
X455660Y1661870D03*
X455660Y1655370D03*
X455660Y1648870D03*
X455660Y1642370D03*
X455660Y1635870D03*
X455660Y1629370D03*
X455660Y1622870D03*
X382540Y1622870D03*
X382540Y1629370D03*
D10*
X549910Y1468120D03*
X552450Y1493520D03*
X549910Y1518920D03*
X552450Y1544320D03*
X549910Y1569720D03*
X552450Y1595120D03*
X549910Y1620520D03*
X552450Y1645920D03*
D11*
X908320Y1541970D03*
X908320Y1535470D03*
X908320Y1528970D03*
X908320Y1515970D03*
X908320Y1522470D03*
X908320Y1509470D03*
X908320Y1502970D03*
X908320Y1496470D03*
X908320Y1489970D03*
X908320Y1483470D03*
X981440Y1541970D03*
X981440Y1535470D03*
X981440Y1528970D03*
X981440Y1522470D03*
X981440Y1515970D03*
X981440Y1509470D03*
X981440Y1502970D03*
X981440Y1496470D03*
X981440Y1489970D03*
X981440Y1483470D03*
X981440Y1476970D03*
X981440Y1470470D03*
X908320Y1470470D03*
X908320Y1476970D03*
D12*
X551180Y1709420D03*
X551180Y1417320D03*
D13*
X576580Y1417320D03*
X1033780Y1722120D03*
D11*
X755920Y1694370D03*
X755920Y1687870D03*
X755920Y1681370D03*
X755920Y1668370D03*
X755920Y1674870D03*
X755920Y1661870D03*
X755920Y1655370D03*
X755920Y1648870D03*
X755920Y1642370D03*
X755920Y1635870D03*
X829040Y1694370D03*
X829040Y1687870D03*
X829040Y1681370D03*
X829040Y1674870D03*
X829040Y1668370D03*
X829040Y1661870D03*
X829040Y1655370D03*
X829040Y1648870D03*
X829040Y1642370D03*
X829040Y1635870D03*
X829040Y1629370D03*
X829040Y1622870D03*
X755920Y1622870D03*
X755920Y1629370D03*
X755920Y1541970D03*
X755920Y1535470D03*
X755920Y1528970D03*
X755920Y1515970D03*
X755920Y1522470D03*
X755920Y1509470D03*
X755920Y1502970D03*
X755920Y1496470D03*
X755920Y1489970D03*
X755920Y1483470D03*
X829040Y1541970D03*
X829040Y1535470D03*
X829040Y1528970D03*
X829040Y1522470D03*
X829040Y1515970D03*
X829040Y1509470D03*
X829040Y1502970D03*
X829040Y1496470D03*
X829040Y1489970D03*
X829040Y1483470D03*
X829040Y1476970D03*
X829040Y1470470D03*
X755920Y1470470D03*
X755920Y1476970D03*
X908320Y1694370D03*
X908320Y1687870D03*
X908320Y1681370D03*
X908320Y1668370D03*
X908320Y1674870D03*
X908320Y1661870D03*
X908320Y1655370D03*
X908320Y1648870D03*
X908320Y1642370D03*
X908320Y1635870D03*
X981440Y1694370D03*
X981440Y1687870D03*
X981440Y1681370D03*
X981440Y1674870D03*
X981440Y1668370D03*
X981440Y1661870D03*
X981440Y1655370D03*
X981440Y1648870D03*
X981440Y1642370D03*
X981440Y1635870D03*
X981440Y1629370D03*
X981440Y1622870D03*
X908320Y1622870D03*
X908320Y1629370D03*
D14*
X68580Y1755775D03*
X977265Y1755775D03*
D15*
X59525Y-20955D02*
X59528Y-20733D01*
X59536Y-20511D01*
X59550Y-20289D01*
X59569Y-20067D01*
X59593Y-19847D01*
X59623Y-19626D01*
X59658Y-19407D01*
X59699Y-19188D01*
X59745Y-18971D01*
X59796Y-18755D01*
X59853Y-18540D01*
X59915Y-18326D01*
X59982Y-18115D01*
X60054Y-17904D01*
X60132Y-17696D01*
X60214Y-17490D01*
X60302Y-17286D01*
X60394Y-17083D01*
X60492Y-16884D01*
X60594Y-16687D01*
X60701Y-16492D01*
X60813Y-16300D01*
X60930Y-16111D01*
X61051Y-15924D01*
X61177Y-15741D01*
X61307Y-15561D01*
X61442Y-15384D01*
X61580Y-15211D01*
X61723Y-15041D01*
X61871Y-14874D01*
X62022Y-14711D01*
X62177Y-14552D01*
X62336Y-14397D01*
X62499Y-14246D01*
X62666Y-14098D01*
X62836Y-13955D01*
X63009Y-13817D01*
X63186Y-13682D01*
X63366Y-13552D01*
X63549Y-13426D01*
X63736Y-13305D01*
X63925Y-13188D01*
X64117Y-13076D01*
X64312Y-12969D01*
X64509Y-12867D01*
X64708Y-12769D01*
X64911Y-12677D01*
X65115Y-12589D01*
X65321Y-12507D01*
X65529Y-12429D01*
X65740Y-12357D01*
X65951Y-12290D01*
X66165Y-12228D01*
X66380Y-12171D01*
X66596Y-12120D01*
X66813Y-12074D01*
X67032Y-12033D01*
X67251Y-11998D01*
X67472Y-11968D01*
X67692Y-11944D01*
X67914Y-11925D01*
X68136Y-11911D01*
X68358Y-11903D01*
X68580Y-11900D01*
X68802Y-11903D01*
X69024Y-11911D01*
X69246Y-11925D01*
X69468Y-11944D01*
X69688Y-11968D01*
X69909Y-11998D01*
X70128Y-12033D01*
X70347Y-12074D01*
X70564Y-12120D01*
X70780Y-12171D01*
X70995Y-12228D01*
X71209Y-12290D01*
X71420Y-12357D01*
X71631Y-12429D01*
X71839Y-12507D01*
X72045Y-12589D01*
X72249Y-12677D01*
X72452Y-12769D01*
X72651Y-12867D01*
X72848Y-12969D01*
X73043Y-13076D01*
X73235Y-13188D01*
X73424Y-13305D01*
X73611Y-13426D01*
X73794Y-13552D01*
X73974Y-13682D01*
X74151Y-13817D01*
X74324Y-13955D01*
X74494Y-14098D01*
X74661Y-14246D01*
X74824Y-14397D01*
X74983Y-14552D01*
X75138Y-14711D01*
X75289Y-14874D01*
X75437Y-15041D01*
X75580Y-15211D01*
X75718Y-15384D01*
X75853Y-15561D01*
X75983Y-15741D01*
X76109Y-15924D01*
X76230Y-16111D01*
X76347Y-16300D01*
X76459Y-16492D01*
X76566Y-16687D01*
X76668Y-16884D01*
X76766Y-17083D01*
X76858Y-17286D01*
X76946Y-17490D01*
X77028Y-17696D01*
X77106Y-17904D01*
X77178Y-18115D01*
X77245Y-18326D01*
X77307Y-18540D01*
X77364Y-18755D01*
X77415Y-18971D01*
X77461Y-19188D01*
X77502Y-19407D01*
X77537Y-19626D01*
X77567Y-19847D01*
X77591Y-20067D01*
X77610Y-20289D01*
X77624Y-20511D01*
X77632Y-20733D01*
X77635Y-20955D01*
X77632Y-21177D01*
X77624Y-21399D01*
X77610Y-21621D01*
X77591Y-21843D01*
X77567Y-22063D01*
X77537Y-22284D01*
X77502Y-22503D01*
X77461Y-22722D01*
X77415Y-22939D01*
X77364Y-23155D01*
X77307Y-23370D01*
X77245Y-23584D01*
X77178Y-23795D01*
X77106Y-24006D01*
X77028Y-24214D01*
X76946Y-24420D01*
X76858Y-24624D01*
X76766Y-24827D01*
X76668Y-25026D01*
X76566Y-25223D01*
X76459Y-25418D01*
X76347Y-25610D01*
X76230Y-25799D01*
X76109Y-25986D01*
X75983Y-26169D01*
X75853Y-26349D01*
X75718Y-26526D01*
X75580Y-26699D01*
X75437Y-26869D01*
X75289Y-27036D01*
X75138Y-27199D01*
X74983Y-27358D01*
X74824Y-27513D01*
X74661Y-27664D01*
X74494Y-27812D01*
X74324Y-27955D01*
X74151Y-28093D01*
X73974Y-28228D01*
X73794Y-28358D01*
X73611Y-28484D01*
X73424Y-28605D01*
X73235Y-28722D01*
X73043Y-28834D01*
X72848Y-28941D01*
X72651Y-29043D01*
X72452Y-29141D01*
X72249Y-29233D01*
X72045Y-29321D01*
X71839Y-29403D01*
X71631Y-29481D01*
X71420Y-29553D01*
X71209Y-29620D01*
X70995Y-29682D01*
X70780Y-29739D01*
X70564Y-29790D01*
X70347Y-29836D01*
X70128Y-29877D01*
X69909Y-29912D01*
X69688Y-29942D01*
X69468Y-29966D01*
X69246Y-29985D01*
X69024Y-29999D01*
X68802Y-30007D01*
X68580Y-30010D01*
X68358Y-30007D01*
X68136Y-29999D01*
X67914Y-29985D01*
X67692Y-29966D01*
X67472Y-29942D01*
X67251Y-29912D01*
X67032Y-29877D01*
X66813Y-29836D01*
X66596Y-29790D01*
X66380Y-29739D01*
X66165Y-29682D01*
X65951Y-29620D01*
X65740Y-29553D01*
X65529Y-29481D01*
X65321Y-29403D01*
X65115Y-29321D01*
X64911Y-29233D01*
X64708Y-29141D01*
X64509Y-29043D01*
X64312Y-28941D01*
X64117Y-28834D01*
X63925Y-28722D01*
X63736Y-28605D01*
X63549Y-28484D01*
X63366Y-28358D01*
X63186Y-28228D01*
X63009Y-28093D01*
X62836Y-27955D01*
X62666Y-27812D01*
X62499Y-27664D01*
X62336Y-27513D01*
X62177Y-27358D01*
X62022Y-27199D01*
X61871Y-27036D01*
X61723Y-26869D01*
X61580Y-26699D01*
X61442Y-26526D01*
X61307Y-26349D01*
X61177Y-26169D01*
X61051Y-25986D01*
X60930Y-25799D01*
X60813Y-25610D01*
X60701Y-25418D01*
X60594Y-25223D01*
X60492Y-25026D01*
X60394Y-24827D01*
X60302Y-24624D01*
X60214Y-24420D01*
X60132Y-24214D01*
X60054Y-24006D01*
X59982Y-23795D01*
X59915Y-23584D01*
X59853Y-23370D01*
X59796Y-23155D01*
X59745Y-22939D01*
X59699Y-22722D01*
X59658Y-22503D01*
X59623Y-22284D01*
X59593Y-22063D01*
X59569Y-21843D01*
X59550Y-21621D01*
X59536Y-21399D01*
X59528Y-21177D01*
X59525Y-20955D01*
D16*
X68580Y-20955D03*
M02*
