G04 EAGLE Gerber RS-274X export*
G75*
%MOMM*%
%FSLAX34Y34*%
%LPD*%
%INSolderpaste Bottom*%
%IPPOS*%
%AMOC8*
5,1,8,0,0,1.08239X$1,22.5*%
G01*
%ADD10R,1.397000X0.348000*%


D10*
X382540Y150050D03*
X382540Y143550D03*
X382540Y137050D03*
X382540Y124050D03*
X382540Y130550D03*
X382540Y117550D03*
X382540Y111050D03*
X382540Y104550D03*
X382540Y98050D03*
X382540Y91550D03*
X455660Y150050D03*
X455660Y143550D03*
X455660Y137050D03*
X455660Y130550D03*
X455660Y124050D03*
X455660Y117550D03*
X455660Y111050D03*
X455660Y104550D03*
X455660Y98050D03*
X455660Y91550D03*
X455660Y85050D03*
X455660Y78550D03*
X382540Y78550D03*
X382540Y85050D03*
X230140Y302450D03*
X230140Y295950D03*
X230140Y289450D03*
X230140Y276450D03*
X230140Y282950D03*
X230140Y269950D03*
X230140Y263450D03*
X230140Y256950D03*
X230140Y250450D03*
X230140Y243950D03*
X303260Y302450D03*
X303260Y295950D03*
X303260Y289450D03*
X303260Y282950D03*
X303260Y276450D03*
X303260Y269950D03*
X303260Y263450D03*
X303260Y256950D03*
X303260Y250450D03*
X303260Y243950D03*
X303260Y237450D03*
X303260Y230950D03*
X230140Y230950D03*
X230140Y237450D03*
X230140Y150050D03*
X230140Y143550D03*
X230140Y137050D03*
X230140Y124050D03*
X230140Y130550D03*
X230140Y117550D03*
X230140Y111050D03*
X230140Y104550D03*
X230140Y98050D03*
X230140Y91550D03*
X303260Y150050D03*
X303260Y143550D03*
X303260Y137050D03*
X303260Y130550D03*
X303260Y124050D03*
X303260Y117550D03*
X303260Y111050D03*
X303260Y104550D03*
X303260Y98050D03*
X303260Y91550D03*
X303260Y85050D03*
X303260Y78550D03*
X230140Y78550D03*
X230140Y85050D03*
X382540Y302450D03*
X382540Y295950D03*
X382540Y289450D03*
X382540Y276450D03*
X382540Y282950D03*
X382540Y269950D03*
X382540Y263450D03*
X382540Y256950D03*
X382540Y250450D03*
X382540Y243950D03*
X455660Y302450D03*
X455660Y295950D03*
X455660Y289450D03*
X455660Y282950D03*
X455660Y276450D03*
X455660Y269950D03*
X455660Y263450D03*
X455660Y256950D03*
X455660Y250450D03*
X455660Y243950D03*
X455660Y237450D03*
X455660Y230950D03*
X382540Y230950D03*
X382540Y237450D03*
X908320Y150050D03*
X908320Y143550D03*
X908320Y137050D03*
X908320Y124050D03*
X908320Y130550D03*
X908320Y117550D03*
X908320Y111050D03*
X908320Y104550D03*
X908320Y98050D03*
X908320Y91550D03*
X981440Y150050D03*
X981440Y143550D03*
X981440Y137050D03*
X981440Y130550D03*
X981440Y124050D03*
X981440Y117550D03*
X981440Y111050D03*
X981440Y104550D03*
X981440Y98050D03*
X981440Y91550D03*
X981440Y85050D03*
X981440Y78550D03*
X908320Y78550D03*
X908320Y85050D03*
X755920Y302450D03*
X755920Y295950D03*
X755920Y289450D03*
X755920Y276450D03*
X755920Y282950D03*
X755920Y269950D03*
X755920Y263450D03*
X755920Y256950D03*
X755920Y250450D03*
X755920Y243950D03*
X829040Y302450D03*
X829040Y295950D03*
X829040Y289450D03*
X829040Y282950D03*
X829040Y276450D03*
X829040Y269950D03*
X829040Y263450D03*
X829040Y256950D03*
X829040Y250450D03*
X829040Y243950D03*
X829040Y237450D03*
X829040Y230950D03*
X755920Y230950D03*
X755920Y237450D03*
X755920Y150050D03*
X755920Y143550D03*
X755920Y137050D03*
X755920Y124050D03*
X755920Y130550D03*
X755920Y117550D03*
X755920Y111050D03*
X755920Y104550D03*
X755920Y98050D03*
X755920Y91550D03*
X829040Y150050D03*
X829040Y143550D03*
X829040Y137050D03*
X829040Y130550D03*
X829040Y124050D03*
X829040Y117550D03*
X829040Y111050D03*
X829040Y104550D03*
X829040Y98050D03*
X829040Y91550D03*
X829040Y85050D03*
X829040Y78550D03*
X755920Y78550D03*
X755920Y85050D03*
X908320Y302450D03*
X908320Y295950D03*
X908320Y289450D03*
X908320Y276450D03*
X908320Y282950D03*
X908320Y269950D03*
X908320Y263450D03*
X908320Y256950D03*
X908320Y250450D03*
X908320Y243950D03*
X981440Y302450D03*
X981440Y295950D03*
X981440Y289450D03*
X981440Y282950D03*
X981440Y276450D03*
X981440Y269950D03*
X981440Y263450D03*
X981440Y256950D03*
X981440Y250450D03*
X981440Y243950D03*
X981440Y237450D03*
X981440Y230950D03*
X908320Y230950D03*
X908320Y237450D03*
X382540Y498030D03*
X382540Y491530D03*
X382540Y485030D03*
X382540Y472030D03*
X382540Y478530D03*
X382540Y465530D03*
X382540Y459030D03*
X382540Y452530D03*
X382540Y446030D03*
X382540Y439530D03*
X455660Y498030D03*
X455660Y491530D03*
X455660Y485030D03*
X455660Y478530D03*
X455660Y472030D03*
X455660Y465530D03*
X455660Y459030D03*
X455660Y452530D03*
X455660Y446030D03*
X455660Y439530D03*
X455660Y433030D03*
X455660Y426530D03*
X382540Y426530D03*
X382540Y433030D03*
X230140Y650430D03*
X230140Y643930D03*
X230140Y637430D03*
X230140Y624430D03*
X230140Y630930D03*
X230140Y617930D03*
X230140Y611430D03*
X230140Y604930D03*
X230140Y598430D03*
X230140Y591930D03*
X303260Y650430D03*
X303260Y643930D03*
X303260Y637430D03*
X303260Y630930D03*
X303260Y624430D03*
X303260Y617930D03*
X303260Y611430D03*
X303260Y604930D03*
X303260Y598430D03*
X303260Y591930D03*
X303260Y585430D03*
X303260Y578930D03*
X230140Y578930D03*
X230140Y585430D03*
X230140Y498030D03*
X230140Y491530D03*
X230140Y485030D03*
X230140Y472030D03*
X230140Y478530D03*
X230140Y465530D03*
X230140Y459030D03*
X230140Y452530D03*
X230140Y446030D03*
X230140Y439530D03*
X303260Y498030D03*
X303260Y491530D03*
X303260Y485030D03*
X303260Y478530D03*
X303260Y472030D03*
X303260Y465530D03*
X303260Y459030D03*
X303260Y452530D03*
X303260Y446030D03*
X303260Y439530D03*
X303260Y433030D03*
X303260Y426530D03*
X230140Y426530D03*
X230140Y433030D03*
X382540Y650430D03*
X382540Y643930D03*
X382540Y637430D03*
X382540Y624430D03*
X382540Y630930D03*
X382540Y617930D03*
X382540Y611430D03*
X382540Y604930D03*
X382540Y598430D03*
X382540Y591930D03*
X455660Y650430D03*
X455660Y643930D03*
X455660Y637430D03*
X455660Y630930D03*
X455660Y624430D03*
X455660Y617930D03*
X455660Y611430D03*
X455660Y604930D03*
X455660Y598430D03*
X455660Y591930D03*
X455660Y585430D03*
X455660Y578930D03*
X382540Y578930D03*
X382540Y585430D03*
X908320Y498030D03*
X908320Y491530D03*
X908320Y485030D03*
X908320Y472030D03*
X908320Y478530D03*
X908320Y465530D03*
X908320Y459030D03*
X908320Y452530D03*
X908320Y446030D03*
X908320Y439530D03*
X981440Y498030D03*
X981440Y491530D03*
X981440Y485030D03*
X981440Y478530D03*
X981440Y472030D03*
X981440Y465530D03*
X981440Y459030D03*
X981440Y452530D03*
X981440Y446030D03*
X981440Y439530D03*
X981440Y433030D03*
X981440Y426530D03*
X908320Y426530D03*
X908320Y433030D03*
X755920Y650430D03*
X755920Y643930D03*
X755920Y637430D03*
X755920Y624430D03*
X755920Y630930D03*
X755920Y617930D03*
X755920Y611430D03*
X755920Y604930D03*
X755920Y598430D03*
X755920Y591930D03*
X829040Y650430D03*
X829040Y643930D03*
X829040Y637430D03*
X829040Y630930D03*
X829040Y624430D03*
X829040Y617930D03*
X829040Y611430D03*
X829040Y604930D03*
X829040Y598430D03*
X829040Y591930D03*
X829040Y585430D03*
X829040Y578930D03*
X755920Y578930D03*
X755920Y585430D03*
X755920Y498030D03*
X755920Y491530D03*
X755920Y485030D03*
X755920Y472030D03*
X755920Y478530D03*
X755920Y465530D03*
X755920Y459030D03*
X755920Y452530D03*
X755920Y446030D03*
X755920Y439530D03*
X829040Y498030D03*
X829040Y491530D03*
X829040Y485030D03*
X829040Y478530D03*
X829040Y472030D03*
X829040Y465530D03*
X829040Y459030D03*
X829040Y452530D03*
X829040Y446030D03*
X829040Y439530D03*
X829040Y433030D03*
X829040Y426530D03*
X755920Y426530D03*
X755920Y433030D03*
X908320Y650430D03*
X908320Y643930D03*
X908320Y637430D03*
X908320Y624430D03*
X908320Y630930D03*
X908320Y617930D03*
X908320Y611430D03*
X908320Y604930D03*
X908320Y598430D03*
X908320Y591930D03*
X981440Y650430D03*
X981440Y643930D03*
X981440Y637430D03*
X981440Y630930D03*
X981440Y624430D03*
X981440Y617930D03*
X981440Y611430D03*
X981440Y604930D03*
X981440Y598430D03*
X981440Y591930D03*
X981440Y585430D03*
X981440Y578930D03*
X908320Y578930D03*
X908320Y585430D03*
X382540Y846010D03*
X382540Y839510D03*
X382540Y833010D03*
X382540Y820010D03*
X382540Y826510D03*
X382540Y813510D03*
X382540Y807010D03*
X382540Y800510D03*
X382540Y794010D03*
X382540Y787510D03*
X455660Y846010D03*
X455660Y839510D03*
X455660Y833010D03*
X455660Y826510D03*
X455660Y820010D03*
X455660Y813510D03*
X455660Y807010D03*
X455660Y800510D03*
X455660Y794010D03*
X455660Y787510D03*
X455660Y781010D03*
X455660Y774510D03*
X382540Y774510D03*
X382540Y781010D03*
X230140Y998410D03*
X230140Y991910D03*
X230140Y985410D03*
X230140Y972410D03*
X230140Y978910D03*
X230140Y965910D03*
X230140Y959410D03*
X230140Y952910D03*
X230140Y946410D03*
X230140Y939910D03*
X303260Y998410D03*
X303260Y991910D03*
X303260Y985410D03*
X303260Y978910D03*
X303260Y972410D03*
X303260Y965910D03*
X303260Y959410D03*
X303260Y952910D03*
X303260Y946410D03*
X303260Y939910D03*
X303260Y933410D03*
X303260Y926910D03*
X230140Y926910D03*
X230140Y933410D03*
X230140Y846010D03*
X230140Y839510D03*
X230140Y833010D03*
X230140Y820010D03*
X230140Y826510D03*
X230140Y813510D03*
X230140Y807010D03*
X230140Y800510D03*
X230140Y794010D03*
X230140Y787510D03*
X303260Y846010D03*
X303260Y839510D03*
X303260Y833010D03*
X303260Y826510D03*
X303260Y820010D03*
X303260Y813510D03*
X303260Y807010D03*
X303260Y800510D03*
X303260Y794010D03*
X303260Y787510D03*
X303260Y781010D03*
X303260Y774510D03*
X230140Y774510D03*
X230140Y781010D03*
X382540Y998410D03*
X382540Y991910D03*
X382540Y985410D03*
X382540Y972410D03*
X382540Y978910D03*
X382540Y965910D03*
X382540Y959410D03*
X382540Y952910D03*
X382540Y946410D03*
X382540Y939910D03*
X455660Y998410D03*
X455660Y991910D03*
X455660Y985410D03*
X455660Y978910D03*
X455660Y972410D03*
X455660Y965910D03*
X455660Y959410D03*
X455660Y952910D03*
X455660Y946410D03*
X455660Y939910D03*
X455660Y933410D03*
X455660Y926910D03*
X382540Y926910D03*
X382540Y933410D03*
X908320Y846010D03*
X908320Y839510D03*
X908320Y833010D03*
X908320Y820010D03*
X908320Y826510D03*
X908320Y813510D03*
X908320Y807010D03*
X908320Y800510D03*
X908320Y794010D03*
X908320Y787510D03*
X981440Y846010D03*
X981440Y839510D03*
X981440Y833010D03*
X981440Y826510D03*
X981440Y820010D03*
X981440Y813510D03*
X981440Y807010D03*
X981440Y800510D03*
X981440Y794010D03*
X981440Y787510D03*
X981440Y781010D03*
X981440Y774510D03*
X908320Y774510D03*
X908320Y781010D03*
X755920Y998410D03*
X755920Y991910D03*
X755920Y985410D03*
X755920Y972410D03*
X755920Y978910D03*
X755920Y965910D03*
X755920Y959410D03*
X755920Y952910D03*
X755920Y946410D03*
X755920Y939910D03*
X829040Y998410D03*
X829040Y991910D03*
X829040Y985410D03*
X829040Y978910D03*
X829040Y972410D03*
X829040Y965910D03*
X829040Y959410D03*
X829040Y952910D03*
X829040Y946410D03*
X829040Y939910D03*
X829040Y933410D03*
X829040Y926910D03*
X755920Y926910D03*
X755920Y933410D03*
X755920Y846010D03*
X755920Y839510D03*
X755920Y833010D03*
X755920Y820010D03*
X755920Y826510D03*
X755920Y813510D03*
X755920Y807010D03*
X755920Y800510D03*
X755920Y794010D03*
X755920Y787510D03*
X829040Y846010D03*
X829040Y839510D03*
X829040Y833010D03*
X829040Y826510D03*
X829040Y820010D03*
X829040Y813510D03*
X829040Y807010D03*
X829040Y800510D03*
X829040Y794010D03*
X829040Y787510D03*
X829040Y781010D03*
X829040Y774510D03*
X755920Y774510D03*
X755920Y781010D03*
X908320Y998410D03*
X908320Y991910D03*
X908320Y985410D03*
X908320Y972410D03*
X908320Y978910D03*
X908320Y965910D03*
X908320Y959410D03*
X908320Y952910D03*
X908320Y946410D03*
X908320Y939910D03*
X981440Y998410D03*
X981440Y991910D03*
X981440Y985410D03*
X981440Y978910D03*
X981440Y972410D03*
X981440Y965910D03*
X981440Y959410D03*
X981440Y952910D03*
X981440Y946410D03*
X981440Y939910D03*
X981440Y933410D03*
X981440Y926910D03*
X908320Y926910D03*
X908320Y933410D03*
X382540Y1193990D03*
X382540Y1187490D03*
X382540Y1180990D03*
X382540Y1167990D03*
X382540Y1174490D03*
X382540Y1161490D03*
X382540Y1154990D03*
X382540Y1148490D03*
X382540Y1141990D03*
X382540Y1135490D03*
X455660Y1193990D03*
X455660Y1187490D03*
X455660Y1180990D03*
X455660Y1174490D03*
X455660Y1167990D03*
X455660Y1161490D03*
X455660Y1154990D03*
X455660Y1148490D03*
X455660Y1141990D03*
X455660Y1135490D03*
X455660Y1128990D03*
X455660Y1122490D03*
X382540Y1122490D03*
X382540Y1128990D03*
X230140Y1346390D03*
X230140Y1339890D03*
X230140Y1333390D03*
X230140Y1320390D03*
X230140Y1326890D03*
X230140Y1313890D03*
X230140Y1307390D03*
X230140Y1300890D03*
X230140Y1294390D03*
X230140Y1287890D03*
X303260Y1346390D03*
X303260Y1339890D03*
X303260Y1333390D03*
X303260Y1326890D03*
X303260Y1320390D03*
X303260Y1313890D03*
X303260Y1307390D03*
X303260Y1300890D03*
X303260Y1294390D03*
X303260Y1287890D03*
X303260Y1281390D03*
X303260Y1274890D03*
X230140Y1274890D03*
X230140Y1281390D03*
X230140Y1193990D03*
X230140Y1187490D03*
X230140Y1180990D03*
X230140Y1167990D03*
X230140Y1174490D03*
X230140Y1161490D03*
X230140Y1154990D03*
X230140Y1148490D03*
X230140Y1141990D03*
X230140Y1135490D03*
X303260Y1193990D03*
X303260Y1187490D03*
X303260Y1180990D03*
X303260Y1174490D03*
X303260Y1167990D03*
X303260Y1161490D03*
X303260Y1154990D03*
X303260Y1148490D03*
X303260Y1141990D03*
X303260Y1135490D03*
X303260Y1128990D03*
X303260Y1122490D03*
X230140Y1122490D03*
X230140Y1128990D03*
X382540Y1346390D03*
X382540Y1339890D03*
X382540Y1333390D03*
X382540Y1320390D03*
X382540Y1326890D03*
X382540Y1313890D03*
X382540Y1307390D03*
X382540Y1300890D03*
X382540Y1294390D03*
X382540Y1287890D03*
X455660Y1346390D03*
X455660Y1339890D03*
X455660Y1333390D03*
X455660Y1326890D03*
X455660Y1320390D03*
X455660Y1313890D03*
X455660Y1307390D03*
X455660Y1300890D03*
X455660Y1294390D03*
X455660Y1287890D03*
X455660Y1281390D03*
X455660Y1274890D03*
X382540Y1274890D03*
X382540Y1281390D03*
X908320Y1193990D03*
X908320Y1187490D03*
X908320Y1180990D03*
X908320Y1167990D03*
X908320Y1174490D03*
X908320Y1161490D03*
X908320Y1154990D03*
X908320Y1148490D03*
X908320Y1141990D03*
X908320Y1135490D03*
X981440Y1193990D03*
X981440Y1187490D03*
X981440Y1180990D03*
X981440Y1174490D03*
X981440Y1167990D03*
X981440Y1161490D03*
X981440Y1154990D03*
X981440Y1148490D03*
X981440Y1141990D03*
X981440Y1135490D03*
X981440Y1128990D03*
X981440Y1122490D03*
X908320Y1122490D03*
X908320Y1128990D03*
X755920Y1346390D03*
X755920Y1339890D03*
X755920Y1333390D03*
X755920Y1320390D03*
X755920Y1326890D03*
X755920Y1313890D03*
X755920Y1307390D03*
X755920Y1300890D03*
X755920Y1294390D03*
X755920Y1287890D03*
X829040Y1346390D03*
X829040Y1339890D03*
X829040Y1333390D03*
X829040Y1326890D03*
X829040Y1320390D03*
X829040Y1313890D03*
X829040Y1307390D03*
X829040Y1300890D03*
X829040Y1294390D03*
X829040Y1287890D03*
X829040Y1281390D03*
X829040Y1274890D03*
X755920Y1274890D03*
X755920Y1281390D03*
X755920Y1193990D03*
X755920Y1187490D03*
X755920Y1180990D03*
X755920Y1167990D03*
X755920Y1174490D03*
X755920Y1161490D03*
X755920Y1154990D03*
X755920Y1148490D03*
X755920Y1141990D03*
X755920Y1135490D03*
X829040Y1193990D03*
X829040Y1187490D03*
X829040Y1180990D03*
X829040Y1174490D03*
X829040Y1167990D03*
X829040Y1161490D03*
X829040Y1154990D03*
X829040Y1148490D03*
X829040Y1141990D03*
X829040Y1135490D03*
X829040Y1128990D03*
X829040Y1122490D03*
X755920Y1122490D03*
X755920Y1128990D03*
X908320Y1346390D03*
X908320Y1339890D03*
X908320Y1333390D03*
X908320Y1320390D03*
X908320Y1326890D03*
X908320Y1313890D03*
X908320Y1307390D03*
X908320Y1300890D03*
X908320Y1294390D03*
X908320Y1287890D03*
X981440Y1346390D03*
X981440Y1339890D03*
X981440Y1333390D03*
X981440Y1326890D03*
X981440Y1320390D03*
X981440Y1313890D03*
X981440Y1307390D03*
X981440Y1300890D03*
X981440Y1294390D03*
X981440Y1287890D03*
X981440Y1281390D03*
X981440Y1274890D03*
X908320Y1274890D03*
X908320Y1281390D03*
X382540Y1541970D03*
X382540Y1535470D03*
X382540Y1528970D03*
X382540Y1515970D03*
X382540Y1522470D03*
X382540Y1509470D03*
X382540Y1502970D03*
X382540Y1496470D03*
X382540Y1489970D03*
X382540Y1483470D03*
X455660Y1541970D03*
X455660Y1535470D03*
X455660Y1528970D03*
X455660Y1522470D03*
X455660Y1515970D03*
X455660Y1509470D03*
X455660Y1502970D03*
X455660Y1496470D03*
X455660Y1489970D03*
X455660Y1483470D03*
X455660Y1476970D03*
X455660Y1470470D03*
X382540Y1470470D03*
X382540Y1476970D03*
X230140Y1694370D03*
X230140Y1687870D03*
X230140Y1681370D03*
X230140Y1668370D03*
X230140Y1674870D03*
X230140Y1661870D03*
X230140Y1655370D03*
X230140Y1648870D03*
X230140Y1642370D03*
X230140Y1635870D03*
X303260Y1694370D03*
X303260Y1687870D03*
X303260Y1681370D03*
X303260Y1674870D03*
X303260Y1668370D03*
X303260Y1661870D03*
X303260Y1655370D03*
X303260Y1648870D03*
X303260Y1642370D03*
X303260Y1635870D03*
X303260Y1629370D03*
X303260Y1622870D03*
X230140Y1622870D03*
X230140Y1629370D03*
X230140Y1541970D03*
X230140Y1535470D03*
X230140Y1528970D03*
X230140Y1515970D03*
X230140Y1522470D03*
X230140Y1509470D03*
X230140Y1502970D03*
X230140Y1496470D03*
X230140Y1489970D03*
X230140Y1483470D03*
X303260Y1541970D03*
X303260Y1535470D03*
X303260Y1528970D03*
X303260Y1522470D03*
X303260Y1515970D03*
X303260Y1509470D03*
X303260Y1502970D03*
X303260Y1496470D03*
X303260Y1489970D03*
X303260Y1483470D03*
X303260Y1476970D03*
X303260Y1470470D03*
X230140Y1470470D03*
X230140Y1476970D03*
X382540Y1694370D03*
X382540Y1687870D03*
X382540Y1681370D03*
X382540Y1668370D03*
X382540Y1674870D03*
X382540Y1661870D03*
X382540Y1655370D03*
X382540Y1648870D03*
X382540Y1642370D03*
X382540Y1635870D03*
X455660Y1694370D03*
X455660Y1687870D03*
X455660Y1681370D03*
X455660Y1674870D03*
X455660Y1668370D03*
X455660Y1661870D03*
X455660Y1655370D03*
X455660Y1648870D03*
X455660Y1642370D03*
X455660Y1635870D03*
X455660Y1629370D03*
X455660Y1622870D03*
X382540Y1622870D03*
X382540Y1629370D03*
X908320Y1541970D03*
X908320Y1535470D03*
X908320Y1528970D03*
X908320Y1515970D03*
X908320Y1522470D03*
X908320Y1509470D03*
X908320Y1502970D03*
X908320Y1496470D03*
X908320Y1489970D03*
X908320Y1483470D03*
X981440Y1541970D03*
X981440Y1535470D03*
X981440Y1528970D03*
X981440Y1522470D03*
X981440Y1515970D03*
X981440Y1509470D03*
X981440Y1502970D03*
X981440Y1496470D03*
X981440Y1489970D03*
X981440Y1483470D03*
X981440Y1476970D03*
X981440Y1470470D03*
X908320Y1470470D03*
X908320Y1476970D03*
X755920Y1694370D03*
X755920Y1687870D03*
X755920Y1681370D03*
X755920Y1668370D03*
X755920Y1674870D03*
X755920Y1661870D03*
X755920Y1655370D03*
X755920Y1648870D03*
X755920Y1642370D03*
X755920Y1635870D03*
X829040Y1694370D03*
X829040Y1687870D03*
X829040Y1681370D03*
X829040Y1674870D03*
X829040Y1668370D03*
X829040Y1661870D03*
X829040Y1655370D03*
X829040Y1648870D03*
X829040Y1642370D03*
X829040Y1635870D03*
X829040Y1629370D03*
X829040Y1622870D03*
X755920Y1622870D03*
X755920Y1629370D03*
X755920Y1541970D03*
X755920Y1535470D03*
X755920Y1528970D03*
X755920Y1515970D03*
X755920Y1522470D03*
X755920Y1509470D03*
X755920Y1502970D03*
X755920Y1496470D03*
X755920Y1489970D03*
X755920Y1483470D03*
X829040Y1541970D03*
X829040Y1535470D03*
X829040Y1528970D03*
X829040Y1522470D03*
X829040Y1515970D03*
X829040Y1509470D03*
X829040Y1502970D03*
X829040Y1496470D03*
X829040Y1489970D03*
X829040Y1483470D03*
X829040Y1476970D03*
X829040Y1470470D03*
X755920Y1470470D03*
X755920Y1476970D03*
X908320Y1694370D03*
X908320Y1687870D03*
X908320Y1681370D03*
X908320Y1668370D03*
X908320Y1674870D03*
X908320Y1661870D03*
X908320Y1655370D03*
X908320Y1648870D03*
X908320Y1642370D03*
X908320Y1635870D03*
X981440Y1694370D03*
X981440Y1687870D03*
X981440Y1681370D03*
X981440Y1674870D03*
X981440Y1668370D03*
X981440Y1661870D03*
X981440Y1655370D03*
X981440Y1648870D03*
X981440Y1642370D03*
X981440Y1635870D03*
X981440Y1629370D03*
X981440Y1622870D03*
X908320Y1622870D03*
X908320Y1629370D03*
M02*
