M48
;GenerationSoftware,Autodesk,EAGLE,9.6.2*%
;CreationDate,2024-07-19T15:02:24Z*%
FMAT,2
ICI,OFF
METRIC,TZ,000.000
T4C0.305
T3C0.381
T2C1.016
T1C3.302
%
G90
M71
T1
X55118Y31750
X2540Y72136
X55118Y101346
X55118Y72136
X2540Y136144
X2540Y106934
X55118Y136144
X55118Y141732
X2540Y170942
X2540Y141732
X55118Y170942
X2540Y31750
X2540Y2540
X55118Y106934
X55118Y2540
X2540Y66548
X2540Y37338
X55118Y66548
X55118Y37338
X2540Y101346
T2
X2667Y159512
X2413Y162052
X2667Y164592
X54991Y146812
X55245Y149352
X54991Y151892
X55245Y154432
X55245Y164592
X54991Y156972
X55245Y159512
X54991Y162052
X2413Y7620
X2667Y10160
X2413Y12700
X2667Y15240
X2413Y17780
X2667Y20320
X2413Y22860
X2667Y25400
X54991Y7620
X55245Y10160
X54991Y12700
X55245Y15240
X54991Y17780
X55245Y20320
X54991Y22860
X55245Y25400
X2413Y42418
X2667Y44958
X2413Y47498
X2667Y50038
X2413Y52578
X2667Y55118
X2413Y57658
X2667Y60198
X54991Y42418
X55245Y44958
X54991Y47498
X55245Y50038
X54991Y52578
X55245Y55118
X54991Y57658
X55245Y60198
X2413Y77216
X2667Y79756
X2413Y82296
X2667Y84836
X2413Y87376
X2667Y89916
X2413Y92456
X2667Y94996
X54991Y77216
X55245Y79756
X54991Y82296
X55245Y84836
X54991Y87376
X55245Y89916
X54991Y92456
X55245Y94996
X2413Y112014
X2667Y114554
X2413Y117094
X2667Y119634
X2413Y122174
X2667Y124714
X2413Y127254
X2667Y129794
X54991Y112014
X55245Y114554
X54991Y117094
X55245Y119634
X54991Y122174
X55245Y124714
X54991Y127254
X55245Y129794
X2413Y146812
X2667Y149352
X2413Y151892
X2667Y154432
X2413Y156972
T3
X8890Y3810
X8890Y73406
X61468Y73406
X61468Y3810
X8890Y38608
X8890Y108204
X61468Y108204
X8890Y143002
X61468Y143002
X61468Y38608
T4
X26670Y10160
X33020Y10160
X26670Y13970
X33020Y13970
X25400Y13970
X21590Y13970
X25400Y10160
X20320Y11430
X25400Y6350
X19558Y7620
X24130Y3810
X20320Y3810
X43180Y19050
X48260Y17780
X43180Y22860
X48260Y21590
X43180Y26670
X48260Y25400
X41910Y29210
X48260Y29210
X40640Y29210
X36830Y29210
X40640Y25400
X34290Y25400
X40640Y21590
X34290Y21590
X39624Y19050
X35814Y19050
X61468Y8890
X69088Y10795
X103378Y3810
X103378Y11430
X103378Y20320
X103378Y26670
X69088Y29845
X69088Y22225
X61468Y26924
X64008Y19685
X58928Y19050
X69088Y3810
X98298Y6350
X83058Y6350
X83058Y21590
X98298Y21590
X62738Y3810
X77978Y3810
X61468Y1270
X77978Y19050
X77978Y22860
X62738Y11430
X90678Y2540
X94488Y2540
X98298Y2540
X72136Y10541
X72136Y14351
X72136Y25781
X72136Y29591
X66548Y26670
X64008Y15240
X90678Y31430
X75565Y31430
X74168Y15240
X89408Y15240
X71208Y26670
X71208Y15240
X66548Y11430
X83947Y3810
X83693Y1270
X62738Y12700
X62738Y16510
X81026Y19050
X81788Y17399
X60198Y13335
X81788Y3810
X81788Y635
X81915Y19050
X83058Y16891
X61468Y13970
X61468Y16510
X74168Y3810
X74168Y1905
X74168Y19050
X74168Y17780
X90678Y5715
X75592Y5715
X69088Y6350
X72263Y5715
X75565Y20955
X90832Y21336
X72136Y21336
X68453Y21336
X67818Y15875
X67818Y31750
X95758Y3810
X100838Y3810
X94488Y6350
X100838Y6350
X94488Y10160
X100838Y10160
X94488Y13970
X100838Y13970
X93218Y13970
X89408Y13970
X93218Y10160
X86868Y10160
X93218Y6350
X86868Y6350
X91948Y3810
X88138Y3810
X65278Y24130
X67818Y11430
X66929Y18415
X80010Y19050
X85598Y19050
X79248Y21590
X85598Y21590
X79248Y25400
X85598Y25400
X79248Y29210
X85598Y29210
X77978Y29210
X74168Y29210
X77978Y25400
X72898Y26670
X77978Y21590
X72136Y22860
X76962Y19050
X72898Y19050
X80518Y3810
X85598Y3810
X79248Y6350
X85598Y6350
X79248Y10160
X85598Y10160
X79248Y13970
X85598Y13970
X77978Y13970
X74168Y13970
X77978Y10160
X72898Y11430
X77978Y6350
X72136Y7620
X76708Y3810
X72898Y3810
X95758Y19050
X100838Y17780
X95758Y22860
X100838Y21590
X95758Y26670
X100838Y25400
X94488Y29210
X100838Y29210
X93218Y29210
X89408Y29210
X93218Y25400
X86868Y25400
X93218Y21590
X86868Y21590
X92202Y19050
X88392Y19050
X8890Y43688
X16510Y45593
X50800Y38608
X50800Y46228
X50800Y55118
X50800Y61468
X16510Y64643
X16510Y57023
X8890Y61722
X11430Y54483
X6350Y53848
X16510Y38608
X45720Y41148
X30480Y41148
X30480Y56388
X45720Y56388
X10160Y38608
X25400Y38608
X8890Y36068
X25400Y53848
X25400Y57658
X10160Y46228
X38100Y37338
X41910Y37338
X45720Y37338
X19558Y45339
X19558Y49149
X19558Y60579
X19558Y64389
X13970Y61468
X11430Y50038
X38100Y66228
X22987Y66228
X21590Y50038
X36830Y50038
X18630Y61468
X18630Y50038
X13970Y46228
X31369Y38608
X31115Y36068
X10160Y47498
X10160Y51308
X28448Y53848
X29210Y52197
X7620Y48133
X29210Y38608
X29210Y35433
X29337Y53848
X30480Y51689
X8890Y48768
X8890Y51308
X21590Y38608
X21590Y36703
X21590Y53848
X21590Y52578
X38100Y40513
X23014Y40513
X16510Y41148
X19685Y40513
X22987Y55753
X38254Y56134
X19558Y56134
X15875Y56134
X15240Y50673
X15240Y66548
X43180Y38608
X48260Y38608
X41910Y41148
X48260Y41148
X41910Y44958
X48260Y44958
X41910Y48768
X48260Y48768
X40640Y48768
X36830Y48768
X40640Y44958
X34290Y44958
X40640Y41148
X34290Y41148
X39370Y38608
X35560Y38608
X12700Y58928
X15240Y46228
X14351Y53213
X27432Y53848
X33020Y53848
X26670Y56388
X33020Y56388
X26670Y60198
X33020Y60198
X26670Y64008
X33020Y64008
X25400Y64008
X21590Y64008
X25400Y60198
X20320Y61468
X25400Y56388
X19558Y57658
X24384Y53848
X20320Y53848
X27940Y38608
X33020Y38608
X26670Y41148
X33020Y41148
X26670Y44958
X33020Y44958
X26670Y48768
X33020Y48768
X25400Y48768
X21590Y48768
X25400Y44958
X20320Y46228
X25400Y41148
X19558Y42418
X24130Y38608
X20320Y38608
X43180Y53848
X48260Y52578
X43180Y57658
X48260Y56388
X43180Y61468
X48260Y60198
X41910Y64008
X48260Y64008
X40640Y64008
X36830Y64008
X40640Y60198
X34290Y60198
X40640Y56388
X34290Y56388
X39624Y53848
X35814Y53848
X61468Y43688
X69088Y45593
X103378Y38608
X103378Y46228
X103378Y55118
X103378Y61468
X69088Y64643
X69088Y57023
X61468Y61722
X64008Y54483
X58928Y53848
X69088Y38608
X98298Y41148
X83058Y41148
X83058Y56388
X98298Y56388
X62738Y38608
X77978Y38608
X61468Y36068
X77978Y53848
X77978Y57658
X62738Y46228
X90678Y37338
X94488Y37338
X98298Y37338
X72136Y45339
X72136Y49149
X72136Y60579
X72136Y64389
X66548Y61468
X64008Y50038
X90678Y66228
X75565Y66228
X74168Y50038
X89408Y50038
X71208Y61468
X71208Y50038
X66548Y46228
X83947Y38608
X83693Y36068
X62738Y47498
X62738Y51308
X81026Y53848
X81788Y52197
X60198Y48133
X81788Y38608
X81788Y35433
X81915Y53848
X83058Y51689
X61468Y48768
X61468Y51308
X74168Y38608
X74168Y36703
X74168Y53848
X74168Y52578
X90678Y40513
X75592Y40513
X69088Y41148
X72263Y40513
X75565Y55753
X90832Y56134
X72136Y56134
X68453Y56134
X67818Y50673
X67818Y66548
X95758Y38608
X100838Y38608
X94488Y41148
X100838Y41148
X94488Y44958
X100838Y44958
X94488Y48768
X100838Y48768
X93218Y48768
X89408Y48768
X93218Y44958
X86868Y44958
X93218Y41148
X86868Y41148
X91948Y38608
X88138Y38608
X65278Y58928
X67818Y46228
X66929Y53213
X80010Y53848
X85598Y53848
X79248Y56388
X85598Y56388
X79248Y60198
X85598Y60198
X79248Y64008
X85598Y64008
X77978Y64008
X74168Y64008
X77978Y60198
X72898Y61468
X77978Y56388
X72136Y57658
X76962Y53848
X72898Y53848
X80518Y38608
X85598Y38608
X79248Y41148
X85598Y41148
X79248Y44958
X85598Y44958
X79248Y48768
X85598Y48768
X77978Y48768
X74168Y48768
X77978Y44958
X72898Y46228
X77978Y41148
X72136Y42418
X76708Y38608
X72898Y38608
X95758Y53848
X100838Y52578
X95758Y57658
X100838Y56388
X95758Y61468
X100838Y60198
X94488Y64008
X100838Y64008
X93218Y64008
X89408Y64008
X93218Y60198
X86868Y60198
X93218Y56388
X86868Y56388
X92202Y53848
X88392Y53848
X8890Y78486
X16510Y80391
X50800Y73406
X50800Y81026
X50800Y89916
X50800Y96266
X16510Y99441
X16510Y91821
X8890Y96520
X11430Y89281
X6350Y88646
X16510Y73406
X45720Y75946
X30480Y75946
X30480Y91186
X45720Y91186
X10160Y73406
X25400Y73406
X8890Y70866
X25400Y88646
X25400Y92456
X10160Y81026
X38100Y72136
X41910Y72136
X45720Y72136
X19558Y80137
X19558Y83947
X19558Y95377
X19558Y99187
X13970Y96266
X11430Y84836
X38100Y101026
X22987Y101026
X21590Y84836
X36830Y84836
X18630Y96266
X18630Y84836
X13970Y81026
X31369Y73406
X31115Y70866
X10160Y82296
X10160Y86106
X28448Y88646
X29210Y86995
X7620Y82931
X29210Y73406
X29210Y70231
X29337Y88646
X30480Y86487
X8890Y83566
X8890Y86106
X21590Y73406
X21590Y71501
X21590Y88646
X21590Y87376
X38100Y75311
X23014Y75311
X16510Y75946
X19685Y75311
X22987Y90551
X38254Y90932
X19558Y90932
X15875Y90932
X15240Y85471
X15240Y101346
X43180Y73406
X48260Y73406
X41910Y75946
X48260Y75946
X41910Y79756
X48260Y79756
X41910Y83566
X48260Y83566
X40640Y83566
X36830Y83566
X40640Y79756
X34290Y79756
X40640Y75946
X34290Y75946
X39370Y73406
X35560Y73406
X12700Y93726
X15240Y81026
X14351Y88011
X27432Y88646
X33020Y88646
X26670Y91186
X33020Y91186
X26670Y94996
X33020Y94996
X26670Y98806
X33020Y98806
X25400Y98806
X21590Y98806
X25400Y94996
X20320Y96266
X25400Y91186
X19558Y92456
X24384Y88646
X20320Y88646
X27940Y73406
X33020Y73406
X26670Y75946
X33020Y75946
X26670Y79756
X33020Y79756
X26670Y83566
X33020Y83566
X25400Y83566
X21590Y83566
X25400Y79756
X20320Y81026
X25400Y75946
X19558Y77216
X24130Y73406
X20320Y73406
X43180Y88646
X48260Y87376
X43180Y92456
X48260Y91186
X43180Y96266
X48260Y94996
X41910Y98806
X48260Y98806
X40640Y98806
X36830Y98806
X40640Y94996
X34290Y94996
X40640Y91186
X34290Y91186
X39624Y88646
X35814Y88646
X61468Y78486
X69088Y80391
X103378Y73406
X103378Y81026
X103378Y89916
X103378Y96266
X69088Y99441
X69088Y91821
X61468Y96520
X64008Y89281
X58928Y88646
X69088Y73406
X98298Y75946
X83058Y75946
X83058Y91186
X98298Y91186
X62738Y73406
X77978Y73406
X61468Y70866
X77978Y88646
X77978Y92456
X62738Y81026
X90678Y72136
X94488Y72136
X98298Y72136
X72136Y80137
X72136Y83947
X72136Y95377
X72136Y99187
X66548Y96266
X64008Y84836
X90678Y101026
X75565Y101026
X74168Y84836
X89408Y84836
X71208Y96266
X71208Y84836
X66548Y81026
X83947Y73406
X83693Y70866
X62738Y82296
X62738Y86106
X81026Y88646
X81788Y86995
X60198Y82931
X81788Y73406
X81788Y70231
X81915Y88646
X83058Y86487
X61468Y83566
X61468Y86106
X74168Y73406
X74168Y71501
X74168Y88646
X74168Y87376
X90678Y75311
X75592Y75311
X69088Y75946
X72263Y75311
X75565Y90551
X90832Y90932
X72136Y90932
X68453Y90932
X67818Y85471
X67818Y101346
X95758Y73406
X100838Y73406
X94488Y75946
X100838Y75946
X94488Y79756
X100838Y79756
X94488Y83566
X100838Y83566
X93218Y83566
X89408Y83566
X93218Y79756
X86868Y79756
X93218Y75946
X86868Y75946
X91948Y73406
X88138Y73406
X65278Y93726
X67818Y81026
X66929Y88011
X80010Y88646
X85598Y88646
X79248Y91186
X85598Y91186
X79248Y94996
X85598Y94996
X79248Y98806
X85598Y98806
X77978Y98806
X74168Y98806
X77978Y94996
X72898Y96266
X77978Y91186
X72136Y92456
X76962Y88646
X72898Y88646
X80518Y73406
X85598Y73406
X79248Y75946
X85598Y75946
X79248Y79756
X85598Y79756
X79248Y83566
X85598Y83566
X77978Y83566
X74168Y83566
X77978Y79756
X72898Y81026
X77978Y75946
X72136Y77216
X76708Y73406
X72898Y73406
X95758Y88646
X100838Y87376
X95758Y92456
X100838Y91186
X95758Y96266
X100838Y94996
X94488Y98806
X100838Y98806
X93218Y98806
X89408Y98806
X93218Y94996
X86868Y94996
X93218Y91186
X86868Y91186
X92202Y88646
X88392Y88646
X8890Y113284
X16510Y115189
X50800Y108204
X50800Y115824
X50800Y124714
X50800Y131064
X16510Y134239
X16510Y126619
X8890Y131318
X11430Y124079
X6350Y123444
X16510Y108204
X45720Y110744
X30480Y110744
X30480Y125984
X45720Y125984
X10160Y108204
X25400Y108204
X8890Y105664
X25400Y123444
X25400Y127254
X10160Y115824
X38100Y106934
X41910Y106934
X45720Y106934
X19558Y114935
X19558Y118745
X19558Y130175
X19558Y133985
X13970Y131064
X11430Y119634
X38100Y135824
X22987Y135824
X21590Y119634
X36830Y119634
X18630Y131064
X18630Y119634
X8890Y8890
X13970Y115824
X31369Y108204
X31115Y105664
X10160Y117094
X10160Y120904
X28448Y123444
X29210Y121793
X7620Y117729
X29210Y108204
X29210Y105029
X29337Y123444
X30480Y121285
X8890Y118364
X8890Y120904
X21590Y108204
X21590Y106299
X21590Y123444
X21590Y122174
X38100Y110109
X23014Y110109
X16510Y110744
X19685Y110109
X22987Y125349
X38254Y125730
X19558Y125730
X15875Y125730
X15240Y120269
X15240Y136144
X43180Y108204
X48260Y108204
X41910Y110744
X48260Y110744
X41910Y114554
X48260Y114554
X41910Y118364
X48260Y118364
X40640Y118364
X36830Y118364
X40640Y114554
X34290Y114554
X40640Y110744
X34290Y110744
X39370Y108204
X35560Y108204
X12700Y128524
X15240Y115824
X14351Y122809
X27432Y123444
X33020Y123444
X26670Y125984
X33020Y125984
X26670Y129794
X33020Y129794
X26670Y133604
X33020Y133604
X25400Y133604
X21590Y133604
X25400Y129794
X20320Y131064
X25400Y125984
X19558Y127254
X24384Y123444
X20320Y123444
X27940Y108204
X33020Y108204
X26670Y110744
X33020Y110744
X26670Y114554
X33020Y114554
X26670Y118364
X33020Y118364
X25400Y118364
X21590Y118364
X25400Y114554
X20320Y115824
X25400Y110744
X19558Y112014
X24130Y108204
X20320Y108204
X43180Y123444
X48260Y122174
X43180Y127254
X48260Y125984
X43180Y131064
X48260Y129794
X41910Y133604
X48260Y133604
X40640Y133604
X36830Y133604
X40640Y129794
X34290Y129794
X40640Y125984
X34290Y125984
X39624Y123444
X35814Y123444
X61468Y113284
X69088Y115189
X103378Y108204
X103378Y115824
X103378Y124714
X103378Y131064
X69088Y134239
X69088Y126619
X61468Y131318
X64008Y124079
X58928Y123444
X69088Y108204
X98298Y110744
X83058Y110744
X83058Y125984
X98298Y125984
X62738Y108204
X77978Y108204
X61468Y105664
X77978Y123444
X77978Y127254
X62738Y115824
X90678Y106934
X94488Y106934
X98298Y106934
X72136Y114935
X72136Y118745
X72136Y130175
X72136Y133985
X66548Y131064
X64008Y119634
X90678Y135824
X75565Y135824
X74168Y119634
X89408Y119634
X71208Y131064
X71208Y119634
X16510Y10795
X66548Y115824
X83947Y108204
X83693Y105664
X62738Y117094
X62738Y120904
X81026Y123444
X81788Y121793
X60198Y117729
X81788Y108204
X81788Y105029
X81915Y123444
X83058Y121285
X61468Y118364
X61468Y120904
X74168Y108204
X74168Y106299
X74168Y123444
X74168Y122174
X90678Y110109
X75592Y110109
X69088Y110744
X72263Y110109
X75565Y125349
X90832Y125730
X72136Y125730
X68453Y125730
X67818Y120269
X67818Y136144
X95758Y108204
X100838Y108204
X94488Y110744
X100838Y110744
X94488Y114554
X100838Y114554
X94488Y118364
X100838Y118364
X93218Y118364
X89408Y118364
X93218Y114554
X86868Y114554
X93218Y110744
X86868Y110744
X91948Y108204
X88138Y108204
X65278Y128524
X67818Y115824
X66929Y122809
X80010Y123444
X85598Y123444
X79248Y125984
X85598Y125984
X79248Y129794
X85598Y129794
X79248Y133604
X85598Y133604
X77978Y133604
X74168Y133604
X77978Y129794
X72898Y131064
X77978Y125984
X72136Y127254
X76962Y123444
X72898Y123444
X80518Y108204
X85598Y108204
X79248Y110744
X85598Y110744
X79248Y114554
X85598Y114554
X79248Y118364
X85598Y118364
X77978Y118364
X74168Y118364
X77978Y114554
X72898Y115824
X77978Y110744
X72136Y112014
X76708Y108204
X72898Y108204
X95758Y123444
X100838Y122174
X95758Y127254
X100838Y125984
X95758Y131064
X100838Y129794
X94488Y133604
X100838Y133604
X93218Y133604
X89408Y133604
X93218Y129794
X86868Y129794
X93218Y125984
X86868Y125984
X92202Y123444
X88392Y123444
X8890Y148082
X16510Y149987
X50800Y143002
X50800Y150622
X50800Y159512
X50800Y165862
X16510Y169037
X16510Y161417
X8890Y166116
X50800Y3810
X6350Y158242
X16510Y143002
X45720Y145542
X30480Y145542
X30480Y160782
X45720Y160782
X10160Y143002
X25400Y143002
X8890Y140462
X25400Y158242
X25400Y162052
X10160Y150622
X38100Y141732
X41910Y141732
X45720Y141732
X19558Y149733
X19558Y153543
X19558Y164973
X19558Y168783
X13970Y165862
X11430Y154432
X38100Y170622
X22987Y170622
X21590Y154432
X36830Y154432
X18630Y165862
X18630Y154432
X50800Y11430
X13970Y150622
X31369Y143002
X31115Y140462
X10160Y151892
X10160Y155702
X28448Y158242
X29210Y156591
X7620Y152527
X29210Y143002
X29210Y139827
X29337Y158242
X30480Y156083
X8890Y153162
X8890Y155702
X21590Y143002
X21590Y141097
X21590Y158242
X21590Y156972
X38100Y144907
X23014Y144907
X16510Y145542
X19685Y144907
X22987Y160147
X38254Y160528
X19558Y160528
X15875Y160528
X15240Y155067
X15240Y170942
X43180Y143002
X48260Y143002
X41910Y145542
X48260Y145542
X41910Y149352
X48260Y149352
X41910Y153162
X48260Y153162
X40640Y153162
X36830Y153162
X40640Y149352
X34290Y149352
X40640Y145542
X34290Y145542
X39370Y143002
X35560Y143002
X12700Y163322
X15240Y150622
X14351Y157607
X27432Y158242
X33020Y158242
X26670Y160782
X33020Y160782
X26670Y164592
X33020Y164592
X26670Y168402
X33020Y168402
X25400Y168402
X21590Y168402
X25400Y164592
X20320Y165862
X25400Y160782
X19558Y162052
X24384Y158242
X20320Y158242
X27940Y143002
X33020Y143002
X26670Y145542
X33020Y145542
X26670Y149352
X33020Y149352
X26670Y153162
X33020Y153162
X25400Y153162
X21590Y153162
X25400Y149352
X20320Y150622
X25400Y145542
X19558Y146812
X24130Y143002
X20320Y143002
X43180Y158242
X48260Y156972
X43180Y162052
X48260Y160782
X43180Y165862
X48260Y164592
X41910Y168402
X48260Y168402
X40640Y168402
X36830Y168402
X40640Y164592
X34290Y164592
X40640Y160782
X34290Y160782
X39624Y158242
X35814Y158242
X61468Y148082
X69088Y149987
X103378Y143002
X103378Y150622
X103378Y159512
X103378Y165862
X69088Y169037
X69088Y161417
X61468Y166116
X64008Y158877
X58928Y158242
X69088Y143002
X98298Y145542
X83058Y145542
X83058Y160782
X98298Y160782
X62738Y143002
X77978Y143002
X61468Y140462
X77978Y158242
X77978Y162052
X62738Y150622
X90678Y141732
X94488Y141732
X98298Y141732
X72136Y149733
X72136Y153543
X72136Y164973
X72136Y168783
X66548Y165862
X64008Y154432
X90678Y170622
X75565Y170622
X74168Y154432
X89408Y154432
X71208Y165862
X71208Y154432
X50800Y20320
X66548Y150622
X83947Y143002
X83693Y140462
X62738Y151892
X62738Y155702
X81026Y158242
X81788Y156591
X60198Y152527
X81788Y143002
X81788Y139827
X81915Y158242
X83058Y156083
X61468Y153162
X61468Y155702
X74168Y143002
X74168Y141097
X11430Y158877
X74168Y156972
X90678Y144907
X75592Y144907
X69088Y145542
X72263Y144907
X75565Y160147
X90832Y160528
X72136Y160528
X68453Y160528
X67818Y155067
X67818Y170942
X95758Y143002
X100838Y143002
X94488Y145542
X100838Y145542
X94488Y149352
X100838Y149352
X94488Y153162
X100838Y153162
X93218Y153162
X89408Y153162
X93218Y149352
X86868Y149352
X93218Y145542
X86868Y145542
X91948Y143002
X88138Y143002
X65278Y163322
X67818Y150622
X66929Y157607
X80010Y158242
X85598Y158242
X79248Y160782
X85598Y160782
X79248Y164592
X85598Y164592
X79248Y168402
X85598Y168402
X77978Y168402
X74168Y168402
X77978Y164592
X72898Y165862
X77978Y160782
X72136Y162052
X76962Y158242
X72898Y158242
X80518Y143002
X85598Y143002
X79248Y145542
X85598Y145542
X79248Y149352
X85598Y149352
X79248Y153162
X85598Y153162
X77978Y153162
X74168Y153162
X77978Y149352
X72898Y150622
X77978Y145542
X72136Y146812
X76708Y143002
X72898Y143002
X95758Y158242
X100838Y156972
X95758Y162052
X100838Y160782
X95758Y165862
X100838Y164592
X94488Y168402
X100838Y168402
X93218Y168402
X89408Y168402
X93218Y164592
X86868Y164592
X93218Y160782
X86868Y160782
X92202Y158242
X88392Y158242
X50800Y26670
X16510Y29845
X16510Y22225
X8890Y26924
X11430Y19685
X6350Y19050
X16510Y3810
X45720Y6350
X30480Y6350
X30480Y21590
X45720Y21590
X10160Y3810
X25400Y3810
X8890Y1270
X25400Y19050
X25400Y22860
X10160Y11430
X38100Y2540
X41910Y2540
X45720Y2540
X19558Y10541
X19558Y14351
X19558Y25781
X19558Y29591
X13970Y26670
X11430Y15240
X38100Y31430
X22987Y31430
X21590Y15240
X36830Y15240
X18630Y26670
X18630Y15240
X13970Y11430
X31369Y3810
X31115Y1270
X10160Y12700
X10160Y16510
X28448Y19050
X29210Y17399
X7620Y13335
X29210Y3810
X29210Y635
X29337Y19050
X30480Y16891
X8890Y13970
X8890Y16510
X21590Y3810
X21590Y1905
X21590Y19050
X21590Y17780
X38100Y5715
X23014Y5715
X16510Y6350
X19685Y5715
X22987Y20955
X38254Y21336
X19558Y21336
X15875Y21336
X15240Y15875
X15240Y31750
X43180Y3810
X48260Y3810
X41910Y6350
X48260Y6350
X41910Y10160
X48260Y10160
X41910Y13970
X48260Y13970
X40640Y13970
X36830Y13970
X40640Y10160
X34290Y10160
X40640Y6350
X34290Y6350
X39370Y3810
X35560Y3810
X12700Y24130
X15240Y11430
X14351Y18415
X27432Y19050
X33020Y19050
X26670Y21590
X33020Y21590
X26670Y25400
X33020Y25400
X26670Y29210
X33020Y29210
X25400Y29210
X21590Y29210
X25400Y25400
X20320Y26670
X25400Y21590
X19558Y22860
X24384Y19050
X20320Y19050
X27940Y3810
X33020Y3810
X26670Y6350
X33020Y6350
X74168Y158242
M30