G04 EAGLE Gerber RS-274X export*
G75*
%MOMM*%
%FSLAX34Y34*%
%LPD*%
%INSoldermask Top*%
%IPPOS*%
%AMOC8*
5,1,8,0,0,1.08239X$1,22.5*%
G01*
%ADD10R,1.103200X1.003200*%
%ADD11R,1.553200X0.753200*%
%ADD12C,0.253791*%
%ADD13R,1.403200X0.803200*%
%ADD14C,2.082800*%
%ADD15R,1.303200X1.203200*%
%ADD16C,3.505200*%
%ADD17C,0.838200*%
%ADD18R,1.203200X1.303200*%
%ADD19C,1.203200*%
%ADD20C,1.270000*%
%ADD21C,1.703200*%


D10*
X205900Y276200D03*
X205900Y257200D03*
X226900Y266700D03*
X205900Y238100D03*
X205900Y219100D03*
X226900Y228600D03*
X205900Y200000D03*
X205900Y181000D03*
X226900Y190500D03*
X205900Y161900D03*
X205900Y142900D03*
X226900Y152400D03*
X205900Y123800D03*
X205900Y104800D03*
X226900Y114300D03*
X205900Y85700D03*
X205900Y66700D03*
X226900Y76200D03*
X205900Y47600D03*
X205900Y28600D03*
X226900Y38100D03*
X244000Y314300D03*
X244000Y295300D03*
X265000Y304800D03*
X244000Y276200D03*
X244000Y257200D03*
X265000Y266700D03*
X244000Y238100D03*
X244000Y219100D03*
X265000Y228600D03*
X244000Y200000D03*
X244000Y181000D03*
X265000Y190500D03*
X244000Y161900D03*
X244000Y142900D03*
X265000Y152400D03*
X244000Y123800D03*
X244000Y104800D03*
X265000Y114300D03*
X244000Y85700D03*
X244000Y66700D03*
X265000Y76200D03*
X244000Y47600D03*
X244000Y28600D03*
X265000Y38100D03*
X282100Y314300D03*
X282100Y295300D03*
X303100Y304800D03*
X282100Y276200D03*
X282100Y257200D03*
X303100Y266700D03*
X282100Y238100D03*
X282100Y219100D03*
X303100Y228600D03*
X282100Y200000D03*
X282100Y181000D03*
X303100Y190500D03*
X282100Y161900D03*
X282100Y142900D03*
X303100Y152400D03*
X282100Y123800D03*
X282100Y104800D03*
X303100Y114300D03*
X282100Y85700D03*
X282100Y66700D03*
X303100Y76200D03*
X282100Y47600D03*
X282100Y28600D03*
X303100Y38100D03*
X320200Y314300D03*
X320200Y295300D03*
X341200Y304800D03*
X320200Y276200D03*
X320200Y257200D03*
X341200Y266700D03*
X320200Y238100D03*
X320200Y219100D03*
X341200Y228600D03*
X320200Y200000D03*
X320200Y181000D03*
X341200Y190500D03*
X320200Y161900D03*
X320200Y142900D03*
X341200Y152400D03*
X320200Y123800D03*
X320200Y104800D03*
X341200Y114300D03*
X320200Y85700D03*
X320200Y66700D03*
X341200Y76200D03*
X320200Y47600D03*
X320200Y28600D03*
X341200Y38100D03*
X358300Y314300D03*
X358300Y295300D03*
X379300Y304800D03*
X358300Y276200D03*
X358300Y257200D03*
X379300Y266700D03*
X358300Y238100D03*
X358300Y219100D03*
X379300Y228600D03*
X358300Y200000D03*
X358300Y181000D03*
X379300Y190500D03*
X358300Y161900D03*
X358300Y142900D03*
X379300Y152400D03*
X358300Y123800D03*
X358300Y104800D03*
X379300Y114300D03*
X358300Y85700D03*
X358300Y66700D03*
X379300Y76200D03*
X358300Y47600D03*
X358300Y28600D03*
X379300Y38100D03*
X396400Y314300D03*
X396400Y295300D03*
X417400Y304800D03*
X396400Y276200D03*
X396400Y257200D03*
X417400Y266700D03*
X396400Y238100D03*
X396400Y219100D03*
X417400Y228600D03*
X396400Y200000D03*
X396400Y181000D03*
X417400Y190500D03*
X396400Y161900D03*
X396400Y142900D03*
X417400Y152400D03*
X396400Y123800D03*
X396400Y104800D03*
X417400Y114300D03*
X396400Y85700D03*
X396400Y66700D03*
X417400Y76200D03*
X396400Y47600D03*
X396400Y28600D03*
X417400Y38100D03*
X434500Y314300D03*
X434500Y295300D03*
X455500Y304800D03*
X434500Y276200D03*
X434500Y257200D03*
X455500Y266700D03*
X434500Y238100D03*
X434500Y219100D03*
X455500Y228600D03*
X434500Y200000D03*
X434500Y181000D03*
X455500Y190500D03*
X434500Y161900D03*
X434500Y142900D03*
X455500Y152400D03*
X434500Y123800D03*
X434500Y104800D03*
X455500Y114300D03*
X434500Y85700D03*
X434500Y66700D03*
X455500Y76200D03*
X434500Y47600D03*
X434500Y28600D03*
X455500Y38100D03*
X472600Y314300D03*
X472600Y295300D03*
X493600Y304800D03*
X472600Y276200D03*
X472600Y257200D03*
X493600Y266700D03*
X472600Y238100D03*
X472600Y219100D03*
X493600Y228600D03*
X472600Y200000D03*
X472600Y181000D03*
X493600Y190500D03*
X472600Y161900D03*
X472600Y142900D03*
X493600Y152400D03*
X472600Y123800D03*
X472600Y104800D03*
X493600Y114300D03*
X472600Y85700D03*
X472600Y66700D03*
X493600Y76200D03*
X472600Y47600D03*
X472600Y28600D03*
X493600Y38100D03*
D11*
X102651Y295300D03*
X102651Y304800D03*
X102651Y314300D03*
X75149Y314300D03*
X75149Y304800D03*
X75149Y295300D03*
D12*
X80147Y206397D02*
X80147Y191403D01*
X78153Y191403D01*
X78153Y206397D01*
X80147Y206397D01*
X80147Y193814D02*
X78153Y193814D01*
X78153Y196225D02*
X80147Y196225D01*
X80147Y198636D02*
X78153Y198636D01*
X78153Y201047D02*
X80147Y201047D01*
X80147Y203458D02*
X78153Y203458D01*
X78153Y205869D02*
X80147Y205869D01*
X86647Y206397D02*
X86647Y191403D01*
X84653Y191403D01*
X84653Y206397D01*
X86647Y206397D01*
X86647Y193814D02*
X84653Y193814D01*
X84653Y196225D02*
X86647Y196225D01*
X86647Y198636D02*
X84653Y198636D01*
X84653Y201047D02*
X86647Y201047D01*
X86647Y203458D02*
X84653Y203458D01*
X84653Y205869D02*
X86647Y205869D01*
X93147Y206397D02*
X93147Y191403D01*
X91153Y191403D01*
X91153Y206397D01*
X93147Y206397D01*
X93147Y193814D02*
X91153Y193814D01*
X91153Y196225D02*
X93147Y196225D01*
X93147Y198636D02*
X91153Y198636D01*
X91153Y201047D02*
X93147Y201047D01*
X93147Y203458D02*
X91153Y203458D01*
X91153Y205869D02*
X93147Y205869D01*
X99647Y206397D02*
X99647Y191403D01*
X97653Y191403D01*
X97653Y206397D01*
X99647Y206397D01*
X99647Y193814D02*
X97653Y193814D01*
X97653Y196225D02*
X99647Y196225D01*
X99647Y198636D02*
X97653Y198636D01*
X97653Y201047D02*
X99647Y201047D01*
X99647Y203458D02*
X97653Y203458D01*
X97653Y205869D02*
X99647Y205869D01*
X99647Y225403D02*
X99647Y240397D01*
X99647Y225403D02*
X97653Y225403D01*
X97653Y240397D01*
X99647Y240397D01*
X99647Y227814D02*
X97653Y227814D01*
X97653Y230225D02*
X99647Y230225D01*
X99647Y232636D02*
X97653Y232636D01*
X97653Y235047D02*
X99647Y235047D01*
X99647Y237458D02*
X97653Y237458D01*
X97653Y239869D02*
X99647Y239869D01*
X93147Y240397D02*
X93147Y225403D01*
X91153Y225403D01*
X91153Y240397D01*
X93147Y240397D01*
X93147Y227814D02*
X91153Y227814D01*
X91153Y230225D02*
X93147Y230225D01*
X93147Y232636D02*
X91153Y232636D01*
X91153Y235047D02*
X93147Y235047D01*
X93147Y237458D02*
X91153Y237458D01*
X91153Y239869D02*
X93147Y239869D01*
X86647Y240397D02*
X86647Y225403D01*
X84653Y225403D01*
X84653Y240397D01*
X86647Y240397D01*
X86647Y227814D02*
X84653Y227814D01*
X84653Y230225D02*
X86647Y230225D01*
X86647Y232636D02*
X84653Y232636D01*
X84653Y235047D02*
X86647Y235047D01*
X86647Y237458D02*
X84653Y237458D01*
X84653Y239869D02*
X86647Y239869D01*
X80147Y240397D02*
X80147Y225403D01*
X78153Y225403D01*
X78153Y240397D01*
X80147Y240397D01*
X80147Y227814D02*
X78153Y227814D01*
X78153Y230225D02*
X80147Y230225D01*
X80147Y232636D02*
X78153Y232636D01*
X78153Y235047D02*
X80147Y235047D01*
X80147Y237458D02*
X78153Y237458D01*
X78153Y239869D02*
X80147Y239869D01*
D13*
X60900Y133350D03*
X60900Y120650D03*
X60900Y107950D03*
X60900Y95250D03*
X60900Y82550D03*
X60900Y69850D03*
X60900Y57150D03*
X60900Y44450D03*
X116900Y44450D03*
X116900Y57150D03*
X116900Y69850D03*
X116900Y82550D03*
X116900Y95250D03*
X116900Y107950D03*
X116900Y120650D03*
X116900Y133350D03*
D14*
X24130Y76200D03*
X26670Y101600D03*
X24130Y127000D03*
X26670Y152400D03*
X24130Y177800D03*
X26670Y203200D03*
X24130Y228600D03*
X26670Y254000D03*
D15*
X186300Y317500D03*
X169300Y317500D03*
X186300Y279400D03*
X169300Y279400D03*
X186300Y241300D03*
X169300Y241300D03*
X186300Y203200D03*
X169300Y203200D03*
X186300Y165100D03*
X169300Y165100D03*
X186300Y127000D03*
X169300Y127000D03*
X186300Y88900D03*
X169300Y88900D03*
X186300Y50800D03*
X169300Y50800D03*
X97400Y279400D03*
X80400Y279400D03*
X97400Y152400D03*
X80400Y152400D03*
D10*
X205900Y314300D03*
X205900Y295300D03*
X226900Y304800D03*
D16*
X25400Y317500D03*
X25400Y25400D03*
D17*
X508000Y330200D03*
X50800Y25400D03*
D18*
X63500Y224400D03*
X63500Y207400D03*
D10*
X731680Y276200D03*
X731680Y257200D03*
X752680Y266700D03*
X731680Y238100D03*
X731680Y219100D03*
X752680Y228600D03*
X731680Y200000D03*
X731680Y181000D03*
X752680Y190500D03*
X731680Y161900D03*
X731680Y142900D03*
X752680Y152400D03*
X731680Y123800D03*
X731680Y104800D03*
X752680Y114300D03*
X731680Y85700D03*
X731680Y66700D03*
X752680Y76200D03*
X731680Y47600D03*
X731680Y28600D03*
X752680Y38100D03*
X769780Y314300D03*
X769780Y295300D03*
X790780Y304800D03*
X769780Y276200D03*
X769780Y257200D03*
X790780Y266700D03*
X769780Y238100D03*
X769780Y219100D03*
X790780Y228600D03*
X769780Y200000D03*
X769780Y181000D03*
X790780Y190500D03*
X769780Y161900D03*
X769780Y142900D03*
X790780Y152400D03*
X769780Y123800D03*
X769780Y104800D03*
X790780Y114300D03*
X769780Y85700D03*
X769780Y66700D03*
X790780Y76200D03*
X769780Y47600D03*
X769780Y28600D03*
X790780Y38100D03*
X807880Y314300D03*
X807880Y295300D03*
X828880Y304800D03*
X807880Y276200D03*
X807880Y257200D03*
X828880Y266700D03*
X807880Y238100D03*
X807880Y219100D03*
X828880Y228600D03*
X807880Y200000D03*
X807880Y181000D03*
X828880Y190500D03*
X807880Y161900D03*
X807880Y142900D03*
X828880Y152400D03*
X807880Y123800D03*
X807880Y104800D03*
X828880Y114300D03*
X807880Y85700D03*
X807880Y66700D03*
X828880Y76200D03*
X807880Y47600D03*
X807880Y28600D03*
X828880Y38100D03*
X845980Y314300D03*
X845980Y295300D03*
X866980Y304800D03*
X845980Y276200D03*
X845980Y257200D03*
X866980Y266700D03*
X845980Y238100D03*
X845980Y219100D03*
X866980Y228600D03*
X845980Y200000D03*
X845980Y181000D03*
X866980Y190500D03*
X845980Y161900D03*
X845980Y142900D03*
X866980Y152400D03*
X845980Y123800D03*
X845980Y104800D03*
X866980Y114300D03*
X845980Y85700D03*
X845980Y66700D03*
X866980Y76200D03*
X845980Y47600D03*
X845980Y28600D03*
X866980Y38100D03*
X884080Y314300D03*
X884080Y295300D03*
X905080Y304800D03*
X884080Y276200D03*
X884080Y257200D03*
X905080Y266700D03*
X884080Y238100D03*
X884080Y219100D03*
X905080Y228600D03*
X884080Y200000D03*
X884080Y181000D03*
X905080Y190500D03*
X884080Y161900D03*
X884080Y142900D03*
X905080Y152400D03*
X884080Y123800D03*
X884080Y104800D03*
X905080Y114300D03*
X884080Y85700D03*
X884080Y66700D03*
X905080Y76200D03*
X884080Y47600D03*
X884080Y28600D03*
X905080Y38100D03*
X922180Y314300D03*
X922180Y295300D03*
X943180Y304800D03*
X922180Y276200D03*
X922180Y257200D03*
X943180Y266700D03*
X922180Y238100D03*
X922180Y219100D03*
X943180Y228600D03*
X922180Y200000D03*
X922180Y181000D03*
X943180Y190500D03*
X922180Y161900D03*
X922180Y142900D03*
X943180Y152400D03*
X922180Y123800D03*
X922180Y104800D03*
X943180Y114300D03*
X922180Y85700D03*
X922180Y66700D03*
X943180Y76200D03*
X922180Y47600D03*
X922180Y28600D03*
X943180Y38100D03*
X960280Y314300D03*
X960280Y295300D03*
X981280Y304800D03*
X960280Y276200D03*
X960280Y257200D03*
X981280Y266700D03*
X960280Y238100D03*
X960280Y219100D03*
X981280Y228600D03*
X960280Y200000D03*
X960280Y181000D03*
X981280Y190500D03*
X960280Y161900D03*
X960280Y142900D03*
X981280Y152400D03*
X960280Y123800D03*
X960280Y104800D03*
X981280Y114300D03*
X960280Y85700D03*
X960280Y66700D03*
X981280Y76200D03*
X960280Y47600D03*
X960280Y28600D03*
X981280Y38100D03*
X998380Y314300D03*
X998380Y295300D03*
X1019380Y304800D03*
X998380Y276200D03*
X998380Y257200D03*
X1019380Y266700D03*
X998380Y238100D03*
X998380Y219100D03*
X1019380Y228600D03*
X998380Y200000D03*
X998380Y181000D03*
X1019380Y190500D03*
X998380Y161900D03*
X998380Y142900D03*
X1019380Y152400D03*
X998380Y123800D03*
X998380Y104800D03*
X1019380Y114300D03*
X998380Y85700D03*
X998380Y66700D03*
X1019380Y76200D03*
X998380Y47600D03*
X998380Y28600D03*
X1019380Y38100D03*
D11*
X628431Y295300D03*
X628431Y304800D03*
X628431Y314300D03*
X600929Y314300D03*
X600929Y304800D03*
X600929Y295300D03*
D12*
X605927Y206397D02*
X605927Y191403D01*
X603933Y191403D01*
X603933Y206397D01*
X605927Y206397D01*
X605927Y193814D02*
X603933Y193814D01*
X603933Y196225D02*
X605927Y196225D01*
X605927Y198636D02*
X603933Y198636D01*
X603933Y201047D02*
X605927Y201047D01*
X605927Y203458D02*
X603933Y203458D01*
X603933Y205869D02*
X605927Y205869D01*
X612427Y206397D02*
X612427Y191403D01*
X610433Y191403D01*
X610433Y206397D01*
X612427Y206397D01*
X612427Y193814D02*
X610433Y193814D01*
X610433Y196225D02*
X612427Y196225D01*
X612427Y198636D02*
X610433Y198636D01*
X610433Y201047D02*
X612427Y201047D01*
X612427Y203458D02*
X610433Y203458D01*
X610433Y205869D02*
X612427Y205869D01*
X618927Y206397D02*
X618927Y191403D01*
X616933Y191403D01*
X616933Y206397D01*
X618927Y206397D01*
X618927Y193814D02*
X616933Y193814D01*
X616933Y196225D02*
X618927Y196225D01*
X618927Y198636D02*
X616933Y198636D01*
X616933Y201047D02*
X618927Y201047D01*
X618927Y203458D02*
X616933Y203458D01*
X616933Y205869D02*
X618927Y205869D01*
X625427Y206397D02*
X625427Y191403D01*
X623433Y191403D01*
X623433Y206397D01*
X625427Y206397D01*
X625427Y193814D02*
X623433Y193814D01*
X623433Y196225D02*
X625427Y196225D01*
X625427Y198636D02*
X623433Y198636D01*
X623433Y201047D02*
X625427Y201047D01*
X625427Y203458D02*
X623433Y203458D01*
X623433Y205869D02*
X625427Y205869D01*
X625427Y225403D02*
X625427Y240397D01*
X625427Y225403D02*
X623433Y225403D01*
X623433Y240397D01*
X625427Y240397D01*
X625427Y227814D02*
X623433Y227814D01*
X623433Y230225D02*
X625427Y230225D01*
X625427Y232636D02*
X623433Y232636D01*
X623433Y235047D02*
X625427Y235047D01*
X625427Y237458D02*
X623433Y237458D01*
X623433Y239869D02*
X625427Y239869D01*
X618927Y240397D02*
X618927Y225403D01*
X616933Y225403D01*
X616933Y240397D01*
X618927Y240397D01*
X618927Y227814D02*
X616933Y227814D01*
X616933Y230225D02*
X618927Y230225D01*
X618927Y232636D02*
X616933Y232636D01*
X616933Y235047D02*
X618927Y235047D01*
X618927Y237458D02*
X616933Y237458D01*
X616933Y239869D02*
X618927Y239869D01*
X612427Y240397D02*
X612427Y225403D01*
X610433Y225403D01*
X610433Y240397D01*
X612427Y240397D01*
X612427Y227814D02*
X610433Y227814D01*
X610433Y230225D02*
X612427Y230225D01*
X612427Y232636D02*
X610433Y232636D01*
X610433Y235047D02*
X612427Y235047D01*
X612427Y237458D02*
X610433Y237458D01*
X610433Y239869D02*
X612427Y239869D01*
X605927Y240397D02*
X605927Y225403D01*
X603933Y225403D01*
X603933Y240397D01*
X605927Y240397D01*
X605927Y227814D02*
X603933Y227814D01*
X603933Y230225D02*
X605927Y230225D01*
X605927Y232636D02*
X603933Y232636D01*
X603933Y235047D02*
X605927Y235047D01*
X605927Y237458D02*
X603933Y237458D01*
X603933Y239869D02*
X605927Y239869D01*
D13*
X586680Y133350D03*
X586680Y120650D03*
X586680Y107950D03*
X586680Y95250D03*
X586680Y82550D03*
X586680Y69850D03*
X586680Y57150D03*
X586680Y44450D03*
X642680Y44450D03*
X642680Y57150D03*
X642680Y69850D03*
X642680Y82550D03*
X642680Y95250D03*
X642680Y107950D03*
X642680Y120650D03*
X642680Y133350D03*
D14*
X549910Y76200D03*
X552450Y101600D03*
X549910Y127000D03*
X552450Y152400D03*
X549910Y177800D03*
X552450Y203200D03*
X549910Y228600D03*
X552450Y254000D03*
D15*
X712080Y317500D03*
X695080Y317500D03*
X712080Y279400D03*
X695080Y279400D03*
X712080Y241300D03*
X695080Y241300D03*
X712080Y203200D03*
X695080Y203200D03*
X712080Y165100D03*
X695080Y165100D03*
X712080Y127000D03*
X695080Y127000D03*
X712080Y88900D03*
X695080Y88900D03*
X712080Y50800D03*
X695080Y50800D03*
X623180Y279400D03*
X606180Y279400D03*
X623180Y152400D03*
X606180Y152400D03*
D10*
X731680Y314300D03*
X731680Y295300D03*
X752680Y304800D03*
D16*
X551180Y317500D03*
X551180Y25400D03*
D17*
X1033780Y330200D03*
X576580Y25400D03*
D18*
X589280Y224400D03*
X589280Y207400D03*
D10*
X205900Y624180D03*
X205900Y605180D03*
X226900Y614680D03*
X205900Y586080D03*
X205900Y567080D03*
X226900Y576580D03*
X205900Y547980D03*
X205900Y528980D03*
X226900Y538480D03*
X205900Y509880D03*
X205900Y490880D03*
X226900Y500380D03*
X205900Y471780D03*
X205900Y452780D03*
X226900Y462280D03*
X205900Y433680D03*
X205900Y414680D03*
X226900Y424180D03*
X205900Y395580D03*
X205900Y376580D03*
X226900Y386080D03*
X244000Y662280D03*
X244000Y643280D03*
X265000Y652780D03*
X244000Y624180D03*
X244000Y605180D03*
X265000Y614680D03*
X244000Y586080D03*
X244000Y567080D03*
X265000Y576580D03*
X244000Y547980D03*
X244000Y528980D03*
X265000Y538480D03*
X244000Y509880D03*
X244000Y490880D03*
X265000Y500380D03*
X244000Y471780D03*
X244000Y452780D03*
X265000Y462280D03*
X244000Y433680D03*
X244000Y414680D03*
X265000Y424180D03*
X244000Y395580D03*
X244000Y376580D03*
X265000Y386080D03*
X282100Y662280D03*
X282100Y643280D03*
X303100Y652780D03*
X282100Y624180D03*
X282100Y605180D03*
X303100Y614680D03*
X282100Y586080D03*
X282100Y567080D03*
X303100Y576580D03*
X282100Y547980D03*
X282100Y528980D03*
X303100Y538480D03*
X282100Y509880D03*
X282100Y490880D03*
X303100Y500380D03*
X282100Y471780D03*
X282100Y452780D03*
X303100Y462280D03*
X282100Y433680D03*
X282100Y414680D03*
X303100Y424180D03*
X282100Y395580D03*
X282100Y376580D03*
X303100Y386080D03*
X320200Y662280D03*
X320200Y643280D03*
X341200Y652780D03*
X320200Y624180D03*
X320200Y605180D03*
X341200Y614680D03*
X320200Y586080D03*
X320200Y567080D03*
X341200Y576580D03*
X320200Y547980D03*
X320200Y528980D03*
X341200Y538480D03*
X320200Y509880D03*
X320200Y490880D03*
X341200Y500380D03*
X320200Y471780D03*
X320200Y452780D03*
X341200Y462280D03*
X320200Y433680D03*
X320200Y414680D03*
X341200Y424180D03*
X320200Y395580D03*
X320200Y376580D03*
X341200Y386080D03*
X358300Y662280D03*
X358300Y643280D03*
X379300Y652780D03*
X358300Y624180D03*
X358300Y605180D03*
X379300Y614680D03*
X358300Y586080D03*
X358300Y567080D03*
X379300Y576580D03*
X358300Y547980D03*
X358300Y528980D03*
X379300Y538480D03*
X358300Y509880D03*
X358300Y490880D03*
X379300Y500380D03*
X358300Y471780D03*
X358300Y452780D03*
X379300Y462280D03*
X358300Y433680D03*
X358300Y414680D03*
X379300Y424180D03*
X358300Y395580D03*
X358300Y376580D03*
X379300Y386080D03*
X396400Y662280D03*
X396400Y643280D03*
X417400Y652780D03*
X396400Y624180D03*
X396400Y605180D03*
X417400Y614680D03*
X396400Y586080D03*
X396400Y567080D03*
X417400Y576580D03*
X396400Y547980D03*
X396400Y528980D03*
X417400Y538480D03*
X396400Y509880D03*
X396400Y490880D03*
X417400Y500380D03*
X396400Y471780D03*
X396400Y452780D03*
X417400Y462280D03*
X396400Y433680D03*
X396400Y414680D03*
X417400Y424180D03*
X396400Y395580D03*
X396400Y376580D03*
X417400Y386080D03*
X434500Y662280D03*
X434500Y643280D03*
X455500Y652780D03*
X434500Y624180D03*
X434500Y605180D03*
X455500Y614680D03*
X434500Y586080D03*
X434500Y567080D03*
X455500Y576580D03*
X434500Y547980D03*
X434500Y528980D03*
X455500Y538480D03*
X434500Y509880D03*
X434500Y490880D03*
X455500Y500380D03*
X434500Y471780D03*
X434500Y452780D03*
X455500Y462280D03*
X434500Y433680D03*
X434500Y414680D03*
X455500Y424180D03*
X434500Y395580D03*
X434500Y376580D03*
X455500Y386080D03*
X472600Y662280D03*
X472600Y643280D03*
X493600Y652780D03*
X472600Y624180D03*
X472600Y605180D03*
X493600Y614680D03*
X472600Y586080D03*
X472600Y567080D03*
X493600Y576580D03*
X472600Y547980D03*
X472600Y528980D03*
X493600Y538480D03*
X472600Y509880D03*
X472600Y490880D03*
X493600Y500380D03*
X472600Y471780D03*
X472600Y452780D03*
X493600Y462280D03*
X472600Y433680D03*
X472600Y414680D03*
X493600Y424180D03*
X472600Y395580D03*
X472600Y376580D03*
X493600Y386080D03*
D11*
X102651Y643280D03*
X102651Y652780D03*
X102651Y662280D03*
X75149Y662280D03*
X75149Y652780D03*
X75149Y643280D03*
D12*
X80147Y554377D02*
X80147Y539383D01*
X78153Y539383D01*
X78153Y554377D01*
X80147Y554377D01*
X80147Y541794D02*
X78153Y541794D01*
X78153Y544205D02*
X80147Y544205D01*
X80147Y546616D02*
X78153Y546616D01*
X78153Y549027D02*
X80147Y549027D01*
X80147Y551438D02*
X78153Y551438D01*
X78153Y553849D02*
X80147Y553849D01*
X86647Y554377D02*
X86647Y539383D01*
X84653Y539383D01*
X84653Y554377D01*
X86647Y554377D01*
X86647Y541794D02*
X84653Y541794D01*
X84653Y544205D02*
X86647Y544205D01*
X86647Y546616D02*
X84653Y546616D01*
X84653Y549027D02*
X86647Y549027D01*
X86647Y551438D02*
X84653Y551438D01*
X84653Y553849D02*
X86647Y553849D01*
X93147Y554377D02*
X93147Y539383D01*
X91153Y539383D01*
X91153Y554377D01*
X93147Y554377D01*
X93147Y541794D02*
X91153Y541794D01*
X91153Y544205D02*
X93147Y544205D01*
X93147Y546616D02*
X91153Y546616D01*
X91153Y549027D02*
X93147Y549027D01*
X93147Y551438D02*
X91153Y551438D01*
X91153Y553849D02*
X93147Y553849D01*
X99647Y554377D02*
X99647Y539383D01*
X97653Y539383D01*
X97653Y554377D01*
X99647Y554377D01*
X99647Y541794D02*
X97653Y541794D01*
X97653Y544205D02*
X99647Y544205D01*
X99647Y546616D02*
X97653Y546616D01*
X97653Y549027D02*
X99647Y549027D01*
X99647Y551438D02*
X97653Y551438D01*
X97653Y553849D02*
X99647Y553849D01*
X99647Y573383D02*
X99647Y588377D01*
X99647Y573383D02*
X97653Y573383D01*
X97653Y588377D01*
X99647Y588377D01*
X99647Y575794D02*
X97653Y575794D01*
X97653Y578205D02*
X99647Y578205D01*
X99647Y580616D02*
X97653Y580616D01*
X97653Y583027D02*
X99647Y583027D01*
X99647Y585438D02*
X97653Y585438D01*
X97653Y587849D02*
X99647Y587849D01*
X93147Y588377D02*
X93147Y573383D01*
X91153Y573383D01*
X91153Y588377D01*
X93147Y588377D01*
X93147Y575794D02*
X91153Y575794D01*
X91153Y578205D02*
X93147Y578205D01*
X93147Y580616D02*
X91153Y580616D01*
X91153Y583027D02*
X93147Y583027D01*
X93147Y585438D02*
X91153Y585438D01*
X91153Y587849D02*
X93147Y587849D01*
X86647Y588377D02*
X86647Y573383D01*
X84653Y573383D01*
X84653Y588377D01*
X86647Y588377D01*
X86647Y575794D02*
X84653Y575794D01*
X84653Y578205D02*
X86647Y578205D01*
X86647Y580616D02*
X84653Y580616D01*
X84653Y583027D02*
X86647Y583027D01*
X86647Y585438D02*
X84653Y585438D01*
X84653Y587849D02*
X86647Y587849D01*
X80147Y588377D02*
X80147Y573383D01*
X78153Y573383D01*
X78153Y588377D01*
X80147Y588377D01*
X80147Y575794D02*
X78153Y575794D01*
X78153Y578205D02*
X80147Y578205D01*
X80147Y580616D02*
X78153Y580616D01*
X78153Y583027D02*
X80147Y583027D01*
X80147Y585438D02*
X78153Y585438D01*
X78153Y587849D02*
X80147Y587849D01*
D13*
X60900Y481330D03*
X60900Y468630D03*
X60900Y455930D03*
X60900Y443230D03*
X60900Y430530D03*
X60900Y417830D03*
X60900Y405130D03*
X60900Y392430D03*
X116900Y392430D03*
X116900Y405130D03*
X116900Y417830D03*
X116900Y430530D03*
X116900Y443230D03*
X116900Y455930D03*
X116900Y468630D03*
X116900Y481330D03*
D14*
X24130Y424180D03*
X26670Y449580D03*
X24130Y474980D03*
X26670Y500380D03*
X24130Y525780D03*
X26670Y551180D03*
X24130Y576580D03*
X26670Y601980D03*
D15*
X186300Y665480D03*
X169300Y665480D03*
X186300Y627380D03*
X169300Y627380D03*
X186300Y589280D03*
X169300Y589280D03*
X186300Y551180D03*
X169300Y551180D03*
X186300Y513080D03*
X169300Y513080D03*
X186300Y474980D03*
X169300Y474980D03*
X186300Y436880D03*
X169300Y436880D03*
X186300Y398780D03*
X169300Y398780D03*
X97400Y627380D03*
X80400Y627380D03*
X97400Y500380D03*
X80400Y500380D03*
D10*
X205900Y662280D03*
X205900Y643280D03*
X226900Y652780D03*
D16*
X25400Y665480D03*
X25400Y373380D03*
D17*
X508000Y678180D03*
X50800Y373380D03*
D18*
X63500Y572380D03*
X63500Y555380D03*
D10*
X731680Y624180D03*
X731680Y605180D03*
X752680Y614680D03*
X731680Y586080D03*
X731680Y567080D03*
X752680Y576580D03*
X731680Y547980D03*
X731680Y528980D03*
X752680Y538480D03*
X731680Y509880D03*
X731680Y490880D03*
X752680Y500380D03*
X731680Y471780D03*
X731680Y452780D03*
X752680Y462280D03*
X731680Y433680D03*
X731680Y414680D03*
X752680Y424180D03*
X731680Y395580D03*
X731680Y376580D03*
X752680Y386080D03*
X769780Y662280D03*
X769780Y643280D03*
X790780Y652780D03*
X769780Y624180D03*
X769780Y605180D03*
X790780Y614680D03*
X769780Y586080D03*
X769780Y567080D03*
X790780Y576580D03*
X769780Y547980D03*
X769780Y528980D03*
X790780Y538480D03*
X769780Y509880D03*
X769780Y490880D03*
X790780Y500380D03*
X769780Y471780D03*
X769780Y452780D03*
X790780Y462280D03*
X769780Y433680D03*
X769780Y414680D03*
X790780Y424180D03*
X769780Y395580D03*
X769780Y376580D03*
X790780Y386080D03*
X807880Y662280D03*
X807880Y643280D03*
X828880Y652780D03*
X807880Y624180D03*
X807880Y605180D03*
X828880Y614680D03*
X807880Y586080D03*
X807880Y567080D03*
X828880Y576580D03*
X807880Y547980D03*
X807880Y528980D03*
X828880Y538480D03*
X807880Y509880D03*
X807880Y490880D03*
X828880Y500380D03*
X807880Y471780D03*
X807880Y452780D03*
X828880Y462280D03*
X807880Y433680D03*
X807880Y414680D03*
X828880Y424180D03*
X807880Y395580D03*
X807880Y376580D03*
X828880Y386080D03*
X845980Y662280D03*
X845980Y643280D03*
X866980Y652780D03*
X845980Y624180D03*
X845980Y605180D03*
X866980Y614680D03*
X845980Y586080D03*
X845980Y567080D03*
X866980Y576580D03*
X845980Y547980D03*
X845980Y528980D03*
X866980Y538480D03*
X845980Y509880D03*
X845980Y490880D03*
X866980Y500380D03*
X845980Y471780D03*
X845980Y452780D03*
X866980Y462280D03*
X845980Y433680D03*
X845980Y414680D03*
X866980Y424180D03*
X845980Y395580D03*
X845980Y376580D03*
X866980Y386080D03*
X884080Y662280D03*
X884080Y643280D03*
X905080Y652780D03*
X884080Y624180D03*
X884080Y605180D03*
X905080Y614680D03*
X884080Y586080D03*
X884080Y567080D03*
X905080Y576580D03*
X884080Y547980D03*
X884080Y528980D03*
X905080Y538480D03*
X884080Y509880D03*
X884080Y490880D03*
X905080Y500380D03*
X884080Y471780D03*
X884080Y452780D03*
X905080Y462280D03*
X884080Y433680D03*
X884080Y414680D03*
X905080Y424180D03*
X884080Y395580D03*
X884080Y376580D03*
X905080Y386080D03*
X922180Y662280D03*
X922180Y643280D03*
X943180Y652780D03*
X922180Y624180D03*
X922180Y605180D03*
X943180Y614680D03*
X922180Y586080D03*
X922180Y567080D03*
X943180Y576580D03*
X922180Y547980D03*
X922180Y528980D03*
X943180Y538480D03*
X922180Y509880D03*
X922180Y490880D03*
X943180Y500380D03*
X922180Y471780D03*
X922180Y452780D03*
X943180Y462280D03*
X922180Y433680D03*
X922180Y414680D03*
X943180Y424180D03*
X922180Y395580D03*
X922180Y376580D03*
X943180Y386080D03*
X960280Y662280D03*
X960280Y643280D03*
X981280Y652780D03*
X960280Y624180D03*
X960280Y605180D03*
X981280Y614680D03*
X960280Y586080D03*
X960280Y567080D03*
X981280Y576580D03*
X960280Y547980D03*
X960280Y528980D03*
X981280Y538480D03*
X960280Y509880D03*
X960280Y490880D03*
X981280Y500380D03*
X960280Y471780D03*
X960280Y452780D03*
X981280Y462280D03*
X960280Y433680D03*
X960280Y414680D03*
X981280Y424180D03*
X960280Y395580D03*
X960280Y376580D03*
X981280Y386080D03*
X998380Y662280D03*
X998380Y643280D03*
X1019380Y652780D03*
X998380Y624180D03*
X998380Y605180D03*
X1019380Y614680D03*
X998380Y586080D03*
X998380Y567080D03*
X1019380Y576580D03*
X998380Y547980D03*
X998380Y528980D03*
X1019380Y538480D03*
X998380Y509880D03*
X998380Y490880D03*
X1019380Y500380D03*
X998380Y471780D03*
X998380Y452780D03*
X1019380Y462280D03*
X998380Y433680D03*
X998380Y414680D03*
X1019380Y424180D03*
X998380Y395580D03*
X998380Y376580D03*
X1019380Y386080D03*
D11*
X628431Y643280D03*
X628431Y652780D03*
X628431Y662280D03*
X600929Y662280D03*
X600929Y652780D03*
X600929Y643280D03*
D12*
X605927Y554377D02*
X605927Y539383D01*
X603933Y539383D01*
X603933Y554377D01*
X605927Y554377D01*
X605927Y541794D02*
X603933Y541794D01*
X603933Y544205D02*
X605927Y544205D01*
X605927Y546616D02*
X603933Y546616D01*
X603933Y549027D02*
X605927Y549027D01*
X605927Y551438D02*
X603933Y551438D01*
X603933Y553849D02*
X605927Y553849D01*
X612427Y554377D02*
X612427Y539383D01*
X610433Y539383D01*
X610433Y554377D01*
X612427Y554377D01*
X612427Y541794D02*
X610433Y541794D01*
X610433Y544205D02*
X612427Y544205D01*
X612427Y546616D02*
X610433Y546616D01*
X610433Y549027D02*
X612427Y549027D01*
X612427Y551438D02*
X610433Y551438D01*
X610433Y553849D02*
X612427Y553849D01*
X618927Y554377D02*
X618927Y539383D01*
X616933Y539383D01*
X616933Y554377D01*
X618927Y554377D01*
X618927Y541794D02*
X616933Y541794D01*
X616933Y544205D02*
X618927Y544205D01*
X618927Y546616D02*
X616933Y546616D01*
X616933Y549027D02*
X618927Y549027D01*
X618927Y551438D02*
X616933Y551438D01*
X616933Y553849D02*
X618927Y553849D01*
X625427Y554377D02*
X625427Y539383D01*
X623433Y539383D01*
X623433Y554377D01*
X625427Y554377D01*
X625427Y541794D02*
X623433Y541794D01*
X623433Y544205D02*
X625427Y544205D01*
X625427Y546616D02*
X623433Y546616D01*
X623433Y549027D02*
X625427Y549027D01*
X625427Y551438D02*
X623433Y551438D01*
X623433Y553849D02*
X625427Y553849D01*
X625427Y573383D02*
X625427Y588377D01*
X625427Y573383D02*
X623433Y573383D01*
X623433Y588377D01*
X625427Y588377D01*
X625427Y575794D02*
X623433Y575794D01*
X623433Y578205D02*
X625427Y578205D01*
X625427Y580616D02*
X623433Y580616D01*
X623433Y583027D02*
X625427Y583027D01*
X625427Y585438D02*
X623433Y585438D01*
X623433Y587849D02*
X625427Y587849D01*
X618927Y588377D02*
X618927Y573383D01*
X616933Y573383D01*
X616933Y588377D01*
X618927Y588377D01*
X618927Y575794D02*
X616933Y575794D01*
X616933Y578205D02*
X618927Y578205D01*
X618927Y580616D02*
X616933Y580616D01*
X616933Y583027D02*
X618927Y583027D01*
X618927Y585438D02*
X616933Y585438D01*
X616933Y587849D02*
X618927Y587849D01*
X612427Y588377D02*
X612427Y573383D01*
X610433Y573383D01*
X610433Y588377D01*
X612427Y588377D01*
X612427Y575794D02*
X610433Y575794D01*
X610433Y578205D02*
X612427Y578205D01*
X612427Y580616D02*
X610433Y580616D01*
X610433Y583027D02*
X612427Y583027D01*
X612427Y585438D02*
X610433Y585438D01*
X610433Y587849D02*
X612427Y587849D01*
X605927Y588377D02*
X605927Y573383D01*
X603933Y573383D01*
X603933Y588377D01*
X605927Y588377D01*
X605927Y575794D02*
X603933Y575794D01*
X603933Y578205D02*
X605927Y578205D01*
X605927Y580616D02*
X603933Y580616D01*
X603933Y583027D02*
X605927Y583027D01*
X605927Y585438D02*
X603933Y585438D01*
X603933Y587849D02*
X605927Y587849D01*
D13*
X586680Y481330D03*
X586680Y468630D03*
X586680Y455930D03*
X586680Y443230D03*
X586680Y430530D03*
X586680Y417830D03*
X586680Y405130D03*
X586680Y392430D03*
X642680Y392430D03*
X642680Y405130D03*
X642680Y417830D03*
X642680Y430530D03*
X642680Y443230D03*
X642680Y455930D03*
X642680Y468630D03*
X642680Y481330D03*
D14*
X549910Y424180D03*
X552450Y449580D03*
X549910Y474980D03*
X552450Y500380D03*
X549910Y525780D03*
X552450Y551180D03*
X549910Y576580D03*
X552450Y601980D03*
D15*
X712080Y665480D03*
X695080Y665480D03*
X712080Y627380D03*
X695080Y627380D03*
X712080Y589280D03*
X695080Y589280D03*
X712080Y551180D03*
X695080Y551180D03*
X712080Y513080D03*
X695080Y513080D03*
X712080Y474980D03*
X695080Y474980D03*
X712080Y436880D03*
X695080Y436880D03*
X712080Y398780D03*
X695080Y398780D03*
X623180Y627380D03*
X606180Y627380D03*
X623180Y500380D03*
X606180Y500380D03*
D10*
X731680Y662280D03*
X731680Y643280D03*
X752680Y652780D03*
D16*
X551180Y665480D03*
X551180Y373380D03*
D17*
X1033780Y678180D03*
X576580Y373380D03*
D18*
X589280Y572380D03*
X589280Y555380D03*
D10*
X205900Y972160D03*
X205900Y953160D03*
X226900Y962660D03*
X205900Y934060D03*
X205900Y915060D03*
X226900Y924560D03*
X205900Y895960D03*
X205900Y876960D03*
X226900Y886460D03*
X205900Y857860D03*
X205900Y838860D03*
X226900Y848360D03*
X205900Y819760D03*
X205900Y800760D03*
X226900Y810260D03*
X205900Y781660D03*
X205900Y762660D03*
X226900Y772160D03*
X205900Y743560D03*
X205900Y724560D03*
X226900Y734060D03*
X244000Y1010260D03*
X244000Y991260D03*
X265000Y1000760D03*
X244000Y972160D03*
X244000Y953160D03*
X265000Y962660D03*
X244000Y934060D03*
X244000Y915060D03*
X265000Y924560D03*
X244000Y895960D03*
X244000Y876960D03*
X265000Y886460D03*
X244000Y857860D03*
X244000Y838860D03*
X265000Y848360D03*
X244000Y819760D03*
X244000Y800760D03*
X265000Y810260D03*
X244000Y781660D03*
X244000Y762660D03*
X265000Y772160D03*
X244000Y743560D03*
X244000Y724560D03*
X265000Y734060D03*
X282100Y1010260D03*
X282100Y991260D03*
X303100Y1000760D03*
X282100Y972160D03*
X282100Y953160D03*
X303100Y962660D03*
X282100Y934060D03*
X282100Y915060D03*
X303100Y924560D03*
X282100Y895960D03*
X282100Y876960D03*
X303100Y886460D03*
X282100Y857860D03*
X282100Y838860D03*
X303100Y848360D03*
X282100Y819760D03*
X282100Y800760D03*
X303100Y810260D03*
X282100Y781660D03*
X282100Y762660D03*
X303100Y772160D03*
X282100Y743560D03*
X282100Y724560D03*
X303100Y734060D03*
X320200Y1010260D03*
X320200Y991260D03*
X341200Y1000760D03*
X320200Y972160D03*
X320200Y953160D03*
X341200Y962660D03*
X320200Y934060D03*
X320200Y915060D03*
X341200Y924560D03*
X320200Y895960D03*
X320200Y876960D03*
X341200Y886460D03*
X320200Y857860D03*
X320200Y838860D03*
X341200Y848360D03*
X320200Y819760D03*
X320200Y800760D03*
X341200Y810260D03*
X320200Y781660D03*
X320200Y762660D03*
X341200Y772160D03*
X320200Y743560D03*
X320200Y724560D03*
X341200Y734060D03*
X358300Y1010260D03*
X358300Y991260D03*
X379300Y1000760D03*
X358300Y972160D03*
X358300Y953160D03*
X379300Y962660D03*
X358300Y934060D03*
X358300Y915060D03*
X379300Y924560D03*
X358300Y895960D03*
X358300Y876960D03*
X379300Y886460D03*
X358300Y857860D03*
X358300Y838860D03*
X379300Y848360D03*
X358300Y819760D03*
X358300Y800760D03*
X379300Y810260D03*
X358300Y781660D03*
X358300Y762660D03*
X379300Y772160D03*
X358300Y743560D03*
X358300Y724560D03*
X379300Y734060D03*
X396400Y1010260D03*
X396400Y991260D03*
X417400Y1000760D03*
X396400Y972160D03*
X396400Y953160D03*
X417400Y962660D03*
X396400Y934060D03*
X396400Y915060D03*
X417400Y924560D03*
X396400Y895960D03*
X396400Y876960D03*
X417400Y886460D03*
X396400Y857860D03*
X396400Y838860D03*
X417400Y848360D03*
X396400Y819760D03*
X396400Y800760D03*
X417400Y810260D03*
X396400Y781660D03*
X396400Y762660D03*
X417400Y772160D03*
X396400Y743560D03*
X396400Y724560D03*
X417400Y734060D03*
X434500Y1010260D03*
X434500Y991260D03*
X455500Y1000760D03*
X434500Y972160D03*
X434500Y953160D03*
X455500Y962660D03*
X434500Y934060D03*
X434500Y915060D03*
X455500Y924560D03*
X434500Y895960D03*
X434500Y876960D03*
X455500Y886460D03*
X434500Y857860D03*
X434500Y838860D03*
X455500Y848360D03*
X434500Y819760D03*
X434500Y800760D03*
X455500Y810260D03*
X434500Y781660D03*
X434500Y762660D03*
X455500Y772160D03*
X434500Y743560D03*
X434500Y724560D03*
X455500Y734060D03*
X472600Y1010260D03*
X472600Y991260D03*
X493600Y1000760D03*
X472600Y972160D03*
X472600Y953160D03*
X493600Y962660D03*
X472600Y934060D03*
X472600Y915060D03*
X493600Y924560D03*
X472600Y895960D03*
X472600Y876960D03*
X493600Y886460D03*
X472600Y857860D03*
X472600Y838860D03*
X493600Y848360D03*
X472600Y819760D03*
X472600Y800760D03*
X493600Y810260D03*
X472600Y781660D03*
X472600Y762660D03*
X493600Y772160D03*
X472600Y743560D03*
X472600Y724560D03*
X493600Y734060D03*
D11*
X102651Y991260D03*
X102651Y1000760D03*
X102651Y1010260D03*
X75149Y1010260D03*
X75149Y1000760D03*
X75149Y991260D03*
D12*
X80147Y902357D02*
X80147Y887363D01*
X78153Y887363D01*
X78153Y902357D01*
X80147Y902357D01*
X80147Y889774D02*
X78153Y889774D01*
X78153Y892185D02*
X80147Y892185D01*
X80147Y894596D02*
X78153Y894596D01*
X78153Y897007D02*
X80147Y897007D01*
X80147Y899418D02*
X78153Y899418D01*
X78153Y901829D02*
X80147Y901829D01*
X86647Y902357D02*
X86647Y887363D01*
X84653Y887363D01*
X84653Y902357D01*
X86647Y902357D01*
X86647Y889774D02*
X84653Y889774D01*
X84653Y892185D02*
X86647Y892185D01*
X86647Y894596D02*
X84653Y894596D01*
X84653Y897007D02*
X86647Y897007D01*
X86647Y899418D02*
X84653Y899418D01*
X84653Y901829D02*
X86647Y901829D01*
X93147Y902357D02*
X93147Y887363D01*
X91153Y887363D01*
X91153Y902357D01*
X93147Y902357D01*
X93147Y889774D02*
X91153Y889774D01*
X91153Y892185D02*
X93147Y892185D01*
X93147Y894596D02*
X91153Y894596D01*
X91153Y897007D02*
X93147Y897007D01*
X93147Y899418D02*
X91153Y899418D01*
X91153Y901829D02*
X93147Y901829D01*
X99647Y902357D02*
X99647Y887363D01*
X97653Y887363D01*
X97653Y902357D01*
X99647Y902357D01*
X99647Y889774D02*
X97653Y889774D01*
X97653Y892185D02*
X99647Y892185D01*
X99647Y894596D02*
X97653Y894596D01*
X97653Y897007D02*
X99647Y897007D01*
X99647Y899418D02*
X97653Y899418D01*
X97653Y901829D02*
X99647Y901829D01*
X99647Y921363D02*
X99647Y936357D01*
X99647Y921363D02*
X97653Y921363D01*
X97653Y936357D01*
X99647Y936357D01*
X99647Y923774D02*
X97653Y923774D01*
X97653Y926185D02*
X99647Y926185D01*
X99647Y928596D02*
X97653Y928596D01*
X97653Y931007D02*
X99647Y931007D01*
X99647Y933418D02*
X97653Y933418D01*
X97653Y935829D02*
X99647Y935829D01*
X93147Y936357D02*
X93147Y921363D01*
X91153Y921363D01*
X91153Y936357D01*
X93147Y936357D01*
X93147Y923774D02*
X91153Y923774D01*
X91153Y926185D02*
X93147Y926185D01*
X93147Y928596D02*
X91153Y928596D01*
X91153Y931007D02*
X93147Y931007D01*
X93147Y933418D02*
X91153Y933418D01*
X91153Y935829D02*
X93147Y935829D01*
X86647Y936357D02*
X86647Y921363D01*
X84653Y921363D01*
X84653Y936357D01*
X86647Y936357D01*
X86647Y923774D02*
X84653Y923774D01*
X84653Y926185D02*
X86647Y926185D01*
X86647Y928596D02*
X84653Y928596D01*
X84653Y931007D02*
X86647Y931007D01*
X86647Y933418D02*
X84653Y933418D01*
X84653Y935829D02*
X86647Y935829D01*
X80147Y936357D02*
X80147Y921363D01*
X78153Y921363D01*
X78153Y936357D01*
X80147Y936357D01*
X80147Y923774D02*
X78153Y923774D01*
X78153Y926185D02*
X80147Y926185D01*
X80147Y928596D02*
X78153Y928596D01*
X78153Y931007D02*
X80147Y931007D01*
X80147Y933418D02*
X78153Y933418D01*
X78153Y935829D02*
X80147Y935829D01*
D13*
X60900Y829310D03*
X60900Y816610D03*
X60900Y803910D03*
X60900Y791210D03*
X60900Y778510D03*
X60900Y765810D03*
X60900Y753110D03*
X60900Y740410D03*
X116900Y740410D03*
X116900Y753110D03*
X116900Y765810D03*
X116900Y778510D03*
X116900Y791210D03*
X116900Y803910D03*
X116900Y816610D03*
X116900Y829310D03*
D14*
X24130Y772160D03*
X26670Y797560D03*
X24130Y822960D03*
X26670Y848360D03*
X24130Y873760D03*
X26670Y899160D03*
X24130Y924560D03*
X26670Y949960D03*
D15*
X186300Y1013460D03*
X169300Y1013460D03*
X186300Y975360D03*
X169300Y975360D03*
X186300Y937260D03*
X169300Y937260D03*
X186300Y899160D03*
X169300Y899160D03*
X186300Y861060D03*
X169300Y861060D03*
X186300Y822960D03*
X169300Y822960D03*
X186300Y784860D03*
X169300Y784860D03*
X186300Y746760D03*
X169300Y746760D03*
X97400Y975360D03*
X80400Y975360D03*
X97400Y848360D03*
X80400Y848360D03*
D10*
X205900Y1010260D03*
X205900Y991260D03*
X226900Y1000760D03*
D16*
X25400Y1013460D03*
X25400Y721360D03*
D17*
X508000Y1026160D03*
X50800Y721360D03*
D18*
X63500Y920360D03*
X63500Y903360D03*
D10*
X731680Y972160D03*
X731680Y953160D03*
X752680Y962660D03*
X731680Y934060D03*
X731680Y915060D03*
X752680Y924560D03*
X731680Y895960D03*
X731680Y876960D03*
X752680Y886460D03*
X731680Y857860D03*
X731680Y838860D03*
X752680Y848360D03*
X731680Y819760D03*
X731680Y800760D03*
X752680Y810260D03*
X731680Y781660D03*
X731680Y762660D03*
X752680Y772160D03*
X731680Y743560D03*
X731680Y724560D03*
X752680Y734060D03*
X769780Y1010260D03*
X769780Y991260D03*
X790780Y1000760D03*
X769780Y972160D03*
X769780Y953160D03*
X790780Y962660D03*
X769780Y934060D03*
X769780Y915060D03*
X790780Y924560D03*
X769780Y895960D03*
X769780Y876960D03*
X790780Y886460D03*
X769780Y857860D03*
X769780Y838860D03*
X790780Y848360D03*
X769780Y819760D03*
X769780Y800760D03*
X790780Y810260D03*
X769780Y781660D03*
X769780Y762660D03*
X790780Y772160D03*
X769780Y743560D03*
X769780Y724560D03*
X790780Y734060D03*
X807880Y1010260D03*
X807880Y991260D03*
X828880Y1000760D03*
X807880Y972160D03*
X807880Y953160D03*
X828880Y962660D03*
X807880Y934060D03*
X807880Y915060D03*
X828880Y924560D03*
X807880Y895960D03*
X807880Y876960D03*
X828880Y886460D03*
X807880Y857860D03*
X807880Y838860D03*
X828880Y848360D03*
X807880Y819760D03*
X807880Y800760D03*
X828880Y810260D03*
X807880Y781660D03*
X807880Y762660D03*
X828880Y772160D03*
X807880Y743560D03*
X807880Y724560D03*
X828880Y734060D03*
X845980Y1010260D03*
X845980Y991260D03*
X866980Y1000760D03*
X845980Y972160D03*
X845980Y953160D03*
X866980Y962660D03*
X845980Y934060D03*
X845980Y915060D03*
X866980Y924560D03*
X845980Y895960D03*
X845980Y876960D03*
X866980Y886460D03*
X845980Y857860D03*
X845980Y838860D03*
X866980Y848360D03*
X845980Y819760D03*
X845980Y800760D03*
X866980Y810260D03*
X845980Y781660D03*
X845980Y762660D03*
X866980Y772160D03*
X845980Y743560D03*
X845980Y724560D03*
X866980Y734060D03*
X884080Y1010260D03*
X884080Y991260D03*
X905080Y1000760D03*
X884080Y972160D03*
X884080Y953160D03*
X905080Y962660D03*
X884080Y934060D03*
X884080Y915060D03*
X905080Y924560D03*
X884080Y895960D03*
X884080Y876960D03*
X905080Y886460D03*
X884080Y857860D03*
X884080Y838860D03*
X905080Y848360D03*
X884080Y819760D03*
X884080Y800760D03*
X905080Y810260D03*
X884080Y781660D03*
X884080Y762660D03*
X905080Y772160D03*
X884080Y743560D03*
X884080Y724560D03*
X905080Y734060D03*
X922180Y1010260D03*
X922180Y991260D03*
X943180Y1000760D03*
X922180Y972160D03*
X922180Y953160D03*
X943180Y962660D03*
X922180Y934060D03*
X922180Y915060D03*
X943180Y924560D03*
X922180Y895960D03*
X922180Y876960D03*
X943180Y886460D03*
X922180Y857860D03*
X922180Y838860D03*
X943180Y848360D03*
X922180Y819760D03*
X922180Y800760D03*
X943180Y810260D03*
X922180Y781660D03*
X922180Y762660D03*
X943180Y772160D03*
X922180Y743560D03*
X922180Y724560D03*
X943180Y734060D03*
X960280Y1010260D03*
X960280Y991260D03*
X981280Y1000760D03*
X960280Y972160D03*
X960280Y953160D03*
X981280Y962660D03*
X960280Y934060D03*
X960280Y915060D03*
X981280Y924560D03*
X960280Y895960D03*
X960280Y876960D03*
X981280Y886460D03*
X960280Y857860D03*
X960280Y838860D03*
X981280Y848360D03*
X960280Y819760D03*
X960280Y800760D03*
X981280Y810260D03*
X960280Y781660D03*
X960280Y762660D03*
X981280Y772160D03*
X960280Y743560D03*
X960280Y724560D03*
X981280Y734060D03*
X998380Y1010260D03*
X998380Y991260D03*
X1019380Y1000760D03*
X998380Y972160D03*
X998380Y953160D03*
X1019380Y962660D03*
X998380Y934060D03*
X998380Y915060D03*
X1019380Y924560D03*
X998380Y895960D03*
X998380Y876960D03*
X1019380Y886460D03*
X998380Y857860D03*
X998380Y838860D03*
X1019380Y848360D03*
X998380Y819760D03*
X998380Y800760D03*
X1019380Y810260D03*
X998380Y781660D03*
X998380Y762660D03*
X1019380Y772160D03*
X998380Y743560D03*
X998380Y724560D03*
X1019380Y734060D03*
D11*
X628431Y991260D03*
X628431Y1000760D03*
X628431Y1010260D03*
X600929Y1010260D03*
X600929Y1000760D03*
X600929Y991260D03*
D12*
X605927Y902357D02*
X605927Y887363D01*
X603933Y887363D01*
X603933Y902357D01*
X605927Y902357D01*
X605927Y889774D02*
X603933Y889774D01*
X603933Y892185D02*
X605927Y892185D01*
X605927Y894596D02*
X603933Y894596D01*
X603933Y897007D02*
X605927Y897007D01*
X605927Y899418D02*
X603933Y899418D01*
X603933Y901829D02*
X605927Y901829D01*
X612427Y902357D02*
X612427Y887363D01*
X610433Y887363D01*
X610433Y902357D01*
X612427Y902357D01*
X612427Y889774D02*
X610433Y889774D01*
X610433Y892185D02*
X612427Y892185D01*
X612427Y894596D02*
X610433Y894596D01*
X610433Y897007D02*
X612427Y897007D01*
X612427Y899418D02*
X610433Y899418D01*
X610433Y901829D02*
X612427Y901829D01*
X618927Y902357D02*
X618927Y887363D01*
X616933Y887363D01*
X616933Y902357D01*
X618927Y902357D01*
X618927Y889774D02*
X616933Y889774D01*
X616933Y892185D02*
X618927Y892185D01*
X618927Y894596D02*
X616933Y894596D01*
X616933Y897007D02*
X618927Y897007D01*
X618927Y899418D02*
X616933Y899418D01*
X616933Y901829D02*
X618927Y901829D01*
X625427Y902357D02*
X625427Y887363D01*
X623433Y887363D01*
X623433Y902357D01*
X625427Y902357D01*
X625427Y889774D02*
X623433Y889774D01*
X623433Y892185D02*
X625427Y892185D01*
X625427Y894596D02*
X623433Y894596D01*
X623433Y897007D02*
X625427Y897007D01*
X625427Y899418D02*
X623433Y899418D01*
X623433Y901829D02*
X625427Y901829D01*
X625427Y921363D02*
X625427Y936357D01*
X625427Y921363D02*
X623433Y921363D01*
X623433Y936357D01*
X625427Y936357D01*
X625427Y923774D02*
X623433Y923774D01*
X623433Y926185D02*
X625427Y926185D01*
X625427Y928596D02*
X623433Y928596D01*
X623433Y931007D02*
X625427Y931007D01*
X625427Y933418D02*
X623433Y933418D01*
X623433Y935829D02*
X625427Y935829D01*
X618927Y936357D02*
X618927Y921363D01*
X616933Y921363D01*
X616933Y936357D01*
X618927Y936357D01*
X618927Y923774D02*
X616933Y923774D01*
X616933Y926185D02*
X618927Y926185D01*
X618927Y928596D02*
X616933Y928596D01*
X616933Y931007D02*
X618927Y931007D01*
X618927Y933418D02*
X616933Y933418D01*
X616933Y935829D02*
X618927Y935829D01*
X612427Y936357D02*
X612427Y921363D01*
X610433Y921363D01*
X610433Y936357D01*
X612427Y936357D01*
X612427Y923774D02*
X610433Y923774D01*
X610433Y926185D02*
X612427Y926185D01*
X612427Y928596D02*
X610433Y928596D01*
X610433Y931007D02*
X612427Y931007D01*
X612427Y933418D02*
X610433Y933418D01*
X610433Y935829D02*
X612427Y935829D01*
X605927Y936357D02*
X605927Y921363D01*
X603933Y921363D01*
X603933Y936357D01*
X605927Y936357D01*
X605927Y923774D02*
X603933Y923774D01*
X603933Y926185D02*
X605927Y926185D01*
X605927Y928596D02*
X603933Y928596D01*
X603933Y931007D02*
X605927Y931007D01*
X605927Y933418D02*
X603933Y933418D01*
X603933Y935829D02*
X605927Y935829D01*
D13*
X586680Y829310D03*
X586680Y816610D03*
X586680Y803910D03*
X586680Y791210D03*
X586680Y778510D03*
X586680Y765810D03*
X586680Y753110D03*
X586680Y740410D03*
X642680Y740410D03*
X642680Y753110D03*
X642680Y765810D03*
X642680Y778510D03*
X642680Y791210D03*
X642680Y803910D03*
X642680Y816610D03*
X642680Y829310D03*
D14*
X549910Y772160D03*
X552450Y797560D03*
X549910Y822960D03*
X552450Y848360D03*
X549910Y873760D03*
X552450Y899160D03*
X549910Y924560D03*
X552450Y949960D03*
D15*
X712080Y1013460D03*
X695080Y1013460D03*
X712080Y975360D03*
X695080Y975360D03*
X712080Y937260D03*
X695080Y937260D03*
X712080Y899160D03*
X695080Y899160D03*
X712080Y861060D03*
X695080Y861060D03*
X712080Y822960D03*
X695080Y822960D03*
X712080Y784860D03*
X695080Y784860D03*
X712080Y746760D03*
X695080Y746760D03*
X623180Y975360D03*
X606180Y975360D03*
X623180Y848360D03*
X606180Y848360D03*
D10*
X731680Y1010260D03*
X731680Y991260D03*
X752680Y1000760D03*
D16*
X551180Y1013460D03*
X551180Y721360D03*
D17*
X1033780Y1026160D03*
X576580Y721360D03*
D18*
X589280Y920360D03*
X589280Y903360D03*
D10*
X205900Y1320140D03*
X205900Y1301140D03*
X226900Y1310640D03*
X205900Y1282040D03*
X205900Y1263040D03*
X226900Y1272540D03*
X205900Y1243940D03*
X205900Y1224940D03*
X226900Y1234440D03*
X205900Y1205840D03*
X205900Y1186840D03*
X226900Y1196340D03*
X205900Y1167740D03*
X205900Y1148740D03*
X226900Y1158240D03*
X205900Y1129640D03*
X205900Y1110640D03*
X226900Y1120140D03*
X205900Y1091540D03*
X205900Y1072540D03*
X226900Y1082040D03*
X244000Y1358240D03*
X244000Y1339240D03*
X265000Y1348740D03*
X244000Y1320140D03*
X244000Y1301140D03*
X265000Y1310640D03*
X244000Y1282040D03*
X244000Y1263040D03*
X265000Y1272540D03*
X244000Y1243940D03*
X244000Y1224940D03*
X265000Y1234440D03*
X244000Y1205840D03*
X244000Y1186840D03*
X265000Y1196340D03*
X244000Y1167740D03*
X244000Y1148740D03*
X265000Y1158240D03*
X244000Y1129640D03*
X244000Y1110640D03*
X265000Y1120140D03*
X244000Y1091540D03*
X244000Y1072540D03*
X265000Y1082040D03*
X282100Y1358240D03*
X282100Y1339240D03*
X303100Y1348740D03*
X282100Y1320140D03*
X282100Y1301140D03*
X303100Y1310640D03*
X282100Y1282040D03*
X282100Y1263040D03*
X303100Y1272540D03*
X282100Y1243940D03*
X282100Y1224940D03*
X303100Y1234440D03*
X282100Y1205840D03*
X282100Y1186840D03*
X303100Y1196340D03*
X282100Y1167740D03*
X282100Y1148740D03*
X303100Y1158240D03*
X282100Y1129640D03*
X282100Y1110640D03*
X303100Y1120140D03*
X282100Y1091540D03*
X282100Y1072540D03*
X303100Y1082040D03*
X320200Y1358240D03*
X320200Y1339240D03*
X341200Y1348740D03*
X320200Y1320140D03*
X320200Y1301140D03*
X341200Y1310640D03*
X320200Y1282040D03*
X320200Y1263040D03*
X341200Y1272540D03*
X320200Y1243940D03*
X320200Y1224940D03*
X341200Y1234440D03*
X320200Y1205840D03*
X320200Y1186840D03*
X341200Y1196340D03*
X320200Y1167740D03*
X320200Y1148740D03*
X341200Y1158240D03*
X320200Y1129640D03*
X320200Y1110640D03*
X341200Y1120140D03*
X320200Y1091540D03*
X320200Y1072540D03*
X341200Y1082040D03*
X358300Y1358240D03*
X358300Y1339240D03*
X379300Y1348740D03*
X358300Y1320140D03*
X358300Y1301140D03*
X379300Y1310640D03*
X358300Y1282040D03*
X358300Y1263040D03*
X379300Y1272540D03*
X358300Y1243940D03*
X358300Y1224940D03*
X379300Y1234440D03*
X358300Y1205840D03*
X358300Y1186840D03*
X379300Y1196340D03*
X358300Y1167740D03*
X358300Y1148740D03*
X379300Y1158240D03*
X358300Y1129640D03*
X358300Y1110640D03*
X379300Y1120140D03*
X358300Y1091540D03*
X358300Y1072540D03*
X379300Y1082040D03*
X396400Y1358240D03*
X396400Y1339240D03*
X417400Y1348740D03*
X396400Y1320140D03*
X396400Y1301140D03*
X417400Y1310640D03*
X396400Y1282040D03*
X396400Y1263040D03*
X417400Y1272540D03*
X396400Y1243940D03*
X396400Y1224940D03*
X417400Y1234440D03*
X396400Y1205840D03*
X396400Y1186840D03*
X417400Y1196340D03*
X396400Y1167740D03*
X396400Y1148740D03*
X417400Y1158240D03*
X396400Y1129640D03*
X396400Y1110640D03*
X417400Y1120140D03*
X396400Y1091540D03*
X396400Y1072540D03*
X417400Y1082040D03*
X434500Y1358240D03*
X434500Y1339240D03*
X455500Y1348740D03*
X434500Y1320140D03*
X434500Y1301140D03*
X455500Y1310640D03*
X434500Y1282040D03*
X434500Y1263040D03*
X455500Y1272540D03*
X434500Y1243940D03*
X434500Y1224940D03*
X455500Y1234440D03*
X434500Y1205840D03*
X434500Y1186840D03*
X455500Y1196340D03*
X434500Y1167740D03*
X434500Y1148740D03*
X455500Y1158240D03*
X434500Y1129640D03*
X434500Y1110640D03*
X455500Y1120140D03*
X434500Y1091540D03*
X434500Y1072540D03*
X455500Y1082040D03*
X472600Y1358240D03*
X472600Y1339240D03*
X493600Y1348740D03*
X472600Y1320140D03*
X472600Y1301140D03*
X493600Y1310640D03*
X472600Y1282040D03*
X472600Y1263040D03*
X493600Y1272540D03*
X472600Y1243940D03*
X472600Y1224940D03*
X493600Y1234440D03*
X472600Y1205840D03*
X472600Y1186840D03*
X493600Y1196340D03*
X472600Y1167740D03*
X472600Y1148740D03*
X493600Y1158240D03*
X472600Y1129640D03*
X472600Y1110640D03*
X493600Y1120140D03*
X472600Y1091540D03*
X472600Y1072540D03*
X493600Y1082040D03*
D11*
X102651Y1339240D03*
X102651Y1348740D03*
X102651Y1358240D03*
X75149Y1358240D03*
X75149Y1348740D03*
X75149Y1339240D03*
D12*
X80147Y1250337D02*
X80147Y1235343D01*
X78153Y1235343D01*
X78153Y1250337D01*
X80147Y1250337D01*
X80147Y1237754D02*
X78153Y1237754D01*
X78153Y1240165D02*
X80147Y1240165D01*
X80147Y1242576D02*
X78153Y1242576D01*
X78153Y1244987D02*
X80147Y1244987D01*
X80147Y1247398D02*
X78153Y1247398D01*
X78153Y1249809D02*
X80147Y1249809D01*
X86647Y1250337D02*
X86647Y1235343D01*
X84653Y1235343D01*
X84653Y1250337D01*
X86647Y1250337D01*
X86647Y1237754D02*
X84653Y1237754D01*
X84653Y1240165D02*
X86647Y1240165D01*
X86647Y1242576D02*
X84653Y1242576D01*
X84653Y1244987D02*
X86647Y1244987D01*
X86647Y1247398D02*
X84653Y1247398D01*
X84653Y1249809D02*
X86647Y1249809D01*
X93147Y1250337D02*
X93147Y1235343D01*
X91153Y1235343D01*
X91153Y1250337D01*
X93147Y1250337D01*
X93147Y1237754D02*
X91153Y1237754D01*
X91153Y1240165D02*
X93147Y1240165D01*
X93147Y1242576D02*
X91153Y1242576D01*
X91153Y1244987D02*
X93147Y1244987D01*
X93147Y1247398D02*
X91153Y1247398D01*
X91153Y1249809D02*
X93147Y1249809D01*
X99647Y1250337D02*
X99647Y1235343D01*
X97653Y1235343D01*
X97653Y1250337D01*
X99647Y1250337D01*
X99647Y1237754D02*
X97653Y1237754D01*
X97653Y1240165D02*
X99647Y1240165D01*
X99647Y1242576D02*
X97653Y1242576D01*
X97653Y1244987D02*
X99647Y1244987D01*
X99647Y1247398D02*
X97653Y1247398D01*
X97653Y1249809D02*
X99647Y1249809D01*
X99647Y1269343D02*
X99647Y1284337D01*
X99647Y1269343D02*
X97653Y1269343D01*
X97653Y1284337D01*
X99647Y1284337D01*
X99647Y1271754D02*
X97653Y1271754D01*
X97653Y1274165D02*
X99647Y1274165D01*
X99647Y1276576D02*
X97653Y1276576D01*
X97653Y1278987D02*
X99647Y1278987D01*
X99647Y1281398D02*
X97653Y1281398D01*
X97653Y1283809D02*
X99647Y1283809D01*
X93147Y1284337D02*
X93147Y1269343D01*
X91153Y1269343D01*
X91153Y1284337D01*
X93147Y1284337D01*
X93147Y1271754D02*
X91153Y1271754D01*
X91153Y1274165D02*
X93147Y1274165D01*
X93147Y1276576D02*
X91153Y1276576D01*
X91153Y1278987D02*
X93147Y1278987D01*
X93147Y1281398D02*
X91153Y1281398D01*
X91153Y1283809D02*
X93147Y1283809D01*
X86647Y1284337D02*
X86647Y1269343D01*
X84653Y1269343D01*
X84653Y1284337D01*
X86647Y1284337D01*
X86647Y1271754D02*
X84653Y1271754D01*
X84653Y1274165D02*
X86647Y1274165D01*
X86647Y1276576D02*
X84653Y1276576D01*
X84653Y1278987D02*
X86647Y1278987D01*
X86647Y1281398D02*
X84653Y1281398D01*
X84653Y1283809D02*
X86647Y1283809D01*
X80147Y1284337D02*
X80147Y1269343D01*
X78153Y1269343D01*
X78153Y1284337D01*
X80147Y1284337D01*
X80147Y1271754D02*
X78153Y1271754D01*
X78153Y1274165D02*
X80147Y1274165D01*
X80147Y1276576D02*
X78153Y1276576D01*
X78153Y1278987D02*
X80147Y1278987D01*
X80147Y1281398D02*
X78153Y1281398D01*
X78153Y1283809D02*
X80147Y1283809D01*
D13*
X60900Y1177290D03*
X60900Y1164590D03*
X60900Y1151890D03*
X60900Y1139190D03*
X60900Y1126490D03*
X60900Y1113790D03*
X60900Y1101090D03*
X60900Y1088390D03*
X116900Y1088390D03*
X116900Y1101090D03*
X116900Y1113790D03*
X116900Y1126490D03*
X116900Y1139190D03*
X116900Y1151890D03*
X116900Y1164590D03*
X116900Y1177290D03*
D14*
X24130Y1120140D03*
X26670Y1145540D03*
X24130Y1170940D03*
X26670Y1196340D03*
X24130Y1221740D03*
X26670Y1247140D03*
X24130Y1272540D03*
X26670Y1297940D03*
D15*
X186300Y1361440D03*
X169300Y1361440D03*
X186300Y1323340D03*
X169300Y1323340D03*
X186300Y1285240D03*
X169300Y1285240D03*
X186300Y1247140D03*
X169300Y1247140D03*
X186300Y1209040D03*
X169300Y1209040D03*
X186300Y1170940D03*
X169300Y1170940D03*
X186300Y1132840D03*
X169300Y1132840D03*
X186300Y1094740D03*
X169300Y1094740D03*
X97400Y1323340D03*
X80400Y1323340D03*
X97400Y1196340D03*
X80400Y1196340D03*
D10*
X205900Y1358240D03*
X205900Y1339240D03*
X226900Y1348740D03*
D16*
X25400Y1361440D03*
X25400Y1069340D03*
D17*
X508000Y1374140D03*
X50800Y1069340D03*
D18*
X63500Y1268340D03*
X63500Y1251340D03*
D10*
X731680Y1320140D03*
X731680Y1301140D03*
X752680Y1310640D03*
X731680Y1282040D03*
X731680Y1263040D03*
X752680Y1272540D03*
X731680Y1243940D03*
X731680Y1224940D03*
X752680Y1234440D03*
X731680Y1205840D03*
X731680Y1186840D03*
X752680Y1196340D03*
X731680Y1167740D03*
X731680Y1148740D03*
X752680Y1158240D03*
X731680Y1129640D03*
X731680Y1110640D03*
X752680Y1120140D03*
X731680Y1091540D03*
X731680Y1072540D03*
X752680Y1082040D03*
X769780Y1358240D03*
X769780Y1339240D03*
X790780Y1348740D03*
X769780Y1320140D03*
X769780Y1301140D03*
X790780Y1310640D03*
X769780Y1282040D03*
X769780Y1263040D03*
X790780Y1272540D03*
X769780Y1243940D03*
X769780Y1224940D03*
X790780Y1234440D03*
X769780Y1205840D03*
X769780Y1186840D03*
X790780Y1196340D03*
X769780Y1167740D03*
X769780Y1148740D03*
X790780Y1158240D03*
X769780Y1129640D03*
X769780Y1110640D03*
X790780Y1120140D03*
X769780Y1091540D03*
X769780Y1072540D03*
X790780Y1082040D03*
X807880Y1358240D03*
X807880Y1339240D03*
X828880Y1348740D03*
X807880Y1320140D03*
X807880Y1301140D03*
X828880Y1310640D03*
X807880Y1282040D03*
X807880Y1263040D03*
X828880Y1272540D03*
X807880Y1243940D03*
X807880Y1224940D03*
X828880Y1234440D03*
X807880Y1205840D03*
X807880Y1186840D03*
X828880Y1196340D03*
X807880Y1167740D03*
X807880Y1148740D03*
X828880Y1158240D03*
X807880Y1129640D03*
X807880Y1110640D03*
X828880Y1120140D03*
X807880Y1091540D03*
X807880Y1072540D03*
X828880Y1082040D03*
X845980Y1358240D03*
X845980Y1339240D03*
X866980Y1348740D03*
X845980Y1320140D03*
X845980Y1301140D03*
X866980Y1310640D03*
X845980Y1282040D03*
X845980Y1263040D03*
X866980Y1272540D03*
X845980Y1243940D03*
X845980Y1224940D03*
X866980Y1234440D03*
X845980Y1205840D03*
X845980Y1186840D03*
X866980Y1196340D03*
X845980Y1167740D03*
X845980Y1148740D03*
X866980Y1158240D03*
X845980Y1129640D03*
X845980Y1110640D03*
X866980Y1120140D03*
X845980Y1091540D03*
X845980Y1072540D03*
X866980Y1082040D03*
X884080Y1358240D03*
X884080Y1339240D03*
X905080Y1348740D03*
X884080Y1320140D03*
X884080Y1301140D03*
X905080Y1310640D03*
X884080Y1282040D03*
X884080Y1263040D03*
X905080Y1272540D03*
X884080Y1243940D03*
X884080Y1224940D03*
X905080Y1234440D03*
X884080Y1205840D03*
X884080Y1186840D03*
X905080Y1196340D03*
X884080Y1167740D03*
X884080Y1148740D03*
X905080Y1158240D03*
X884080Y1129640D03*
X884080Y1110640D03*
X905080Y1120140D03*
X884080Y1091540D03*
X884080Y1072540D03*
X905080Y1082040D03*
X922180Y1358240D03*
X922180Y1339240D03*
X943180Y1348740D03*
X922180Y1320140D03*
X922180Y1301140D03*
X943180Y1310640D03*
X922180Y1282040D03*
X922180Y1263040D03*
X943180Y1272540D03*
X922180Y1243940D03*
X922180Y1224940D03*
X943180Y1234440D03*
X922180Y1205840D03*
X922180Y1186840D03*
X943180Y1196340D03*
X922180Y1167740D03*
X922180Y1148740D03*
X943180Y1158240D03*
X922180Y1129640D03*
X922180Y1110640D03*
X943180Y1120140D03*
X922180Y1091540D03*
X922180Y1072540D03*
X943180Y1082040D03*
X960280Y1358240D03*
X960280Y1339240D03*
X981280Y1348740D03*
X960280Y1320140D03*
X960280Y1301140D03*
X981280Y1310640D03*
X960280Y1282040D03*
X960280Y1263040D03*
X981280Y1272540D03*
X960280Y1243940D03*
X960280Y1224940D03*
X981280Y1234440D03*
X960280Y1205840D03*
X960280Y1186840D03*
X981280Y1196340D03*
X960280Y1167740D03*
X960280Y1148740D03*
X981280Y1158240D03*
X960280Y1129640D03*
X960280Y1110640D03*
X981280Y1120140D03*
X960280Y1091540D03*
X960280Y1072540D03*
X981280Y1082040D03*
X998380Y1358240D03*
X998380Y1339240D03*
X1019380Y1348740D03*
X998380Y1320140D03*
X998380Y1301140D03*
X1019380Y1310640D03*
X998380Y1282040D03*
X998380Y1263040D03*
X1019380Y1272540D03*
X998380Y1243940D03*
X998380Y1224940D03*
X1019380Y1234440D03*
X998380Y1205840D03*
X998380Y1186840D03*
X1019380Y1196340D03*
X998380Y1167740D03*
X998380Y1148740D03*
X1019380Y1158240D03*
X998380Y1129640D03*
X998380Y1110640D03*
X1019380Y1120140D03*
X998380Y1091540D03*
X998380Y1072540D03*
X1019380Y1082040D03*
D11*
X628431Y1339240D03*
X628431Y1348740D03*
X628431Y1358240D03*
X600929Y1358240D03*
X600929Y1348740D03*
X600929Y1339240D03*
D12*
X605927Y1250337D02*
X605927Y1235343D01*
X603933Y1235343D01*
X603933Y1250337D01*
X605927Y1250337D01*
X605927Y1237754D02*
X603933Y1237754D01*
X603933Y1240165D02*
X605927Y1240165D01*
X605927Y1242576D02*
X603933Y1242576D01*
X603933Y1244987D02*
X605927Y1244987D01*
X605927Y1247398D02*
X603933Y1247398D01*
X603933Y1249809D02*
X605927Y1249809D01*
X612427Y1250337D02*
X612427Y1235343D01*
X610433Y1235343D01*
X610433Y1250337D01*
X612427Y1250337D01*
X612427Y1237754D02*
X610433Y1237754D01*
X610433Y1240165D02*
X612427Y1240165D01*
X612427Y1242576D02*
X610433Y1242576D01*
X610433Y1244987D02*
X612427Y1244987D01*
X612427Y1247398D02*
X610433Y1247398D01*
X610433Y1249809D02*
X612427Y1249809D01*
X618927Y1250337D02*
X618927Y1235343D01*
X616933Y1235343D01*
X616933Y1250337D01*
X618927Y1250337D01*
X618927Y1237754D02*
X616933Y1237754D01*
X616933Y1240165D02*
X618927Y1240165D01*
X618927Y1242576D02*
X616933Y1242576D01*
X616933Y1244987D02*
X618927Y1244987D01*
X618927Y1247398D02*
X616933Y1247398D01*
X616933Y1249809D02*
X618927Y1249809D01*
X625427Y1250337D02*
X625427Y1235343D01*
X623433Y1235343D01*
X623433Y1250337D01*
X625427Y1250337D01*
X625427Y1237754D02*
X623433Y1237754D01*
X623433Y1240165D02*
X625427Y1240165D01*
X625427Y1242576D02*
X623433Y1242576D01*
X623433Y1244987D02*
X625427Y1244987D01*
X625427Y1247398D02*
X623433Y1247398D01*
X623433Y1249809D02*
X625427Y1249809D01*
X625427Y1269343D02*
X625427Y1284337D01*
X625427Y1269343D02*
X623433Y1269343D01*
X623433Y1284337D01*
X625427Y1284337D01*
X625427Y1271754D02*
X623433Y1271754D01*
X623433Y1274165D02*
X625427Y1274165D01*
X625427Y1276576D02*
X623433Y1276576D01*
X623433Y1278987D02*
X625427Y1278987D01*
X625427Y1281398D02*
X623433Y1281398D01*
X623433Y1283809D02*
X625427Y1283809D01*
X618927Y1284337D02*
X618927Y1269343D01*
X616933Y1269343D01*
X616933Y1284337D01*
X618927Y1284337D01*
X618927Y1271754D02*
X616933Y1271754D01*
X616933Y1274165D02*
X618927Y1274165D01*
X618927Y1276576D02*
X616933Y1276576D01*
X616933Y1278987D02*
X618927Y1278987D01*
X618927Y1281398D02*
X616933Y1281398D01*
X616933Y1283809D02*
X618927Y1283809D01*
X612427Y1284337D02*
X612427Y1269343D01*
X610433Y1269343D01*
X610433Y1284337D01*
X612427Y1284337D01*
X612427Y1271754D02*
X610433Y1271754D01*
X610433Y1274165D02*
X612427Y1274165D01*
X612427Y1276576D02*
X610433Y1276576D01*
X610433Y1278987D02*
X612427Y1278987D01*
X612427Y1281398D02*
X610433Y1281398D01*
X610433Y1283809D02*
X612427Y1283809D01*
X605927Y1284337D02*
X605927Y1269343D01*
X603933Y1269343D01*
X603933Y1284337D01*
X605927Y1284337D01*
X605927Y1271754D02*
X603933Y1271754D01*
X603933Y1274165D02*
X605927Y1274165D01*
X605927Y1276576D02*
X603933Y1276576D01*
X603933Y1278987D02*
X605927Y1278987D01*
X605927Y1281398D02*
X603933Y1281398D01*
X603933Y1283809D02*
X605927Y1283809D01*
D13*
X586680Y1177290D03*
X586680Y1164590D03*
X586680Y1151890D03*
X586680Y1139190D03*
X586680Y1126490D03*
X586680Y1113790D03*
X586680Y1101090D03*
X586680Y1088390D03*
X642680Y1088390D03*
X642680Y1101090D03*
X642680Y1113790D03*
X642680Y1126490D03*
X642680Y1139190D03*
X642680Y1151890D03*
X642680Y1164590D03*
X642680Y1177290D03*
D14*
X549910Y1120140D03*
X552450Y1145540D03*
X549910Y1170940D03*
X552450Y1196340D03*
X549910Y1221740D03*
X552450Y1247140D03*
X549910Y1272540D03*
X552450Y1297940D03*
D15*
X712080Y1361440D03*
X695080Y1361440D03*
X712080Y1323340D03*
X695080Y1323340D03*
X712080Y1285240D03*
X695080Y1285240D03*
X712080Y1247140D03*
X695080Y1247140D03*
X712080Y1209040D03*
X695080Y1209040D03*
X712080Y1170940D03*
X695080Y1170940D03*
X712080Y1132840D03*
X695080Y1132840D03*
X712080Y1094740D03*
X695080Y1094740D03*
X623180Y1323340D03*
X606180Y1323340D03*
X623180Y1196340D03*
X606180Y1196340D03*
D10*
X731680Y1358240D03*
X731680Y1339240D03*
X752680Y1348740D03*
D16*
X551180Y1361440D03*
X551180Y1069340D03*
D17*
X1033780Y1374140D03*
X576580Y1069340D03*
D18*
X589280Y1268340D03*
X589280Y1251340D03*
D10*
X205900Y1668120D03*
X205900Y1649120D03*
X226900Y1658620D03*
X205900Y1630020D03*
X205900Y1611020D03*
X226900Y1620520D03*
X205900Y1591920D03*
X205900Y1572920D03*
X226900Y1582420D03*
X205900Y1553820D03*
X205900Y1534820D03*
X226900Y1544320D03*
X205900Y1515720D03*
X205900Y1496720D03*
X226900Y1506220D03*
X205900Y1477620D03*
X205900Y1458620D03*
X226900Y1468120D03*
X205900Y1439520D03*
X205900Y1420520D03*
X226900Y1430020D03*
X244000Y1706220D03*
X244000Y1687220D03*
X265000Y1696720D03*
X244000Y1668120D03*
X244000Y1649120D03*
X265000Y1658620D03*
X244000Y1630020D03*
X244000Y1611020D03*
X265000Y1620520D03*
X244000Y1591920D03*
X244000Y1572920D03*
X265000Y1582420D03*
X244000Y1553820D03*
X244000Y1534820D03*
X265000Y1544320D03*
X244000Y1515720D03*
X244000Y1496720D03*
X265000Y1506220D03*
X244000Y1477620D03*
X244000Y1458620D03*
X265000Y1468120D03*
X244000Y1439520D03*
X244000Y1420520D03*
X265000Y1430020D03*
X282100Y1706220D03*
X282100Y1687220D03*
X303100Y1696720D03*
X282100Y1668120D03*
X282100Y1649120D03*
X303100Y1658620D03*
X282100Y1630020D03*
X282100Y1611020D03*
X303100Y1620520D03*
X282100Y1591920D03*
X282100Y1572920D03*
X303100Y1582420D03*
X282100Y1553820D03*
X282100Y1534820D03*
X303100Y1544320D03*
X282100Y1515720D03*
X282100Y1496720D03*
X303100Y1506220D03*
X282100Y1477620D03*
X282100Y1458620D03*
X303100Y1468120D03*
X282100Y1439520D03*
X282100Y1420520D03*
X303100Y1430020D03*
X320200Y1706220D03*
X320200Y1687220D03*
X341200Y1696720D03*
X320200Y1668120D03*
X320200Y1649120D03*
X341200Y1658620D03*
X320200Y1630020D03*
X320200Y1611020D03*
X341200Y1620520D03*
X320200Y1591920D03*
X320200Y1572920D03*
X341200Y1582420D03*
X320200Y1553820D03*
X320200Y1534820D03*
X341200Y1544320D03*
X320200Y1515720D03*
X320200Y1496720D03*
X341200Y1506220D03*
X320200Y1477620D03*
X320200Y1458620D03*
X341200Y1468120D03*
X320200Y1439520D03*
X320200Y1420520D03*
X341200Y1430020D03*
X358300Y1706220D03*
X358300Y1687220D03*
X379300Y1696720D03*
X358300Y1668120D03*
X358300Y1649120D03*
X379300Y1658620D03*
X358300Y1630020D03*
X358300Y1611020D03*
X379300Y1620520D03*
X358300Y1591920D03*
X358300Y1572920D03*
X379300Y1582420D03*
X358300Y1553820D03*
X358300Y1534820D03*
X379300Y1544320D03*
X358300Y1515720D03*
X358300Y1496720D03*
X379300Y1506220D03*
X358300Y1477620D03*
X358300Y1458620D03*
X379300Y1468120D03*
X358300Y1439520D03*
X358300Y1420520D03*
X379300Y1430020D03*
X396400Y1706220D03*
X396400Y1687220D03*
X417400Y1696720D03*
X396400Y1668120D03*
X396400Y1649120D03*
X417400Y1658620D03*
X396400Y1630020D03*
X396400Y1611020D03*
X417400Y1620520D03*
X396400Y1591920D03*
X396400Y1572920D03*
X417400Y1582420D03*
X396400Y1553820D03*
X396400Y1534820D03*
X417400Y1544320D03*
X396400Y1515720D03*
X396400Y1496720D03*
X417400Y1506220D03*
X396400Y1477620D03*
X396400Y1458620D03*
X417400Y1468120D03*
X396400Y1439520D03*
X396400Y1420520D03*
X417400Y1430020D03*
X434500Y1706220D03*
X434500Y1687220D03*
X455500Y1696720D03*
X434500Y1668120D03*
X434500Y1649120D03*
X455500Y1658620D03*
X434500Y1630020D03*
X434500Y1611020D03*
X455500Y1620520D03*
X434500Y1591920D03*
X434500Y1572920D03*
X455500Y1582420D03*
X434500Y1553820D03*
X434500Y1534820D03*
X455500Y1544320D03*
X434500Y1515720D03*
X434500Y1496720D03*
X455500Y1506220D03*
X434500Y1477620D03*
X434500Y1458620D03*
X455500Y1468120D03*
X434500Y1439520D03*
X434500Y1420520D03*
X455500Y1430020D03*
X472600Y1706220D03*
X472600Y1687220D03*
X493600Y1696720D03*
X472600Y1668120D03*
X472600Y1649120D03*
X493600Y1658620D03*
X472600Y1630020D03*
X472600Y1611020D03*
X493600Y1620520D03*
X472600Y1591920D03*
X472600Y1572920D03*
X493600Y1582420D03*
X472600Y1553820D03*
X472600Y1534820D03*
X493600Y1544320D03*
X472600Y1515720D03*
X472600Y1496720D03*
X493600Y1506220D03*
X472600Y1477620D03*
X472600Y1458620D03*
X493600Y1468120D03*
X472600Y1439520D03*
X472600Y1420520D03*
X493600Y1430020D03*
D11*
X102651Y1687220D03*
X102651Y1696720D03*
X102651Y1706220D03*
X75149Y1706220D03*
X75149Y1696720D03*
X75149Y1687220D03*
D12*
X80147Y1598317D02*
X80147Y1583323D01*
X78153Y1583323D01*
X78153Y1598317D01*
X80147Y1598317D01*
X80147Y1585734D02*
X78153Y1585734D01*
X78153Y1588145D02*
X80147Y1588145D01*
X80147Y1590556D02*
X78153Y1590556D01*
X78153Y1592967D02*
X80147Y1592967D01*
X80147Y1595378D02*
X78153Y1595378D01*
X78153Y1597789D02*
X80147Y1597789D01*
X86647Y1598317D02*
X86647Y1583323D01*
X84653Y1583323D01*
X84653Y1598317D01*
X86647Y1598317D01*
X86647Y1585734D02*
X84653Y1585734D01*
X84653Y1588145D02*
X86647Y1588145D01*
X86647Y1590556D02*
X84653Y1590556D01*
X84653Y1592967D02*
X86647Y1592967D01*
X86647Y1595378D02*
X84653Y1595378D01*
X84653Y1597789D02*
X86647Y1597789D01*
X93147Y1598317D02*
X93147Y1583323D01*
X91153Y1583323D01*
X91153Y1598317D01*
X93147Y1598317D01*
X93147Y1585734D02*
X91153Y1585734D01*
X91153Y1588145D02*
X93147Y1588145D01*
X93147Y1590556D02*
X91153Y1590556D01*
X91153Y1592967D02*
X93147Y1592967D01*
X93147Y1595378D02*
X91153Y1595378D01*
X91153Y1597789D02*
X93147Y1597789D01*
X99647Y1598317D02*
X99647Y1583323D01*
X97653Y1583323D01*
X97653Y1598317D01*
X99647Y1598317D01*
X99647Y1585734D02*
X97653Y1585734D01*
X97653Y1588145D02*
X99647Y1588145D01*
X99647Y1590556D02*
X97653Y1590556D01*
X97653Y1592967D02*
X99647Y1592967D01*
X99647Y1595378D02*
X97653Y1595378D01*
X97653Y1597789D02*
X99647Y1597789D01*
X99647Y1617323D02*
X99647Y1632317D01*
X99647Y1617323D02*
X97653Y1617323D01*
X97653Y1632317D01*
X99647Y1632317D01*
X99647Y1619734D02*
X97653Y1619734D01*
X97653Y1622145D02*
X99647Y1622145D01*
X99647Y1624556D02*
X97653Y1624556D01*
X97653Y1626967D02*
X99647Y1626967D01*
X99647Y1629378D02*
X97653Y1629378D01*
X97653Y1631789D02*
X99647Y1631789D01*
X93147Y1632317D02*
X93147Y1617323D01*
X91153Y1617323D01*
X91153Y1632317D01*
X93147Y1632317D01*
X93147Y1619734D02*
X91153Y1619734D01*
X91153Y1622145D02*
X93147Y1622145D01*
X93147Y1624556D02*
X91153Y1624556D01*
X91153Y1626967D02*
X93147Y1626967D01*
X93147Y1629378D02*
X91153Y1629378D01*
X91153Y1631789D02*
X93147Y1631789D01*
X86647Y1632317D02*
X86647Y1617323D01*
X84653Y1617323D01*
X84653Y1632317D01*
X86647Y1632317D01*
X86647Y1619734D02*
X84653Y1619734D01*
X84653Y1622145D02*
X86647Y1622145D01*
X86647Y1624556D02*
X84653Y1624556D01*
X84653Y1626967D02*
X86647Y1626967D01*
X86647Y1629378D02*
X84653Y1629378D01*
X84653Y1631789D02*
X86647Y1631789D01*
X80147Y1632317D02*
X80147Y1617323D01*
X78153Y1617323D01*
X78153Y1632317D01*
X80147Y1632317D01*
X80147Y1619734D02*
X78153Y1619734D01*
X78153Y1622145D02*
X80147Y1622145D01*
X80147Y1624556D02*
X78153Y1624556D01*
X78153Y1626967D02*
X80147Y1626967D01*
X80147Y1629378D02*
X78153Y1629378D01*
X78153Y1631789D02*
X80147Y1631789D01*
D13*
X60900Y1525270D03*
X60900Y1512570D03*
X60900Y1499870D03*
X60900Y1487170D03*
X60900Y1474470D03*
X60900Y1461770D03*
X60900Y1449070D03*
X60900Y1436370D03*
X116900Y1436370D03*
X116900Y1449070D03*
X116900Y1461770D03*
X116900Y1474470D03*
X116900Y1487170D03*
X116900Y1499870D03*
X116900Y1512570D03*
X116900Y1525270D03*
D14*
X24130Y1468120D03*
X26670Y1493520D03*
X24130Y1518920D03*
X26670Y1544320D03*
X24130Y1569720D03*
X26670Y1595120D03*
X24130Y1620520D03*
X26670Y1645920D03*
D15*
X186300Y1709420D03*
X169300Y1709420D03*
X186300Y1671320D03*
X169300Y1671320D03*
X186300Y1633220D03*
X169300Y1633220D03*
X186300Y1595120D03*
X169300Y1595120D03*
X186300Y1557020D03*
X169300Y1557020D03*
X186300Y1518920D03*
X169300Y1518920D03*
X186300Y1480820D03*
X169300Y1480820D03*
X186300Y1442720D03*
X169300Y1442720D03*
X97400Y1671320D03*
X80400Y1671320D03*
X97400Y1544320D03*
X80400Y1544320D03*
D10*
X205900Y1706220D03*
X205900Y1687220D03*
X226900Y1696720D03*
D16*
X25400Y1709420D03*
X25400Y1417320D03*
D17*
X508000Y1722120D03*
X50800Y1417320D03*
D18*
X63500Y1616320D03*
X63500Y1599320D03*
D10*
X731680Y1668120D03*
X731680Y1649120D03*
X752680Y1658620D03*
X731680Y1630020D03*
X731680Y1611020D03*
X752680Y1620520D03*
X731680Y1591920D03*
X731680Y1572920D03*
X752680Y1582420D03*
X731680Y1553820D03*
X731680Y1534820D03*
X752680Y1544320D03*
X731680Y1515720D03*
X731680Y1496720D03*
X752680Y1506220D03*
X731680Y1477620D03*
X731680Y1458620D03*
X752680Y1468120D03*
X731680Y1439520D03*
X731680Y1420520D03*
X752680Y1430020D03*
X769780Y1706220D03*
X769780Y1687220D03*
X790780Y1696720D03*
X769780Y1668120D03*
X769780Y1649120D03*
X790780Y1658620D03*
X769780Y1630020D03*
X769780Y1611020D03*
X790780Y1620520D03*
X769780Y1591920D03*
X769780Y1572920D03*
X790780Y1582420D03*
X769780Y1553820D03*
X769780Y1534820D03*
X790780Y1544320D03*
X769780Y1515720D03*
X769780Y1496720D03*
X790780Y1506220D03*
X769780Y1477620D03*
X769780Y1458620D03*
X790780Y1468120D03*
X769780Y1439520D03*
X769780Y1420520D03*
X790780Y1430020D03*
X807880Y1706220D03*
X807880Y1687220D03*
X828880Y1696720D03*
X807880Y1668120D03*
X807880Y1649120D03*
X828880Y1658620D03*
X807880Y1630020D03*
X807880Y1611020D03*
X828880Y1620520D03*
X807880Y1591920D03*
X807880Y1572920D03*
X828880Y1582420D03*
X807880Y1553820D03*
X807880Y1534820D03*
X828880Y1544320D03*
X807880Y1515720D03*
X807880Y1496720D03*
X828880Y1506220D03*
X807880Y1477620D03*
X807880Y1458620D03*
X828880Y1468120D03*
X807880Y1439520D03*
X807880Y1420520D03*
X828880Y1430020D03*
X845980Y1706220D03*
X845980Y1687220D03*
X866980Y1696720D03*
X845980Y1668120D03*
X845980Y1649120D03*
X866980Y1658620D03*
X845980Y1630020D03*
X845980Y1611020D03*
X866980Y1620520D03*
X845980Y1591920D03*
X845980Y1572920D03*
X866980Y1582420D03*
X845980Y1553820D03*
X845980Y1534820D03*
X866980Y1544320D03*
X845980Y1515720D03*
X845980Y1496720D03*
X866980Y1506220D03*
X845980Y1477620D03*
X845980Y1458620D03*
X866980Y1468120D03*
X845980Y1439520D03*
X845980Y1420520D03*
X866980Y1430020D03*
X884080Y1706220D03*
X884080Y1687220D03*
X905080Y1696720D03*
X884080Y1668120D03*
X884080Y1649120D03*
X905080Y1658620D03*
X884080Y1630020D03*
X884080Y1611020D03*
X905080Y1620520D03*
X884080Y1591920D03*
X884080Y1572920D03*
X905080Y1582420D03*
X884080Y1553820D03*
X884080Y1534820D03*
X905080Y1544320D03*
X884080Y1515720D03*
X884080Y1496720D03*
X905080Y1506220D03*
X884080Y1477620D03*
X884080Y1458620D03*
X905080Y1468120D03*
X884080Y1439520D03*
X884080Y1420520D03*
X905080Y1430020D03*
X922180Y1706220D03*
X922180Y1687220D03*
X943180Y1696720D03*
X922180Y1668120D03*
X922180Y1649120D03*
X943180Y1658620D03*
X922180Y1630020D03*
X922180Y1611020D03*
X943180Y1620520D03*
X922180Y1591920D03*
X922180Y1572920D03*
X943180Y1582420D03*
X922180Y1553820D03*
X922180Y1534820D03*
X943180Y1544320D03*
X922180Y1515720D03*
X922180Y1496720D03*
X943180Y1506220D03*
X922180Y1477620D03*
X922180Y1458620D03*
X943180Y1468120D03*
X922180Y1439520D03*
X922180Y1420520D03*
X943180Y1430020D03*
X960280Y1706220D03*
X960280Y1687220D03*
X981280Y1696720D03*
X960280Y1668120D03*
X960280Y1649120D03*
X981280Y1658620D03*
X960280Y1630020D03*
X960280Y1611020D03*
X981280Y1620520D03*
X960280Y1591920D03*
X960280Y1572920D03*
X981280Y1582420D03*
X960280Y1553820D03*
X960280Y1534820D03*
X981280Y1544320D03*
X960280Y1515720D03*
X960280Y1496720D03*
X981280Y1506220D03*
X960280Y1477620D03*
X960280Y1458620D03*
X981280Y1468120D03*
X960280Y1439520D03*
X960280Y1420520D03*
X981280Y1430020D03*
X998380Y1706220D03*
X998380Y1687220D03*
X1019380Y1696720D03*
X998380Y1668120D03*
X998380Y1649120D03*
X1019380Y1658620D03*
X998380Y1630020D03*
X998380Y1611020D03*
X1019380Y1620520D03*
X998380Y1591920D03*
X998380Y1572920D03*
X1019380Y1582420D03*
X998380Y1553820D03*
X998380Y1534820D03*
X1019380Y1544320D03*
X998380Y1515720D03*
X998380Y1496720D03*
X1019380Y1506220D03*
X998380Y1477620D03*
X998380Y1458620D03*
X1019380Y1468120D03*
X998380Y1439520D03*
X998380Y1420520D03*
X1019380Y1430020D03*
D11*
X628431Y1687220D03*
X628431Y1696720D03*
X628431Y1706220D03*
X600929Y1706220D03*
X600929Y1696720D03*
X600929Y1687220D03*
D12*
X605927Y1598317D02*
X605927Y1583323D01*
X603933Y1583323D01*
X603933Y1598317D01*
X605927Y1598317D01*
X605927Y1585734D02*
X603933Y1585734D01*
X603933Y1588145D02*
X605927Y1588145D01*
X605927Y1590556D02*
X603933Y1590556D01*
X603933Y1592967D02*
X605927Y1592967D01*
X605927Y1595378D02*
X603933Y1595378D01*
X603933Y1597789D02*
X605927Y1597789D01*
X612427Y1598317D02*
X612427Y1583323D01*
X610433Y1583323D01*
X610433Y1598317D01*
X612427Y1598317D01*
X612427Y1585734D02*
X610433Y1585734D01*
X610433Y1588145D02*
X612427Y1588145D01*
X612427Y1590556D02*
X610433Y1590556D01*
X610433Y1592967D02*
X612427Y1592967D01*
X612427Y1595378D02*
X610433Y1595378D01*
X610433Y1597789D02*
X612427Y1597789D01*
X618927Y1598317D02*
X618927Y1583323D01*
X616933Y1583323D01*
X616933Y1598317D01*
X618927Y1598317D01*
X618927Y1585734D02*
X616933Y1585734D01*
X616933Y1588145D02*
X618927Y1588145D01*
X618927Y1590556D02*
X616933Y1590556D01*
X616933Y1592967D02*
X618927Y1592967D01*
X618927Y1595378D02*
X616933Y1595378D01*
X616933Y1597789D02*
X618927Y1597789D01*
X625427Y1598317D02*
X625427Y1583323D01*
X623433Y1583323D01*
X623433Y1598317D01*
X625427Y1598317D01*
X625427Y1585734D02*
X623433Y1585734D01*
X623433Y1588145D02*
X625427Y1588145D01*
X625427Y1590556D02*
X623433Y1590556D01*
X623433Y1592967D02*
X625427Y1592967D01*
X625427Y1595378D02*
X623433Y1595378D01*
X623433Y1597789D02*
X625427Y1597789D01*
X625427Y1617323D02*
X625427Y1632317D01*
X625427Y1617323D02*
X623433Y1617323D01*
X623433Y1632317D01*
X625427Y1632317D01*
X625427Y1619734D02*
X623433Y1619734D01*
X623433Y1622145D02*
X625427Y1622145D01*
X625427Y1624556D02*
X623433Y1624556D01*
X623433Y1626967D02*
X625427Y1626967D01*
X625427Y1629378D02*
X623433Y1629378D01*
X623433Y1631789D02*
X625427Y1631789D01*
X618927Y1632317D02*
X618927Y1617323D01*
X616933Y1617323D01*
X616933Y1632317D01*
X618927Y1632317D01*
X618927Y1619734D02*
X616933Y1619734D01*
X616933Y1622145D02*
X618927Y1622145D01*
X618927Y1624556D02*
X616933Y1624556D01*
X616933Y1626967D02*
X618927Y1626967D01*
X618927Y1629378D02*
X616933Y1629378D01*
X616933Y1631789D02*
X618927Y1631789D01*
X612427Y1632317D02*
X612427Y1617323D01*
X610433Y1617323D01*
X610433Y1632317D01*
X612427Y1632317D01*
X612427Y1619734D02*
X610433Y1619734D01*
X610433Y1622145D02*
X612427Y1622145D01*
X612427Y1624556D02*
X610433Y1624556D01*
X610433Y1626967D02*
X612427Y1626967D01*
X612427Y1629378D02*
X610433Y1629378D01*
X610433Y1631789D02*
X612427Y1631789D01*
X605927Y1632317D02*
X605927Y1617323D01*
X603933Y1617323D01*
X603933Y1632317D01*
X605927Y1632317D01*
X605927Y1619734D02*
X603933Y1619734D01*
X603933Y1622145D02*
X605927Y1622145D01*
X605927Y1624556D02*
X603933Y1624556D01*
X603933Y1626967D02*
X605927Y1626967D01*
X605927Y1629378D02*
X603933Y1629378D01*
X603933Y1631789D02*
X605927Y1631789D01*
D13*
X586680Y1525270D03*
X586680Y1512570D03*
X586680Y1499870D03*
X586680Y1487170D03*
X586680Y1474470D03*
X586680Y1461770D03*
X586680Y1449070D03*
X586680Y1436370D03*
X642680Y1436370D03*
X642680Y1449070D03*
X642680Y1461770D03*
X642680Y1474470D03*
X642680Y1487170D03*
X642680Y1499870D03*
X642680Y1512570D03*
X642680Y1525270D03*
D14*
X549910Y1468120D03*
X552450Y1493520D03*
X549910Y1518920D03*
X552450Y1544320D03*
X549910Y1569720D03*
X552450Y1595120D03*
X549910Y1620520D03*
X552450Y1645920D03*
D15*
X712080Y1709420D03*
X695080Y1709420D03*
X712080Y1671320D03*
X695080Y1671320D03*
X712080Y1633220D03*
X695080Y1633220D03*
X712080Y1595120D03*
X695080Y1595120D03*
X712080Y1557020D03*
X695080Y1557020D03*
X712080Y1518920D03*
X695080Y1518920D03*
X712080Y1480820D03*
X695080Y1480820D03*
X712080Y1442720D03*
X695080Y1442720D03*
X623180Y1671320D03*
X606180Y1671320D03*
X623180Y1544320D03*
X606180Y1544320D03*
D10*
X731680Y1706220D03*
X731680Y1687220D03*
X752680Y1696720D03*
D16*
X551180Y1709420D03*
X551180Y1417320D03*
D17*
X1033780Y1722120D03*
X576580Y1417320D03*
D18*
X589280Y1616320D03*
X589280Y1599320D03*
D19*
X68580Y1755775D03*
X977265Y1755775D03*
D20*
X59525Y-20955D02*
X59528Y-20733D01*
X59536Y-20511D01*
X59550Y-20289D01*
X59569Y-20067D01*
X59593Y-19847D01*
X59623Y-19626D01*
X59658Y-19407D01*
X59699Y-19188D01*
X59745Y-18971D01*
X59796Y-18755D01*
X59853Y-18540D01*
X59915Y-18326D01*
X59982Y-18115D01*
X60054Y-17904D01*
X60132Y-17696D01*
X60214Y-17490D01*
X60302Y-17286D01*
X60394Y-17083D01*
X60492Y-16884D01*
X60594Y-16687D01*
X60701Y-16492D01*
X60813Y-16300D01*
X60930Y-16111D01*
X61051Y-15924D01*
X61177Y-15741D01*
X61307Y-15561D01*
X61442Y-15384D01*
X61580Y-15211D01*
X61723Y-15041D01*
X61871Y-14874D01*
X62022Y-14711D01*
X62177Y-14552D01*
X62336Y-14397D01*
X62499Y-14246D01*
X62666Y-14098D01*
X62836Y-13955D01*
X63009Y-13817D01*
X63186Y-13682D01*
X63366Y-13552D01*
X63549Y-13426D01*
X63736Y-13305D01*
X63925Y-13188D01*
X64117Y-13076D01*
X64312Y-12969D01*
X64509Y-12867D01*
X64708Y-12769D01*
X64911Y-12677D01*
X65115Y-12589D01*
X65321Y-12507D01*
X65529Y-12429D01*
X65740Y-12357D01*
X65951Y-12290D01*
X66165Y-12228D01*
X66380Y-12171D01*
X66596Y-12120D01*
X66813Y-12074D01*
X67032Y-12033D01*
X67251Y-11998D01*
X67472Y-11968D01*
X67692Y-11944D01*
X67914Y-11925D01*
X68136Y-11911D01*
X68358Y-11903D01*
X68580Y-11900D01*
X68802Y-11903D01*
X69024Y-11911D01*
X69246Y-11925D01*
X69468Y-11944D01*
X69688Y-11968D01*
X69909Y-11998D01*
X70128Y-12033D01*
X70347Y-12074D01*
X70564Y-12120D01*
X70780Y-12171D01*
X70995Y-12228D01*
X71209Y-12290D01*
X71420Y-12357D01*
X71631Y-12429D01*
X71839Y-12507D01*
X72045Y-12589D01*
X72249Y-12677D01*
X72452Y-12769D01*
X72651Y-12867D01*
X72848Y-12969D01*
X73043Y-13076D01*
X73235Y-13188D01*
X73424Y-13305D01*
X73611Y-13426D01*
X73794Y-13552D01*
X73974Y-13682D01*
X74151Y-13817D01*
X74324Y-13955D01*
X74494Y-14098D01*
X74661Y-14246D01*
X74824Y-14397D01*
X74983Y-14552D01*
X75138Y-14711D01*
X75289Y-14874D01*
X75437Y-15041D01*
X75580Y-15211D01*
X75718Y-15384D01*
X75853Y-15561D01*
X75983Y-15741D01*
X76109Y-15924D01*
X76230Y-16111D01*
X76347Y-16300D01*
X76459Y-16492D01*
X76566Y-16687D01*
X76668Y-16884D01*
X76766Y-17083D01*
X76858Y-17286D01*
X76946Y-17490D01*
X77028Y-17696D01*
X77106Y-17904D01*
X77178Y-18115D01*
X77245Y-18326D01*
X77307Y-18540D01*
X77364Y-18755D01*
X77415Y-18971D01*
X77461Y-19188D01*
X77502Y-19407D01*
X77537Y-19626D01*
X77567Y-19847D01*
X77591Y-20067D01*
X77610Y-20289D01*
X77624Y-20511D01*
X77632Y-20733D01*
X77635Y-20955D01*
X77632Y-21177D01*
X77624Y-21399D01*
X77610Y-21621D01*
X77591Y-21843D01*
X77567Y-22063D01*
X77537Y-22284D01*
X77502Y-22503D01*
X77461Y-22722D01*
X77415Y-22939D01*
X77364Y-23155D01*
X77307Y-23370D01*
X77245Y-23584D01*
X77178Y-23795D01*
X77106Y-24006D01*
X77028Y-24214D01*
X76946Y-24420D01*
X76858Y-24624D01*
X76766Y-24827D01*
X76668Y-25026D01*
X76566Y-25223D01*
X76459Y-25418D01*
X76347Y-25610D01*
X76230Y-25799D01*
X76109Y-25986D01*
X75983Y-26169D01*
X75853Y-26349D01*
X75718Y-26526D01*
X75580Y-26699D01*
X75437Y-26869D01*
X75289Y-27036D01*
X75138Y-27199D01*
X74983Y-27358D01*
X74824Y-27513D01*
X74661Y-27664D01*
X74494Y-27812D01*
X74324Y-27955D01*
X74151Y-28093D01*
X73974Y-28228D01*
X73794Y-28358D01*
X73611Y-28484D01*
X73424Y-28605D01*
X73235Y-28722D01*
X73043Y-28834D01*
X72848Y-28941D01*
X72651Y-29043D01*
X72452Y-29141D01*
X72249Y-29233D01*
X72045Y-29321D01*
X71839Y-29403D01*
X71631Y-29481D01*
X71420Y-29553D01*
X71209Y-29620D01*
X70995Y-29682D01*
X70780Y-29739D01*
X70564Y-29790D01*
X70347Y-29836D01*
X70128Y-29877D01*
X69909Y-29912D01*
X69688Y-29942D01*
X69468Y-29966D01*
X69246Y-29985D01*
X69024Y-29999D01*
X68802Y-30007D01*
X68580Y-30010D01*
X68358Y-30007D01*
X68136Y-29999D01*
X67914Y-29985D01*
X67692Y-29966D01*
X67472Y-29942D01*
X67251Y-29912D01*
X67032Y-29877D01*
X66813Y-29836D01*
X66596Y-29790D01*
X66380Y-29739D01*
X66165Y-29682D01*
X65951Y-29620D01*
X65740Y-29553D01*
X65529Y-29481D01*
X65321Y-29403D01*
X65115Y-29321D01*
X64911Y-29233D01*
X64708Y-29141D01*
X64509Y-29043D01*
X64312Y-28941D01*
X64117Y-28834D01*
X63925Y-28722D01*
X63736Y-28605D01*
X63549Y-28484D01*
X63366Y-28358D01*
X63186Y-28228D01*
X63009Y-28093D01*
X62836Y-27955D01*
X62666Y-27812D01*
X62499Y-27664D01*
X62336Y-27513D01*
X62177Y-27358D01*
X62022Y-27199D01*
X61871Y-27036D01*
X61723Y-26869D01*
X61580Y-26699D01*
X61442Y-26526D01*
X61307Y-26349D01*
X61177Y-26169D01*
X61051Y-25986D01*
X60930Y-25799D01*
X60813Y-25610D01*
X60701Y-25418D01*
X60594Y-25223D01*
X60492Y-25026D01*
X60394Y-24827D01*
X60302Y-24624D01*
X60214Y-24420D01*
X60132Y-24214D01*
X60054Y-24006D01*
X59982Y-23795D01*
X59915Y-23584D01*
X59853Y-23370D01*
X59796Y-23155D01*
X59745Y-22939D01*
X59699Y-22722D01*
X59658Y-22503D01*
X59623Y-22284D01*
X59593Y-22063D01*
X59569Y-21843D01*
X59550Y-21621D01*
X59536Y-21399D01*
X59528Y-21177D01*
X59525Y-20955D01*
D21*
X68580Y-20955D03*
M02*
